<?xml version="1.0" encoding="utf-8"?>
<!-- Generator: Adobe Illustrator 24.2.1, SVG Export Plug-In . SVG Version: 6.00 Build 0)  -->
<svg version="1.1" id="圖層_1" xmlns="http://www.w3.org/2000/svg" xmlns:xlink="http://www.w3.org/1999/xlink" x="0px" y="0px"
	 viewBox="0 0 95 74" style="enable-background:new 0 0 95 74;" xml:space="preserve">
<style type="text/css">
	.st0{fill:#9E9E9F;}
	.st1{fill:#595757;}
</style>
<g>
	<g>
		<g>
			<polygon class="st0" points="16.8,41.6 32.1,12 49.1,12 33.8,41.6 			"/>
			<polygon class="st0" points="3.3,25.5 12.7,12 21.2,12 5.9,41.6 			"/>
			<polygon class="st0" points="43.8,41.6 59.2,12 76.2,12 60.8,41.6 			"/>
			<polygon class="st0" points="71.8,41.6 87.1,12 90.8,12 84.6,41.6 			"/>
			<path class="st1" d="M8.1,72.2h-2c-2.1,0-3.7-1.7-3.7-3.7V6.6c0-2.1,1.7-3.7,3.7-3.7h2c2.1,0,3.7,1.7,3.7,3.7v61.9
				C11.8,70.5,10.1,72.2,8.1,72.2z"/>
			<path class="st1" d="M87.9,72.2h-2c-2.1,0-3.7-1.7-3.7-3.7V6.6c0-2.1,1.7-3.7,3.7-3.7h2c2.1,0,3.7,1.7,3.7,3.7v61.9
				C91.6,70.5,90,72.2,87.9,72.2z"/>
			<rect x="10.7" y="10.3" class="st1" width="72.4" height="6"/>
			<rect x="10.7" y="38.6" class="st1" width="72.4" height="6"/>
		</g>
	</g>
</g>
</svg>
