<?xml version="1.0" encoding="utf-8"?>
<!-- Generator: Adobe Illustrator 24.2.1, SVG Export Plug-In . SVG Version: 6.00 Build 0)  -->
<svg version="1.1" id="圖層_1" xmlns="http://www.w3.org/2000/svg" xmlns:xlink="http://www.w3.org/1999/xlink" x="0px" y="0px"
	 viewBox="0 0 82 130" style="enable-background:new 0 0 82 130;" xml:space="preserve">
<style type="text/css">
	.st0{fill:#EBEDEB;}
	.st1{fill:#F2B191;}
	.st2{fill:#FFBB99;}
	.st3{fill:#18391D;}
	.st4{fill:#49AD58;}
	.st5{fill:#D64916;}
	.st6{fill:#E6CCB7;}
	.st7{fill:#373463;}
</style>
<g>
	
		<ellipse transform="matrix(0.9766 -0.2149 0.2149 0.9766 -24.7133 11.1447)" class="st0" cx="38.9" cy="119.3" rx="39.2" ry="5.2"/>
	<g>
		<g>
			<g>
				<path class="st1" d="M48.5,12.7c0,0.2-1,5.8-1,5.8c0.5,2.1,5.1,4.8,6.7,4.5c0.2,0,0.4,0,0.6-0.1c1.6-0.6-1.7-2.9-1.7-2.9l0,0
					v-5.2c-0.3,0.1-0.6,0.1-0.8,0.1C51,14.9,49.3,13.9,48.5,12.7L48.5,12.7z"/>
				<path class="st2" d="M56.7,6.4l-4.4,1.2c-0.6,0.2-1,0.5-1.4,1c0.1,0.2,0.2,0.5,0.2,0.8c0,0.8-0.4,1.5-1,1.5
					c-0.1,0-0.2,0-0.3-0.1l-0.9,1.8c-0.1,0.3-0.2,0.5-0.2,0.8c0.9,1.2,2,2,3.3,2c0.3,0,0.6,0,0.8-0.1c1.7-0.4,3.1-1.2,3.7-4
					c0-0.1,0-0.3,0.1-0.4C56.7,10.4,56.9,8.4,56.7,6.4"/>
				<path class="st2" d="M50.1,8c-0.5,0-1,0.7-1,1.5c0,0.7,0.3,1.2,0.6,1.4C49.9,11,50,11,50.1,11c0.5,0,1-0.7,1-1.5
					c0-0.3-0.1-0.6-0.2-0.8C50.7,8.2,50.4,8,50.1,8"/>
			</g>
			<path id="XMLID_1220_" class="st3" d="M54.7,24.8c0,0,2,0.4,2.6,3.6c0.6,3.2,4.3,11.2,4.3,11.2s2.4-3.7,2.9-4.4
				c0.4-0.7,1.5-1.1,2.8,0.6c1.4,1.7,1.4,3.9,0.1,6.7c-1.2,2.8-3.7,7.2-6.2,7.1c-2.5-0.1-7.8-6.9-8-7.7c-0.2-0.8,0.5-9.9,0.6-11.4
				C54,29,54.7,24.8,54.7,24.8z"/>
			<path id="XMLID_1219_" class="st2" d="M28.6,49.9c0,0,0.5,1.2,1.6,2.5c1.1,1.3,1.7,2.7,1.3,3.3c-0.5,0.6-0.5,0.6-2.5,1.6
				c-2.1,1-3,0.7-3.3,0.2c-0.3-0.5,0.5-1.3,0.5-1.3s-1.5-0.1-1.7-1.5s-0.2-4.3-0.2-4.3l4.2-1L28.6,49.9z"/>
			<path id="XMLID_1218_" class="st4" d="M23.2,48.4c0,0,0.2,2.2,0.9,2.6c0.7,0.4,4.1-0.6,4.5-1.1c0.4-0.5,0.1-3.3,0.1-3.3
				L23.2,48.4z"/>
			<path id="XMLID_1217_" class="st3" d="M46.3,23.3c0,0-1.8-1.4-4.1-1.8s-9.4,1.2-14.2,3.2c-4.8,2-6.8,2.2-7.3,4.3
				c-0.5,2.1,0.6,17.4,1.1,19.1c0.5,1.7,3.9,1.3,5.5,0.6c1.6-0.7,2.7-2,2.9-4.3C30.3,42.1,29,34,29.6,33c0.6-1,9.7-1.8,12.1-2.5
				c2.4-0.7,4-1.7,4.4-2.4"/>
			<path id="XMLID_1216_" class="st4" d="M65.8,34.2c0,0-1.7,1.2-1.1,2.8c0.6,1.6,2.4,2.5,3,2.3c0.6-0.2,1.7-2.1,1.7-2.1
				S68.9,32.8,65.8,34.2z"/>
			<path id="XMLID_1215_" class="st2" d="M65.8,35.4c0,0,1.2,2.4,2.3,2.3c1.1-0.1,1.5-0.8,2.6-2.3c1.1-1.5,2.3-2.7,2-4.4
				c-0.3-1.7-1-4-2-4c-1,0-1.7,0.5-1.7,0.5s-0.4-0.6-1.3,0.3c-0.9,0.9-0.6,1.4-1,2.5c-0.4,1.1-0.4,1.5-0.2,2.3
				c0.2,0.8,0.3,1.2,0.3,1.2L65.8,35.4z"/>
			<path id="XMLID_1214_" class="st2" d="M35.7,56.2c0,0-1.7,2.4-1.1,4.6c0.6,2.2,1.6,4.4,1.6,4.4s-4.1,13.3-5.1,16.1
				c-1,2.7-0.2,3-2.9,4.6c-2.6,1.6-8.4,3.9-10.2,9.9c-1.9,6-4.4,11.6-5.1,13.1c-0.7,1.5-1.1,2.4-2.7,2.4c-1.6,0-4.4-0.7-4.6,1.4
				c-0.2,2.1,0,5.2,0,6c0,0.7-1.9,2-1.1,4.6s2.1,5,2.9,5.2c0.7,0.2,2.1-0.1,2.2-0.7c0.1-0.6-1.4-1.6-0.6-3.9
				c0.7-2.2,4.5-5.9,6.6-7.9c2.1-2,7.1-10.9,10.9-14.8c3.7-4,8-9,11-11.6c3-2.6,9.1-12.7,10.4-15c1.2-2.2,2.6-5.4,2.6-5.4
				s13.1,2.5,15.3,2.9c2.2,0.4,4.5,1.1,4.5,1.1s-3.9,3.4-4.9,8.6S62,96.5,60.9,99.7c-1.1,3.1-2,5-2.7,6.6c-0.7,1.6-2,3.7-1.1,4.7
				c0.9,1,5.6,1.6,8,2c2.4,0.4,7,0.2,8-0.6c1-0.9,1.1-1.4,0.5-1.5c-0.6-0.1-4.1-2.4-5.1-3.2c-1-0.9-1.7-2.4-1.6-3
				c0.1-0.6,5.7-13,8.2-18c2.5-5,5.2-13.7,6-15.7c0.7-2,1-2.4,0.2-3.4c-0.7-1-5.4-4.5-13.1-8.7c-7.7-4.2-12-4.4-14.3-4.7
				c-2.4-0.4-6.4-4-11.7-1.6C36.7,54.9,35.7,56.2,35.7,56.2z"/>
			<path id="XMLID_1213_" class="st5" d="M68.1,58.9c-7.7-4.2-12-4.4-14.3-4.7c-2.4-0.4-6.4-4-11.7-1.6c-5.4,2.4-6.4,3.7-6.4,3.7
				s-1.7,2.4-1.1,4.6c0.6,2.2,1.6,4.4,1.6,4.4s-4.1,13.3-5.1,16.1C31,81.5,31,81.6,31,81.7c1.1,0.4,2.4,0.9,3.9,1.5
				c2.5,1,3.9,2.7,4.6,4c3.1-4,7.3-10.8,8.3-12.6c1.2-2.2,2.6-5.4,2.6-5.4s13.1,2.5,15.3,2.9c0.8,0.1,1.5,0.3,2.2,0.5
				c0.3-1.9,1-4.5,2.3-7c1.2-2.2,2.4-3.2,3.2-3.7C71.8,60.9,70.1,59.9,68.1,58.9z"/>
			<path id="XMLID_231_" class="st6" d="M73,112.4c1-0.9,1.1-1.4,0.5-1.5c-0.6-0.1-4.1-2.4-5.1-3.2c-1-0.9-1.7-2.4-1.6-3
				c0-0.2,0.7-1.6,1.6-3.6c-1,0.3-2.3,0.5-3.3,0.4c-1.2-0.1-3-0.8-4.3-1.2c-1,2.8-1.9,4.6-2.6,6.1c-0.7,1.6-2,3.7-1.1,4.7
				c0.9,1,5.6,1.6,8,2C67.4,113.4,72,113.3,73,112.4z"/>
			<path id="XMLID_206_" class="st7" d="M73.5,110.9c-0.6-0.1-4.1-2.4-5.1-3.2c-1-0.9-1.7-2.4-1.6-3c0,0-0.5-1.6-1.6-1.9
				c-1.1-0.2-1.6,3.1-1.6,3.1l-4.8-1c-0.2,0.5-0.4,0.9-0.6,1.3c-0.7,1.6-2,3.7-1.1,4.7c0.9,1,5.6,1.6,8,2c2.4,0.4,7,0.2,8-0.6
				C74,111.5,74.1,111,73.5,110.9z"/>
			<path id="XMLID_205_" class="st6" d="M14.4,113.1c-1.1-0.8-1.7-2.2-2.1-3.2c-0.5,0.8-1,1.3-2.2,1.3c-1.6,0-4.4-0.7-4.6,1.4
				c-0.2,2.1,0,5.2,0,6c0,0.7-1.9,2-1.1,4.6c0.7,2.6,2.1,5,2.9,5.2c0.7,0.2,2.1-0.1,2.2-0.7c0.1-0.6-1.4-1.6-0.6-3.9
				c0.7-2.2,4.5-5.9,6.6-7.9c0.4-0.4,0.8-0.9,1.4-1.7C16.1,114.1,15.2,113.7,14.4,113.1z"/>
			<path id="XMLID_204_" class="st7" d="M12.5,119c-0.1-0.2-0.2-0.3-0.3-0.5c-0.7-1-2,0.1-2,0.1s-1.2-1.4-1.1-3.2
				c0.1-1.5,1.4-3.4,2-4.2c-0.2,0.1-0.5,0.1-0.8,0.1c-1.6,0-4.4-0.7-4.6,1.4c-0.2,2.1,0,5.2,0,6c0,0.7-1.9,2-1.1,4.6
				c0.7,2.6,2.1,5,2.9,5.2c0.7,0.2,2.1-0.1,2.2-0.7c0.1-0.6-1.4-1.6-0.6-3.9C9.3,122.5,10.9,120.7,12.5,119z"/>
			<path id="XMLID_190_" class="st3" d="M54.9,23.7c0,0,1,4,1.2,9.9c0.1,5.8-2.7,15-2.7,17.1c0,2.1,1.6,3.2,1.2,3.9
				c-0.3,0.7-1.2,1.1-2.2,1.2c-1.1,0.2-5.5-0.3-8.7,0.9c-3.3,1.2-6.5,4.7-7.3,4.5c-0.8-0.2-2.2-1.3-1.6-2.7c0.6-1.4,1.2-2.3,1.7-3.7
				c0.5-1.4,2.2-12.1,2.4-15.6c0.3-3.5-0.7-7.3-1.2-10c-0.5-2.7,1.1-7.5,2.7-8.4c1.6-0.9,6.7-0.3,7.2-0.4
				C48,20.3,53.5,21.1,54.9,23.7z"/>
			<path id="XMLID_184_" class="st4" d="M52.1,23.2c0,0,3,2.8,3.2,2.5c0.3-0.3,1.3-1.5,0-4c-1.4-2.4-3.9-3.8-6.6-5.5
				c-2.7-1.7-5.6-4.5-7-2.4c-1.3,2.1-3.7,6.7-2.2,8c1.5,1.2,8.4,0.5,10,0.8C51.1,22.9,52.1,23.2,52.1,23.2z"/>
		</g>
		<path class="st7" d="M48.8,1.3c-3.7,0.4-6.8,4.4-6.4,7.9c0.1,0.6,0.1,1.2,0,1.7c-0.2,0.7-0.9,1.3-0.7,2c0.1,0.4,0.6,0.7,0.8,1.1
			c0.2,0.4,0.1,0.9,0.2,1.3c0.2,0.8,1.3,1.3,2.1,0.9c0.3-0.2,0.5-0.4,0.9-0.5c0.3-0.1,0.6,0,1,0.1c0.8,0,2.1-0.6,2.4-1.3
			c0.5-1.1,0.8-3.6,0.8-3.6c-0.4-0.2-0.6-0.8-0.6-1.4c0-0.8,0.4-1.5,1-1.5c0.3,0,0.6,0.3,0.8,0.7c0.3-0.5,6.6-2.4,6.6-2.4
			C57,3.9,55.3,0.5,48.8,1.3z"/>
	</g>
</g>
</svg>
