<?xml version="1.0" encoding="utf-8"?>
<!-- Generator: Adobe Illustrator 24.2.1, SVG Export Plug-In . SVG Version: 6.00 Build 0)  -->
<svg version="1.1" id="圖層_1" xmlns="http://www.w3.org/2000/svg" xmlns:xlink="http://www.w3.org/1999/xlink" x="0px" y="0px"
	 viewBox="0 0 158 153.2" style="enable-background:new 0 0 158 153.2;" xml:space="preserve">
<style type="text/css">
	.st0{clip-path:url(#SVGID_2_);}
	.st1{fill:#FCE3C3;}
	.st2{fill:#603813;}
	.st3{fill:#F4B9B8;}
	.st4{fill:#F9BFBB;}
	.st5{fill:#FFCFCA;}
	.st6{fill:#1E1D59;}
	.st7{fill:#151544;}
	.st8{fill:#363740;}
	.st9{fill:#FFFFFF;}
	.st10{fill:#ACDDD9;}
	.st11{fill:#C69C6D;}
	.st12{fill:#C15252;}
	.st13{fill:#AF4646;}
	.st14{fill:#1F3C49;}
	.st15{fill:#D55454;}
	.st16{fill:#F37C7C;}
	.st17{fill:#99A4CE;}
	.st18{fill:#FBB03B;}
</style>
<g>
	<g>
		<defs>
			<circle id="SVGID_1_" cx="80.2" cy="77.5" r="67.6"/>
		</defs>
		<clipPath id="SVGID_2_">
			<use xlink:href="#SVGID_1_"  style="overflow:visible;"/>
		</clipPath>
		<g class="st0">
			<circle class="st1" cx="80.2" cy="77.5" r="67.6"/>
			<g>
				
					<ellipse transform="matrix(0.9887 -0.1498 0.1498 0.9887 -7.0834 13.4088)" class="st2" cx="85.5" cy="53.7" rx="12.7" ry="16.2"/>
				<g>
					<path class="st3" d="M-15,269.4c0,0.9,0.1,1.7,0.2,2.6c0.3,2.3,0.6,4.6,0.8,6.9c0.1,1,0.1,2,0,3c-0.2,1-0.7,1.9-1.6,2.5
						c-0.9,0.6-2,0.5-2.8-0.2c-0.5-0.7-0.8-1.6-0.8-2.5l-0.2-3.5c-0.1-1.6-0.2-3.1-0.2-4.7c0-3.2,0.3-6.5,2-9.2
						c0.5-0.9,3.4-3.1,3.6-0.9c0.1,0.9-0.5,1.9-0.7,2.8C-14.9,267.3-15,268.3-15,269.4z"/>
					<path class="st4" d="M-16.7,271c0,0.9,0.1,1.7,0.2,2.6c0.3,2.3,0.6,4.6,0.8,7c0.1,1,0.1,2,0,3c-0.2,1-0.7,1.9-1.6,2.5
						c-0.9,0.6-2,0.5-2.8-0.2c-0.5-0.7-0.8-1.6-0.8-2.5l-0.2-3.5c-0.1-1.6-0.2-3.1-0.2-4.7c0-3.2,0.3-6.5,2-9.2
						c0.5-0.9,3.4-3.1,3.6-0.9c0.1,0.9-0.5,1.9-0.7,2.8C-16.6,268.9-16.7,270-16.7,271z"/>
					<path class="st5" d="M-2.5,240c-2.2,0.3-4.3,0.7-6.4,1.4c-1.1,0.4-2.2,0.7-3.3,1c0.7,0.6,1.1,1.1,1,1.3
						c-0.1,0.7-0.4,1.4-0.8,2.1l-0.1,0.2c-2.6,4.7-4.8,9.6-6.6,14.7c-1.3,3.4-2.7,6.9-3,10.6c-0.3,3.9-0.3,7.7,0,11.6
						c0,0.6,0.1,1.2,0.3,1.8c0.4,0.9,1.4,1.3,2.3,1c0.1-0.1,0.3-0.1,0.4-0.2c1.9-1.7,1.8-4.9,1.7-7.3c-0.1-2.2-0.1-4.4,0.2-6.6
						c0.4-2.1,1.2-4,2.5-5.7c0.9-1.3,1.7-2.5,2.7-3.8c0.4-0.5,0.7-0.9,1.1-1.4c0.5-0.6,1.2-1,2-1.2c0.8-0.2,1.6-0.1,2.2,0.3
						c0.6,0.5,0.4,1.4,0.3,2c-0.1,0.8-0.3,1.5-0.6,2.3c-0.6,1.2-1,2.6-1.2,3.9c0,0.2,0,0.5,0,0.7c0.1,2.5,2.9,5.3,4.8,2.4
						c0.4-0.6,0.7-1.3,0.9-2c1.2-3.3,3.1-6.4,3.7-9.9c0.3-2.2,0.6-4.5,0.6-6.7c0.5-7.7-0.2-9.6-1.2-12.8
						C-0.2,239.7-1.4,239.8-2.5,240z"/>
					<path class="st4" d="M-10.5,260.6c0.3-0.5,0.5-0.9,0.9-1.3c0.5-0.8,1.2-1.5,2.1-1.9c0.9-0.4,1.9-0.3,2.6,0.3
						c0.5,0.6,0.8,1.4,0.7,2.2c-0.1,1.9-1.2,3.6-2.2,5.3c-0.5,0.9-1,1.8-1.3,2.7c0.2-1.3,0.6-2.7,1.2-3.9c0.3-0.7,0.5-1.5,0.6-2.3
						c0.1-0.7,0.3-1.5-0.3-2c-0.7-0.4-1.5-0.5-2.2-0.3C-9.3,259.6-10,260-10.5,260.6z"/>
				</g>
				<polygon class="st5" points="26.5,493 26.9,462.4 50.2,461.8 46.1,495.1 30.9,502.6 				"/>
				<path class="st6" d="M89.3,205.2c0,0-4.6,37.2-8.2,61.1c-0.9,5.6-1.7,10.4-2.3,13.9c-2.3,11.8-5,29-7.7,48.5
					c-8.9,63.1-18.4,149.9-18.4,149.9H22.5c0,0-3.8-163.6,3.6-219.6c1.5-11.9,5.2-53.8,5.2-53.8H89.3z"/>
				<path class="st7" d="M81,266.3c-0.9,5.6-1.7,10.4-2.3,13.9c-2.3,11.8-5,29-7.7,48.5c-5.6-6.8-9.1-16.5-9.1-27.2
					C61.9,285.3,69.9,271.5,81,266.3z"/>
				<path class="st6" d="M118.1,205.1c0,0,3.6,41.9,5.2,53.8c7.4,56-4.4,219.4-4.4,219.4l-29.7,1.4c0,0-10.3-150.2-20.1-200.1
					c-3.6-18.5-9-74.5-9-74.5L118.1,205.1z"/>
				<g>
					<path class="st8" d="M8.3,238.4c-0.4,2.1-0.8,4.2-1.4,6.2c-0.1,0.3-0.2,0.7-0.3,1c-0.3,1-0.7,2-1.2,2.9
						c-0.2,0.3-0.3,0.6-0.5,0.9c-0.3,0.6-0.8,1-1.4,1.3c-2.3,1-15.4-5.2-16.1-6.7c-0.3-0.7-0.4-1.5-0.3-2.2c0-0.4,0-0.8,0.1-1.1
						c0.1-1.1,0.3-2.1,0.6-3.1c0.1-0.4,0.2-0.7,0.3-1.1c0.8-3,1.8-5.7,1.8-5.7L8.3,238.4z"/>
					<g>
						<path class="st9" d="M6.9,244.6c-0.1,0.3-0.2,0.7-0.3,1L4.7,245c-3.6-1.2-7.2-2.6-10.7-4.1c-1.7-0.8-3.4-1.7-5.1-2.6l-1.2-0.7
							c0.1-0.4,0.2-0.7,0.3-1.1c0.8,0.5,1.6,0.9,2.4,1.4C-4.3,240.7,1.2,242.9,6.9,244.6z"/>
						<path class="st9" d="M5.4,248.5c-0.2,0.3-0.3,0.6-0.5,0.9L3.6,249c-5.8-1.7-11.3-4.1-16.5-7.2c0-0.4,0-0.8,0.1-1.1
							c0.4,0.3,0.9,0.6,1.3,0.8c3.4,2,6.9,3.6,10.6,4.9C1.2,247.1,3.3,247.8,5.4,248.5z"/>
					</g>
				</g>
				<polygon points="63.6,91.5 89,92.5 81.7,107.5 66,106.9 				"/>
				<path class="st5" d="M196.5,151.8c-0.6,0-1.1,0-1.7,0.2c-0.6,0.5-1.2,1.1-1.7,1.7c-1.4,1.4-2.9,2.8-4.3,4.3
					c-0.4,0.4-0.8,0.8-1.1,1.2c-3.2-3.7-6.4-7.4-9.6-11.1c3.4-2.6,6.1-4.6,7.3-5.4l1.7-1.2c0.1-1.6,0.4-3.2,0.8-4.7
					c0.5-1.9,1.5-3.4,2.2-5.2c1.2-3.1,1.8-6.5,2.8-9.7c0.2-1,0.7-2,1.4-2.8c0,0,0.1,0,0.1-0.1c0.7-0.8,1.8-1,2.8-0.6
					c0.7,0.4,1.1,1.2,1.1,2c0.1,1.4,0,2.8-0.4,4.2c-0.2,0.9-0.4,1.7-0.4,2.6c0,1.3,0.9,0.5,1.5-0.2c0.7-0.7,1.3-1.5,1.8-2.3
					c1.1-1.6,2-3.3,3-4.9l7-11.1c0.6-0.9,1.9-1.1,2.8-0.5c0.2,0.1,0.3,0.3,0.5,0.5c1,1.4-0.6,3.2-1.3,4.4c-1.1,2.1-2.1,4.1-3.2,6.2
					c-0.8,1.5-1.5,3-2.3,4.4c-0.4,0.9-1.2,1.6-1.7,2.5c-0.2,0.3-0.7,1.2-0.3,1.6s1-0.4,1.3-0.6c0.7-0.6,1.4-1.2,2-1.8
					c1.3-1.2,2.5-2.4,3.7-3.7c2.4-2.6,5-5,7.7-7.3c0.1-0.1,0.2-0.2,0.4-0.2c0.8-0.7,2.1-0.6,2.8,0.2c0,0,0,0,0,0.1
					c1.2,1.7-1.1,3.6-2.1,4.7c-1.6,1.8-3.3,3.6-4.8,5.5l-3.6,4.1c-0.4,0.5-2.8,2.3-2.2,3.1s2.3-1,2.7-1.2c1.1-0.6,2.1-1.3,3.2-1.9
					c2.1-1.3,4.2-2.6,6.3-4c0.2-0.1,0.4-0.2,0.6-0.3c0.6-0.4,1.1-0.8,1.7-1.3c0.9-0.6,2.1-0.4,2.7,0.5c0.1,0.2,0.2,0.3,0.2,0.5
					c0.5,1.8-1.6,2.7-2.7,3.5c-1.8,1.3-3.6,2.6-5.4,3.9c-1.3,0.9-2.6,1.8-3.9,2.7c-0.7,0.5-3.9,2.3-2.4,3.3c0.3,0.2,1,0,1.3-0.1
					c0.9-0.3,1.8-0.6,2.7-1c2.4-0.9,4.8-1.8,7.2-2.7c1-0.3,2.1,0.2,2.4,1.2c0.1,0.3,0.1,0.6,0.1,0.9c-0.3,2-3.9,2.5-5.4,3.1
					c-2.5,0.9-4.9,1.8-7.3,2.9c-0.4,0.2-0.8,0.4-1.2,0.6c-0.4,0.4-0.8,0.8-1.2,1.3c-3.5,4.1-8.3,6.9-13.6,7.9
					C197.7,151.6,197.1,151.7,196.5,151.8z"/>
				<path class="st10" d="M28,244.9c8,6.1,95.6,5.3,95.5,1c-0.2-10.5-1.8-21.8-3.3-32.9c-0.8-6.3-1.7-12.4-2.2-18.4
					c-1.2-13.9-5.1-57.8-5.6-65.6c-0.3-5.1-1.2-16.5-1.3-17.9c-0.7-0.4-1.3-0.9-2-1.3h-0.1l-1.7-1l0,0c-2.6-1.5-6-3.5-8.3-4.5
					c-5.6-2.6-11.5-4.4-17.6-5.2c-10.2-1.5-20.3,0.3-27.7,2.4c-4,1.1-7.9,2.5-11.6,4.2l0,0c0,0,4.2,1.8,5.4,8.8
					c4.8,29.7-9.8,53.4-9.8,53.4s-3.7,25.9-5.8,39.1C30.6,215.4,26.9,244,28,244.9z"/>
				<path class="st5" d="M63.2,77.4c0.3,1.5,0.6,3.1,0.8,4.6c0,0.1,0,0.2,0,0.3s0,0.1,0,0.1c0.4,2,0.7,4.1,1,6.1
					c0.1,0.8,0.2,1.7,0.2,2.5s0.1,1.9,0.1,2.8c0,1.8,0,3.6-0.1,5.3c0,1,0,2,0,3c0,1.2-0.5,2.4,0,3.6c0.6,1.4,2,2.2,3.2,3
					c1.3,0.9,2.7,1.7,4.2,2.2c3,1.2,6.2,1.4,9.3,0.6c5.8-1.8,4.3-8.2,4.3-12.8v-4.7v-4.8c-1.6-0.5-3.2-1.1-4.8-1.9
					c-5.1-2.5-10.2-5.1-15.2-7.8l-0.4-0.2C64.9,78.8,64,78.2,63.2,77.4z"/>
				<path class="st4" d="M86.2,98.8c-5.8-1.5-11.3-3.8-16.3-6.9c-1.6-1-3.3-2.1-4.8-3.2c-0.3-2-0.6-4.1-1-6.1
					c-0.3-1.7-0.6-3.3-0.9-5c0.9,0.8,2,1.5,3.1,2c5,2.8,10.1,5.3,15.2,7.8c1.5,0.8,3.1,1.4,4.8,1.9L86.2,98.8z"/>
				<path class="st5" d="M66.2,78.7c-2.7,1.8-6.2,2.1-9.1,0.8c-2.5-1.2-4.3-3.5-4.9-6.2c-0.1-0.5-0.2-1-0.2-1.5
					c-0.1-0.9,0.1-1.7,0.3-2.6c0.8-2,2.7-3.4,4.9-3.6c2.2-0.1,4.3,0.9,5.5,2.7l1.3,4L66.2,78.7z"/>
				<polygon class="st5" points="113.2,493 114.1,469 93.4,470 93.7,495.1 109,502.6 				"/>
				<path class="st11" d="M87.6,505.2c0.5-2.2,1.8-4.1,2.7-6.1c0.3-0.6,2.8-6.7,3.2-6.6l0.5,0.1l15.5,2.3l3.8-5.2l0.5-0.7l8,4
					l15.9,8l11.8,6c1.6,0.7,2.4,2.6,1.7,4.3c-0.4,1-1.3,1.7-2.3,1.9c-3.4,0.6-6.9,1-10.4,1.1c-6.3,0.3-12.1,0-18.4,0
					s-12.2-0.3-18.3-0.6l-7.5-0.4h-0.4c-1.7-0.1-4.2-0.4-5.5-1.5C86.7,509.9,87.1,507.2,87.6,505.2z"/>
				<path class="st11" d="M52.3,505.2c-0.7-2.1-1.6-4.2-2.7-6.1c-0.3-0.6-2.8-6.7-3.2-6.6l-0.5,0.1l-15.5,2.3l-3.8-5.2l-0.5-0.7
					l-8,4l-15.9,8l-11.8,6c-1,0.5-1.7,1.4-1.9,2.5c-0.1,1.6,1,3.1,2.5,3.6c3.4,0.6,6.9,1,10.4,1.1c6.3,0.3,12,0,18.4,0
					s12.2-0.3,18.4-0.6l7.5-0.4H46c1.7-0.1,4.2-0.4,5.5-1.5C53.1,509.9,52.8,507.2,52.3,505.2z"/>
				<g>
					<path class="st8" d="M66.8,255.9c-0.1,2.3-0.4,4.7-0.8,7c-0.1,0.3-0.2,0.7-0.2,1c-0.2,0.8-0.4,1.6-0.8,2.3
						c-0.1,0.3-0.3,0.6-0.5,0.9c-0.1,0.2-0.3,0.3-0.4,0.4c-1.2,0.9-15.8-2.2-23.5-5.1c-6.9-2.6-17.9-6.8-18.3-8.8
						c-0.1-0.5-0.1-1-0.1-1.5c0-0.4,0-0.7,0.1-1.1l0,0c0.1-0.7,0.2-1.4,0.4-2.2c0.1-0.4,0.1-0.7,0.2-1.1c0.7-3.3,1.8-6.4,1.8-6.4
						L66.8,255.9z"/>
					<g>
						<path class="st9" d="M65,266.2c-0.1,0.3-0.3,0.6-0.5,0.9c-2.2-0.5-4.4-1-6.6-1.6c-7.8-2-15.4-4.5-22.9-7.4
							c-3.8-1.3-7.4-3-10.9-4.9c-0.6-0.4-1.3-0.7-1.9-1.1c0-0.4,0-0.7,0.1-1.1c1.3,0.7,2.5,1.5,3.8,2.2c3.5,1.8,7.1,3.3,10.8,4.6
							c3.7,1.4,7.4,2.6,11.2,3.8C53.6,263.4,59.3,264.9,65,266.2z"/>
						<path class="st9" d="M66,262.9c-0.1,0.3-0.2,0.7-0.2,1c-2.5-0.5-5-1.2-7.5-1.8c-7.8-2-15.4-4.5-22.9-7.4
							c-3.8-1.3-7.4-2.9-10.9-4.9l-1.8-1c0.1-0.4,0.1-0.7,0.2-1.1c1.2,0.7,2.4,1.4,3.5,2.1c3.5,1.8,7.1,3.3,10.8,4.6
							c3.7,1.4,7.4,2.7,11.2,3.8C54.2,260,60.1,261.6,66,262.9z"/>
					</g>
				</g>
				<path class="st12" d="M67,260c-2.7,4.1-31.1-8.1-40.5-12c-7.1-2.9-4.5-7.2-3.8-12.7c2.3-16.3,5-30.2,7.7-45.2
					c1-5.7,2-11.6,3-17.7l0.1-0.8c-1.2,4-3.4,12.1-4.3,14.9c-5.1,16.1-13.4,54.2-22,55.6c-1.5,0.2-17.8-5.5-18.5-7.6
					c-5.1-14.4,10.9-67.3,13.4-73.8c4.5-11.3,18.6-40.5,22.3-45.3c7.2-9.3,30.6-14.7,31.7-15c3.4-1,6.8-1.8,10.2-2.6
					c3.4,8,4.2,16,5.1,24.6C76.1,168.8,69.2,256.7,67,260z"/>
				<g>
					<polygon class="st8" points="74.6,107.9 74.3,109.3 74.1,110.6 73.7,112.8 73.4,114.1 72.7,117.7 72.5,119 71.6,123.6 
						57.4,100.1 58.4,98.7 59.1,97.8 60.3,96.1 60.9,95.2 61.9,93.8 62.6,92.8 63.6,91.5 					"/>
					<g>
						<path class="st9" d="M74.3,109.3l-0.3,1.3c-2.2-2.8-4.4-5.7-6.5-8.6c-2.1-2.6-3.9-5.4-5.6-8.2l0.7-0.9c0.8,1.5,1.7,3,2.7,4.4
							C68.2,101.3,71.2,105.3,74.3,109.3z"/>
						<path class="st9" d="M73.6,112.8l-0.3,1.3c-2.5-3-5-6-7.4-9.1c-2.2-2.8-4.1-5.8-5.8-8.9l0.7-0.9c0.8,1.5,1.6,3,2.5,4.4
							c2.6,3.8,5.3,7.5,8.3,11L73.6,112.8z"/>
						<path class="st9" d="M72.7,117.7l-0.2,1.3c-2.9-3.2-5.6-6.6-8.1-10.2c-1.5-2.1-2.8-4.3-4.1-6.5c-0.6-1.1-1.3-2.3-1.8-3.4
							l-0.1-0.2l0.7-0.9l0.5,1c0.7,1.3,1.3,2.5,2.1,3.8c2.5,4.4,5.5,8.6,8.7,12.5C71.1,115.9,71.9,116.8,72.7,117.7z"/>
					</g>
				</g>
				<path class="st13" d="M35.8,179.3c-1.5,3.7-3.3,7.3-5.4,10.7c1-5.7,2-11.6,3-17.7c0.6-1.4,6.7-15.5,8.5-30.1
					C42.6,160.1,38.9,171.8,35.8,179.3z"/>
				<g>
					<path class="st8" d="M187,160.9c1.8-0.9,3.6-1.9,5.3-3l0.8-0.6c0.8-0.6,1.6-1.2,2.3-1.9c0.2-0.2,0.5-0.5,0.7-0.7
						c0.4-0.5,0.7-1,0.9-1.6c0.3-2.4-8.9-12.7-10.5-12.9c-0.7,0-1.4,0.1-2.1,0.3c-0.3,0.1-0.7,0.2-1,0.4c-0.9,0.4-1.8,0.9-2.7,1.4
						c-0.3,0.2-0.6,0.4-0.9,0.5c-2.6,1.6-4.8,3.2-4.8,3.2L187,160.9z"/>
					<g>
						<path class="st9" d="M192.3,157.9l0.8-0.6c-0.4-0.5-0.7-1.1-1.1-1.6c-2.1-3-4.3-5.9-6.7-8.6c-1.2-1.4-2.5-2.7-3.8-3.9
							c-0.3-0.3-0.6-0.6-0.9-0.9c-0.3,0.2-0.6,0.4-0.9,0.5c0.6,0.6,1.3,1.2,1.9,1.8C185.6,148.7,189.2,153.2,192.3,157.9z"/>
						<path class="st9" d="M195.5,155.5c0.2-0.2,0.5-0.5,0.7-0.7l-0.7-1.1c-3.1-4.8-6.8-9.2-11-13.1c-0.3,0.1-0.7,0.2-1,0.4l1.1,1
							c2.7,2.5,5.1,5.3,7.3,8.3C193.1,152,194.3,153.7,195.5,155.5z"/>
					</g>
				</g>
				<g>
					<path class="st8" d="M85.3,255.9c0.1,2.3,0.4,4.7,0.8,7c0.1,0.3,0.1,0.7,0.2,1c0.2,0.8,0.4,1.6,0.8,2.3
						c0.1,0.3,0.3,0.6,0.5,0.9c0.1,0.2,0.3,0.3,0.4,0.4c1.2,0.9,15.8-2.2,23.5-5.1c6.9-2.6,17.8-6.8,18.3-8.8c0.1-0.5,0.1-1,0.1-1.5
						c0-0.4,0-0.7-0.1-1.1l0,0c-0.1-0.7-0.2-1.4-0.4-2.2c-0.1-0.4-0.1-0.7-0.2-1.1c-0.7-3.3-1.8-6.4-1.8-6.4L85.3,255.9z"/>
					<g>
						<path class="st9" d="M87.1,266.2c0.1,0.3,0.3,0.6,0.5,0.9c2.2-0.5,4.4-1,6.6-1.6c7.8-2,15.4-4.5,22.9-7.4
							c3.8-1.3,7.4-3,10.8-4.9c0.6-0.4,1.3-0.7,1.9-1.1c0-0.4,0-0.7-0.1-1.1c-1.3,0.7-2.5,1.5-3.8,2.2c-3.5,1.8-7.1,3.3-10.8,4.6
							c-3.7,1.4-7.4,2.6-11.2,3.8C98.5,263.4,92.8,264.9,87.1,266.2z"/>
						<path class="st9" d="M86.2,262.9c0.1,0.3,0.1,0.7,0.2,1c2.5-0.5,5-1.2,7.5-1.8c7.8-2,15.4-4.5,22.9-7.4
							c3.7-1.3,7.4-3,10.8-4.9l1.8-1c-0.1-0.4-0.1-0.7-0.2-1.1c-1.2,0.7-2.4,1.4-3.6,2.1c-3.5,1.8-7.1,3.3-10.8,4.6
							c-3.7,1.4-7.4,2.7-11.2,3.8C97.9,260,92.1,261.6,86.2,262.9z"/>
					</g>
				</g>
				<path class="st12" d="M190.9,160.1c-6.3,8.8-52.4,58.7-66.6,29.5c-0.3-0.6-0.5-1.2-0.8-1.9c-1.5-4.2-4-12.8-5-16.2
					c0,0.3,0.1,0.5,0.1,0.8c0.1,0.5,0.2,1,0.2,1.5c0.9,5.6,1.8,11,2.8,16.2c2.7,15,5.4,29,7.7,45.2c0.8,5.5,3.4,9.8-3.8,12.7
					c-9.4,3.9-37.8,16.1-40.5,12c-1.4-2.1-0.3-38.6-1.3-76.5c-0.6-21.9-4.8-43.9-3.2-60.9c0.9-8.7,1.7-16.6,5.1-24.6
					c3.4,0.8,6.8,1.6,10.2,2.6c1.2,0.3,24.5,5.8,31.7,15c3.8,4.8,20,45,20,45c9.5-6.9,19.8-12.7,30.6-17.5
					C180.6,141.9,192.6,157.7,190.9,160.1z"/>
				<g>
					<polygon class="st8" points="77.6,107.9 77.8,109.3 78.1,110.6 78.5,112.8 78.8,114.1 79.4,117.7 79.7,119 80.6,123.6 
						94.8,100.1 93.8,98.7 93.1,97.8 91.9,96.1 91.2,95.2 90.2,93.8 89.6,92.8 88.6,91.5 					"/>
					<g>
						<path class="st9" d="M77.8,109.3l0.3,1.3c2.2-2.8,4.4-5.7,6.5-8.6c2.1-2.6,3.9-5.4,5.6-8.2l-0.7-0.9c-0.8,1.5-1.7,3-2.7,4.4
							C83.9,101.3,80.9,105.3,77.8,109.3z"/>
						<path class="st9" d="M78.5,112.8l0.2,1.3c2.5-3,5-6,7.4-9.1c2.2-2.8,4.1-5.8,5.8-8.9l-0.7-0.9c-0.8,1.5-1.6,2.9-2.5,4.3
							c-2.6,3.8-5.3,7.5-8.3,11L78.5,112.8z"/>
						<path class="st9" d="M79.4,117.7l0.2,1.3c2.9-3.2,5.7-6.6,8.1-10.2c1.4-2.1,2.8-4.3,4.1-6.5c0.6-1.1,1.3-2.3,1.8-3.4l0.1-0.2
							l-0.7-0.9c-0.2,0.3-0.3,0.7-0.5,1c-0.7,1.3-1.3,2.5-2.1,3.8c-2.5,4.4-5.5,8.6-8.7,12.5C81,115.9,80.2,116.8,79.4,117.7z"/>
					</g>
				</g>
				<path class="st5" d="M96.1,83.4c-1.1,3.1-3.2,5.8-5.9,7.7c-2.6,1.6-5.6,2.4-8.6,2.3c-3.3-0.2-6.6-1.3-9.4-3.1
					c-1.4-0.9-2.7-1.9-3.9-3.1c-2.1-2-3.9-4.3-5.4-6.8c-2.6-4.1-4.4-8.6-5.4-13.3c-1.2-5.3-0.8-10.9,1.2-16c0.9-2.1,2.1-4,3.6-5.7
					c6.5-7.1,17.3-8.3,25.2-2.8c4.1,3,7.1,7.1,8.8,11.9c0.5,1.5,1,3,1.3,4.6C99.6,67.1,99.1,75.6,96.1,83.4z"/>
				<g>
					<g>
						<g>
							<path class="st14" d="M79.9,69c-0.4,0-1-0.7-1.2-1.6c-0.1-0.5,0-1,0.1-1.4c0.1-0.1,0.2-0.5,0.5-0.5l0,0c0.4,0,1,0.6,1.2,1.6
								c0.1,0.5,0.1,1-0.1,1.4C80.3,68.6,80.2,68.9,79.9,69L79.9,69z"/>
							<path class="st14" d="M92.4,67.8c-0.4,0-1-0.6-1.1-1.6c-0.1-0.5,0-0.9,0.1-1.4c0.1-0.3,0.3-0.4,0.5-0.5l0,0
								c0.3,0,1,0.6,1.1,1.6c0.1,0.5,0,0.9-0.1,1.4C92.8,67.6,92.6,67.8,92.4,67.8L92.4,67.8z"/>
							<path class="st14" d="M86.1,70.1c0.4-0.4,0.9-0.5,1.4-0.4c1,0.2,1.7,1.2,1.5,2.2c0,0.1-0.1,0.3-0.1,0.4
								c-0.2,0.5-0.6,0.8-1.2,0.9c0.3-0.3,0.5-0.7,0.6-1.1c0.1-0.8-0.3-1.5-1-1.8C87,70.1,86.5,70,86.1,70.1z"/>
						</g>
						<g>
							<path class="st14" d="M80.3,60c-0.6-0.3-1.3-0.5-1.9-0.5c-0.7,0-1.4,0.1-2.1,0.3c-0.5,0.2-0.7,0.8-0.5,1.3
								c0.1,0.2,0.3,0.4,0.5,0.5c0.1,0,0.2,0.1,0.3,0.1c0.1,0,0.3,0,0.4-0.1c0.4-0.2,0.8-0.2,1.3-0.2c0.4,0,0.8,0.1,1.2,0.3
								c0.1,0.1,0.2,0.1,0.4,0.1c0.6,0,1-0.5,1-1C80.7,60.5,80.6,60.1,80.3,60L80.3,60z"/>
							<path class="st14" d="M92.3,57.9c-0.2,0-0.5-0.1-0.7-0.1c-1-0.1-2.1,0.2-2.9,0.8c-0.4,0.3-0.5,0.9-0.3,1.4
								c0.1,0.2,0.3,0.3,0.6,0.4c0.1,0,0.1,0,0.2,0c0.2,0,0.4,0,0.6-0.2c0.5-0.3,1.1-0.5,1.7-0.5c0.1,0,0.3,0,0.4,0H92
								c0.5,0,0.9-0.3,1-0.8C93.1,58.5,92.8,58.1,92.3,57.9z"/>
						</g>
						<path class="st9" d="M79.6,66.1c-0.3-0.1-0.5,0.1-0.6,0.4c-0.1,0.3,0.1,0.5,0.4,0.6S80,67,80,66.7
							C80.1,66.4,79.9,66.2,79.6,66.1z"/>
						<path class="st9" d="M92.4,64.9c-0.3-0.1-0.5,0.1-0.6,0.4s0.1,0.5,0.4,0.6s0.5-0.1,0.6-0.4C92.8,65.2,92.7,64.9,92.4,64.9
							L92.4,64.9z"/>
						<g>
							<path class="st15" d="M93.8,74.9c0.2,1.6-0.1,3.2-0.8,4.7c-1.4,3.4-5.3,4.9-8.6,3.5c-1.2-0.5-2.3-1.4-3-2.5
								c-0.9-1.3-1.5-2.7-1.6-4.3c0-0.1,0-0.1,0-0.2l14-1.4L93.8,74.9z"/>
							<path class="st9" d="M93.2,74.8c-3.1,3.9-8.8,4.6-12.7,1.5c-0.1-0.1-0.1-0.1-0.2-0.2L93.2,74.8z"/>
							<path class="st16" d="M93,79.6c-1.4,3.4-5.3,4.9-8.6,3.5c-1.2-0.5-2.3-1.4-3-2.5c2.4-0.8,4.8-1.2,7.3-1.3
								C90.1,79.3,91.5,79.4,93,79.6z"/>
						</g>
					</g>
					<g>
						<path class="st4" d="M79.1,72.9c0.1,1.6-1.6,3-3.8,3.1s-4-1.1-4.1-2.7s1.6-3,3.8-3.1S79,71.3,79.1,72.9z"/>
						<path class="st4" d="M97.4,70.3c0.1,1.1-1.1,2-2.6,2.1s-2.7-0.7-2.8-1.8s1.1-2,2.6-2.1S97.3,69.2,97.4,70.3z"/>
					</g>
				</g>
				<path class="st13" d="M123.6,187.8c-1.5-4.2-4-12.8-5-16.2c0,0.3,0.1,0.5,0.1,0.8c0.1,0.5,0.2,1,0.2,1.5l-0.5-2.4l-2.5-37.3
					c0,0,7.8,35.2,8,47.1C124,182.5,123.8,185.1,123.6,187.8z"/>
				<polygon class="st17" points="20.3,465.2 20.3,479.6 54.3,480.3 55.7,465.9 				"/>
				<polygon class="st17" points="86.6,466.7 87.3,481 120.8,480.2 122.3,465.2 				"/>
				<path class="st2" d="M56.1,46.8c-0.6-2.5,0.1-5.2,1.8-7.1c1.6-1.8,3.9-3,6.3-3.4c2.4-0.3,4.8-0.2,7.1,0.3c2.2,0.6,4.5,1,6.8,1
					c2.9-0.2,5.6-1.6,7.4-3.9c1.8-2.2,5.5-1.9,7.8-0.3c2.3,1.5,4.5,4.2,5,7s0.2,7.3-4.1,9.8c-5,3-20.9,1.9-23,1.8
					c-2.2-0.2-4.3,0.6-5.8,2.2c-2.8,3.4-3.3,8.6-3.5,13.1c-1.5-0.9-3.3-1.3-5.1-1.3c-1-0.1-1.9,0.2-2.7,0.8
					c-1.7-3.5-2.9-7.1-3.6-10.9c-0.5-1.9-0.6-3.8-0.4-5.8c0.1-0.7,0.3-1.4,0.7-2.1c0.6-0.9,1.6-1.4,2.6-1.5
					C54.3,46.5,55.2,46.6,56.1,46.8z"/>
			</g>
		</g>
	</g>
	<path class="st18" d="M80.2,150c-0.2,0-0.4-0.2-0.3-0.4c0-0.2,0.2-0.3,0.3-0.3c0.7,0,1.4,0,2,0c0.2,0,0.4,0.1,0.4,0.3
		c0,0.2-0.1,0.4-0.3,0.4c0,0-0.1,0-0.1,0C81.6,150,80.9,150,80.2,150z M78.2,150L78.2,150l-2.1-0.1c-0.2,0-0.4-0.1-0.4-0.3
		c0-0.2,0.1-0.4,0.3-0.4c0,0,0.1,0,0.1,0c0.7,0,1.4,0.1,2,0.1c0.2,0,0.4,0.2,0.4,0.4C78.5,149.8,78.3,150,78.2,150L78.2,150z
		 M84.3,149.9c-0.2,0-0.4-0.2-0.4-0.4c0-0.2,0.1-0.4,0.4-0.4c0.7,0,1.4-0.1,2-0.1c0.2,0,0.4,0.2,0.4,0.4c0,0.2-0.1,0.3-0.3,0.4
		L84.3,149.9L84.3,149.9z M74,149.8L74,149.8c-0.7-0.1-1.4-0.1-2.1-0.2c-0.2,0-0.4-0.2-0.4-0.4c0-0.2,0.2-0.4,0.4-0.4
		c0,0,0.1,0,0.1,0c0.7,0.1,1.4,0.1,2,0.2c0.2,0,0.4,0.2,0.3,0.4C74.4,149.6,74.2,149.7,74,149.8L74,149.8z M88.4,149.5
		c-0.2,0-0.4-0.2-0.4-0.4c0-0.2,0.2-0.4,0.4-0.4c0.7-0.1,1.4-0.2,2-0.3c0.2,0,0.4,0.1,0.5,0.3c0,0.2-0.1,0.4-0.3,0.5c0,0,0,0-0.1,0
		l-2,0.3H88.4z M69.9,149.3L69.9,149.3l-2-0.3c-0.2,0-0.3-0.2-0.3-0.4c0-0.2,0.2-0.3,0.4-0.3c0,0,0,0,0,0c0.7,0.1,1.3,0.2,2,0.3
		c0.2,0,0.4,0.2,0.3,0.4C70.4,149.1,70.2,149.3,69.9,149.3C69.9,149.3,69.9,149.3,69.9,149.3L69.9,149.3z M92.5,148.9
		c-0.2,0-0.3-0.1-0.4-0.3c0-0.2,0.1-0.4,0.3-0.4c0,0,0,0,0,0l2-0.4c0.2,0,0.4,0.1,0.5,0.3c0,0.2-0.1,0.4-0.3,0.4
		C93.9,148.7,93.2,148.8,92.5,148.9L92.5,148.9z M65.8,148.6L65.8,148.6c-0.7-0.1-1.4-0.3-2.1-0.4c-0.2,0-0.3-0.3-0.3-0.5
		c0,0,0,0,0,0c0-0.2,0.2-0.3,0.5-0.3c0,0,0,0,0,0c0.7,0.1,1.3,0.3,2,0.4c0.2,0,0.3,0.3,0.3,0.5C66.2,148.5,66.1,148.6,65.8,148.6
		L65.8,148.6z M96.5,148.1c-0.2,0-0.4-0.1-0.4-0.3c0-0.2,0.1-0.4,0.3-0.4c0.7-0.1,1.3-0.3,2-0.5c0.2,0,0.4,0.1,0.4,0.3
		c0,0.2-0.1,0.3-0.2,0.4c-0.7,0.2-1.3,0.3-2,0.5L96.5,148.1z M61.8,147.6L61.8,147.6l-2.1-0.6c-0.2-0.1-0.3-0.3-0.3-0.5c0,0,0,0,0,0
		c0.1-0.2,0.3-0.3,0.5-0.3c0.6,0.2,1.3,0.4,2,0.6c0.2,0.1,0.3,0.3,0.3,0.5c0,0,0,0,0,0C62.2,147.5,62,147.7,61.8,147.6L61.8,147.6z
		 M100.5,147.1c-0.2,0-0.3-0.1-0.4-0.3c-0.1-0.2,0.1-0.4,0.3-0.5c0.7-0.2,1.3-0.4,2-0.6c0.2-0.1,0.4,0,0.5,0.2
		c0.1,0.2,0,0.4-0.2,0.5l0,0c-0.7,0.2-1.3,0.4-2,0.6L100.5,147.1z M57.9,146.5c0,0-0.1,0-0.1,0c-0.7-0.2-1.3-0.4-2-0.7
		c-0.2-0.1-0.3-0.3-0.2-0.5c0.1-0.2,0.3-0.3,0.5-0.2c0.6,0.2,1.3,0.4,2,0.7c0.2,0,0.3,0.2,0.3,0.4C58.2,146.4,58.1,146.5,57.9,146.5
		L57.9,146.5z M104.4,145.8c-0.2,0-0.3-0.1-0.4-0.3c-0.1-0.2,0-0.4,0.2-0.5c0.6-0.2,1.3-0.5,1.9-0.7c0.2,0,0.4,0.1,0.5,0.3
		c0,0.2,0,0.3-0.2,0.4c-0.6,0.3-1.3,0.5-1.9,0.7C104.5,145.8,104.5,145.8,104.4,145.8z M54,145.1c0,0-0.1,0-0.1,0
		c-0.6-0.3-1.3-0.5-1.9-0.8c-0.2-0.1-0.3-0.3-0.2-0.5c0.1-0.2,0.3-0.3,0.5-0.2l1.9,0.8c0.2,0.1,0.3,0.3,0.2,0.5
		C54.3,145,54.2,145.1,54,145.1L54,145.1z M108.2,144.3c-0.2,0-0.4-0.2-0.4-0.4c0-0.1,0.1-0.3,0.2-0.3c0.6-0.3,1.3-0.5,1.9-0.8
		c0.2-0.1,0.4,0,0.5,0.2c0.1,0.2,0,0.4-0.2,0.5l-1.9,0.8C108.3,144.3,108.3,144.3,108.2,144.3z M50.2,143.5c-0.1,0-0.1,0-0.2,0
		c-0.6-0.3-1.3-0.6-1.9-0.9c-0.2-0.1-0.3-0.3-0.2-0.5c0,0,0,0,0,0c0.1-0.2,0.3-0.3,0.5-0.2c0.6,0.3,1.2,0.6,1.8,0.9
		c0.2,0.1,0.3,0.3,0.2,0.5C50.5,143.5,50.4,143.5,50.2,143.5L50.2,143.5z M112,142.6c-0.1,0-0.3-0.1-0.3-0.2c-0.1-0.2,0-0.4,0.2-0.5
		c0.6-0.3,1.2-0.6,1.8-0.9c0.2-0.1,0.4,0,0.5,0.2c0.1,0.2,0,0.4-0.2,0.5c0,0,0,0,0,0c-0.6,0.3-1.2,0.6-1.8,0.9
		C112.1,142.6,112,142.6,112,142.6L112,142.6z M46.5,141.7c-0.1,0-0.1,0-0.2-0.1c-0.6-0.3-1.2-0.7-1.8-1c-0.2-0.1-0.2-0.3-0.1-0.5
		c0.1-0.2,0.3-0.2,0.5-0.1c0,0,0,0,0,0l1.8,1c0.2,0.1,0.3,0.3,0.2,0.5c0,0,0,0,0,0C46.8,141.6,46.6,141.7,46.5,141.7L46.5,141.7z
		 M115.7,140.7c-0.2,0-0.4-0.2-0.4-0.4c0-0.1,0.1-0.2,0.2-0.3c0.6-0.3,1.2-0.7,1.8-1c0.2-0.1,0.4,0,0.5,0.1c0.1,0.2,0,0.4-0.1,0.5
		c-0.6,0.4-1.2,0.7-1.8,1C115.8,140.7,115.7,140.7,115.7,140.7L115.7,140.7z M43,139.7c-0.1,0-0.1,0-0.2-0.1l-1.8-1.1
		c-0.2-0.1-0.2-0.4,0-0.5c0.1-0.1,0.3-0.2,0.5-0.1c0.6,0.4,1.2,0.7,1.7,1.1c0.2,0.1,0.2,0.3,0.1,0.5C43.2,139.6,43,139.7,43,139.7
		L43,139.7z M119.2,138.6c-0.2,0-0.4-0.1-0.4-0.4c0-0.1,0.1-0.3,0.2-0.4l1.7-1.1c0.2-0.1,0.4-0.1,0.5,0.1s0.1,0.4-0.1,0.5
		c-0.6,0.4-1.2,0.8-1.7,1.1C119.3,138.6,119.2,138.6,119.2,138.6L119.2,138.6z M39.5,137.5c-0.1,0-0.2,0-0.2-0.1
		c-0.6-0.4-1.1-0.8-1.7-1.2c-0.2-0.1-0.2-0.4-0.1-0.5c0.1-0.2,0.4-0.2,0.5-0.1c0,0,0,0,0,0c0.5,0.4,1.1,0.8,1.7,1.2
		c0.2,0.1,0.2,0.3,0.1,0.5C39.7,137.4,39.6,137.5,39.5,137.5L39.5,137.5z M122.6,136.3c-0.1,0-0.2-0.1-0.3-0.2
		c-0.1-0.2-0.1-0.4,0.1-0.5c0,0,0,0,0,0c0.5-0.4,1.1-0.8,1.6-1.2c0.2-0.1,0.4,0,0.5,0.2c0.1,0.1,0.1,0.3-0.1,0.5
		c-0.5,0.4-1.1,0.8-1.7,1.2C122.7,136.3,122.6,136.3,122.6,136.3L122.6,136.3z M36.1,135c-0.1,0-0.2,0-0.2-0.1
		c-0.5-0.4-1.1-0.9-1.6-1.3c-0.2-0.1-0.2-0.4-0.1-0.5c0.1-0.2,0.4-0.2,0.5-0.1l1.6,1.3c0.2,0.1,0.2,0.4,0.1,0.5c0,0,0,0,0,0
		C36.3,134.9,36.2,135,36.1,135z M125.8,133.7c-0.1,0-0.2-0.1-0.3-0.1c-0.1-0.2-0.1-0.4,0.1-0.5c0,0,0,0,0,0l1.6-1.3
		c0.2-0.1,0.4-0.1,0.5,0.1c0.1,0.1,0.1,0.3,0,0.5c-0.5,0.4-1.1,0.9-1.6,1.3C125.9,133.7,125.9,133.7,125.8,133.7z M32.9,132.4
		c-0.1,0-0.2,0-0.3-0.1c-0.5-0.4-1-0.9-1.5-1.4c-0.2-0.1-0.2-0.4,0-0.5c0.1-0.2,0.4-0.2,0.5,0l0,0c0.5,0.5,1,0.9,1.5,1.4
		c0.1,0.2,0.1,0.4,0,0.5C33.1,132.3,33,132.4,32.9,132.4z M128.9,131c-0.1,0-0.2-0.1-0.3-0.1c-0.1-0.1-0.2-0.4,0-0.5c0,0,0,0,0,0
		c0.5-0.5,1-0.9,1.5-1.4c0.1-0.1,0.4-0.2,0.5,0c0,0,0,0,0,0c0.1,0.1,0.2,0.4,0,0.5c0,0,0,0,0,0c-0.5,0.5-1,1-1.5,1.4
		C129.1,131,129,131,128.9,131L128.9,131z M29.9,129.6c-0.1,0-0.2,0-0.3-0.1c-0.5-0.5-1-1-1.5-1.5c-0.2-0.1-0.2-0.4,0-0.5
		c0,0,0,0,0,0c0.2-0.1,0.4-0.1,0.5,0c0.5,0.5,1,1,1.5,1.5c0.1,0.1,0.2,0.4,0,0.5c0,0,0,0,0,0C30.1,129.6,30,129.6,29.9,129.6
		L29.9,129.6z M131.9,128.2c-0.1,0-0.2,0-0.3-0.1c-0.1-0.1-0.2-0.4,0-0.5c0,0,0,0,0,0c0.5-0.5,0.9-1,1.4-1.5
		c0.1-0.2,0.4-0.2,0.5-0.1s0.2,0.4,0.1,0.5c0,0,0,0.1-0.1,0.1c-0.5,0.5-0.9,1-1.4,1.5C132.1,128.1,132,128.2,131.9,128.2
		L131.9,128.2z M27,126.7c-0.1,0-0.2,0-0.3-0.1c-0.5-0.5-0.9-1-1.4-1.5c-0.1-0.2-0.1-0.4,0-0.5c0.2-0.1,0.4-0.1,0.5,0l0,0l1.4,1.5
		c0.2,0.1,0.2,0.4,0,0.5c0,0,0,0,0,0C27.2,126.6,27.1,126.7,27,126.7z M134.6,125.1c-0.1,0-0.2,0-0.3-0.1c-0.1-0.1-0.2-0.4,0-0.5
		c0,0,0,0,0,0c0.4-0.5,0.9-1,1.3-1.6c0.2-0.1,0.4-0.1,0.6,0c0.1,0.1,0.1,0.3,0,0.5c-0.4,0.5-0.9,1.1-1.3,1.6
		C134.9,125.1,134.8,125.2,134.6,125.1z M24.3,123.5c-0.1,0-0.2-0.1-0.3-0.1c-0.4-0.5-0.9-1.1-1.3-1.6c-0.1-0.2,0-0.4,0.2-0.5
		c0.1-0.1,0.3-0.1,0.5,0.1c0.4,0.5,0.8,1.1,1.3,1.6c0.1,0.2,0.1,0.4-0.1,0.5C24.5,123.5,24.4,123.5,24.3,123.5z M137.2,121.9
		c-0.1,0-0.2,0-0.2-0.1c-0.2-0.1-0.2-0.4-0.1-0.5c0,0,0,0,0,0c0.4-0.5,0.8-1.1,1.2-1.6c0.1-0.2,0.4-0.2,0.5-0.1c0,0,0,0,0,0
		c0.2,0.1,0.2,0.4,0.1,0.5c-0.4,0.6-0.8,1.1-1.2,1.7C137.5,121.9,137.4,121.9,137.2,121.9L137.2,121.9z M21.8,120.3
		c-0.1,0-0.2-0.1-0.3-0.2c-0.4-0.6-0.8-1.1-1.2-1.7c-0.1-0.2-0.1-0.4,0.1-0.5c0.2-0.1,0.4-0.1,0.5,0.1c0.4,0.6,0.8,1.1,1.2,1.7
		c0.1,0.2,0.1,0.4-0.1,0.5c0,0,0,0,0,0C22,120.3,21.9,120.3,21.8,120.3z M139.6,118.6c-0.1,0-0.2,0-0.2-0.1
		c-0.2-0.1-0.2-0.4-0.1-0.5c0,0,0,0,0,0c0.4-0.6,0.8-1.1,1.1-1.7c0.1-0.2,0.3-0.2,0.5-0.1c0.2,0.1,0.2,0.3,0.1,0.5c0,0,0,0,0,0
		c-0.4,0.6-0.8,1.2-1.1,1.7C139.9,118.6,139.8,118.6,139.6,118.6z M19.5,116.9c-0.1,0-0.3-0.1-0.3-0.2c-0.4-0.6-0.7-1.2-1.1-1.8
		c-0.1-0.2-0.1-0.4,0.1-0.5c0,0,0,0,0,0c0.2-0.1,0.4-0.1,0.5,0.1c0.4,0.6,0.7,1.2,1.1,1.7c0.1,0.2,0.1,0.4-0.1,0.5
		C19.6,116.9,19.6,116.9,19.5,116.9z M141.9,115.2c-0.1,0-0.1,0-0.2-0.1c-0.2-0.1-0.2-0.3-0.1-0.5c0.4-0.6,0.7-1.2,1-1.8
		c0.1-0.2,0.3-0.3,0.5-0.2c0,0,0,0,0,0c0.2,0.1,0.3,0.3,0.1,0.5c-0.3,0.6-0.7,1.2-1,1.8C142.2,115.1,142,115.2,141.9,115.2z
		 M17.3,113.4c-0.1,0-0.3-0.1-0.3-0.2c-0.3-0.6-0.7-1.2-1-1.8c-0.1-0.2,0-0.4,0.2-0.5c0.2-0.1,0.4,0,0.5,0.2l0,0
		c0.3,0.6,0.7,1.2,1,1.8c0.1,0.2,0,0.4-0.1,0.5c0,0,0,0,0,0C17.5,113.4,17.4,113.4,17.3,113.4z M143.9,111.6c-0.2,0-0.4-0.2-0.4-0.4
		c0-0.1,0-0.1,0-0.2c0.3-0.6,0.6-1.2,0.9-1.8c0.1-0.2,0.3-0.3,0.5-0.2c0,0,0,0,0,0c0.2,0.1,0.3,0.3,0.2,0.5c0,0,0,0,0,0
		c-0.3,0.6-0.6,1.2-0.9,1.8C144.2,111.5,144.1,111.6,143.9,111.6z M15.4,109.7c-0.1,0-0.3-0.1-0.4-0.2c-0.3-0.6-0.6-1.2-0.9-1.9
		c-0.1-0.2,0-0.4,0.2-0.5c0.2-0.1,0.4,0,0.5,0.2c0.3,0.6,0.6,1.2,0.9,1.8c0.1,0.2,0,0.4-0.2,0.5c0,0,0,0,0,0
		C15.5,109.7,15.5,109.7,15.4,109.7z M145.8,107.9c-0.1,0-0.1,0-0.2,0c-0.2-0.1-0.3-0.3-0.2-0.5c0.3-0.6,0.6-1.3,0.8-1.9
		c0.1-0.2,0.3-0.3,0.5-0.2c0,0,0,0,0,0c0.2,0.1,0.3,0.3,0.2,0.5v0c-0.3,0.6-0.6,1.3-0.8,1.9C146,107.8,145.9,107.9,145.8,107.9z
		 M13.8,106c-0.2,0-0.3-0.1-0.4-0.2c-0.3-0.6-0.5-1.3-0.8-1.9c-0.1-0.2,0-0.4,0.2-0.5c0.2-0.1,0.4,0,0.5,0.2c0,0,0,0,0,0
		c0.3,0.6,0.5,1.3,0.8,1.9c0.1,0.2,0,0.4-0.2,0.5C13.8,106,13.8,106,13.8,106L13.8,106z M147.4,104c0,0-0.1,0-0.1,0
		c-0.2-0.1-0.3-0.3-0.2-0.5c0,0,0,0,0,0c0.3-0.6,0.5-1.3,0.7-1.9c0.1-0.2,0.3-0.3,0.5-0.2c0.2,0.1,0.3,0.3,0.2,0.5l0,0
		c-0.2,0.7-0.5,1.3-0.7,1.9C147.7,104,147.5,104.1,147.4,104L147.4,104z M12.2,102.2c-0.2,0-0.3-0.1-0.4-0.3c-0.2-0.7-0.5-1.3-0.7-2
		c0-0.2,0.1-0.4,0.3-0.4c0.2-0.1,0.4,0.1,0.5,0.3c0.2,0.7,0.4,1.3,0.7,1.9c0.1,0.2,0,0.4-0.2,0.5c0,0,0,0,0,0H12.2z M148.8,100.2
		h-0.1c-0.2-0.1-0.3-0.3-0.3-0.5c0.2-0.6,0.4-1.3,0.6-2c0.1-0.2,0.3-0.3,0.5-0.3c0,0,0,0,0,0c0.2,0.1,0.3,0.3,0.3,0.5c0,0,0,0,0,0
		c-0.2,0.7-0.4,1.3-0.6,2C149.1,100.1,148.9,100.2,148.8,100.2L148.8,100.2z M10.9,98.3c-0.2,0-0.3-0.1-0.4-0.3
		c-0.2-0.7-0.4-1.3-0.6-2c0-0.2,0.1-0.4,0.3-0.4c0.2,0,0.4,0.1,0.4,0.2c0.2,0.7,0.3,1.3,0.5,2c0.1,0.2,0,0.4-0.2,0.5c0,0,0,0,0,0
		L10.9,98.3z M149.9,96.3L149.9,96.3c-0.3,0-0.4-0.3-0.4-0.5c0,0,0,0,0,0c0.2-0.7,0.3-1.3,0.5-2c0-0.2,0.2-0.3,0.5-0.3c0,0,0,0,0,0
		c0.2,0,0.3,0.2,0.3,0.5c0,0,0,0,0,0c-0.1,0.7-0.3,1.3-0.5,2C150.3,96.1,150.1,96.2,149.9,96.3L149.9,96.3z M9.9,94.3
		c-0.2,0-0.3-0.1-0.4-0.3c-0.2-0.7-0.3-1.3-0.4-2c0-0.2,0.1-0.4,0.4-0.4c0.2,0,0.3,0.1,0.4,0.3c0.1,0.7,0.3,1.3,0.4,2
		C10.4,94.1,10.2,94.3,9.9,94.3C10,94.3,10,94.3,9.9,94.3L9.9,94.3z M150.8,92.2L150.8,92.2c-0.3,0-0.4-0.2-0.4-0.4c0,0,0,0,0,0
		c0.1-0.7,0.3-1.3,0.4-2c0-0.2,0.2-0.3,0.4-0.3c0.2,0,0.3,0.2,0.3,0.4c0,0,0,0,0,0c-0.1,0.7-0.2,1.4-0.4,2
		C151.2,92.1,151,92.2,150.8,92.2z M9.1,90.2c-0.2,0-0.3-0.1-0.4-0.3c-0.1-0.7-0.2-1.4-0.3-2.1c0-0.2,0.2-0.3,0.3-0.3
		c0.2,0,0.4,0.1,0.4,0.3c0.1,0.7,0.2,1.4,0.3,2C9.5,90,9.4,90.2,9.1,90.2C9.2,90.3,9.2,90.3,9.1,90.2L9.1,90.2z M151.5,88.1
		L151.5,88.1c-0.2,0-0.4-0.2-0.3-0.4c0,0,0,0,0,0c0.1-0.7,0.2-1.4,0.3-2c0-0.2,0.2-0.4,0.4-0.3c0,0,0,0,0,0c0.2,0,0.4,0.2,0.3,0.4
		c0,0,0,0,0,0c-0.1,0.7-0.2,1.4-0.3,2.1C151.9,88,151.7,88.2,151.5,88.1L151.5,88.1z M8.5,86.1c-0.2,0-0.4-0.1-0.4-0.3
		c-0.1-0.7-0.1-1.4-0.2-2.1c0-0.2,0.1-0.4,0.4-0.4c0.2,0,0.4,0.1,0.4,0.3c0,0,0,0,0,0c0.1,0.7,0.1,1.4,0.2,2
		C8.9,85.9,8.8,86,8.5,86.1L8.5,86.1z M152,84L152,84c-0.2,0-0.4-0.2-0.4-0.4c0,0,0,0,0,0c0.1-0.7,0.1-1.4,0.1-2
		c0-0.2,0.2-0.4,0.4-0.4c0.2,0,0.4,0.2,0.4,0.4c0,0,0,0,0,0c0,0.7-0.1,1.4-0.1,2.1C152.5,83.8,152.3,84,152,84
		C152.1,84.1,152,84.1,152,84L152,84z M8.1,82.1c-0.2,0-0.4-0.2-0.4-0.4c0-0.7-0.1-1.4-0.1-2.1c0-0.2,0.1-0.4,0.3-0.4
		c0.2,0,0.4,0.1,0.4,0.3c0,0,0,0.1,0,0.1c0,0.7,0,1.3,0.1,2C8.5,81.9,8.4,82,8.1,82.1L8.1,82.1z M152.2,79.9L152.2,79.9
		c-0.2,0-0.4-0.2-0.4-0.4c0,0,0,0,0,0c0-0.7,0-1.4,0-2v-0.1c0-0.2,0.1-0.4,0.3-0.4c0.2,0,0.4,0.1,0.4,0.3c0,0,0,0.1,0,0.1v0.1
		c0,0.7,0,1.4,0,2.1C152.6,79.8,152.4,79.9,152.2,79.9C152.2,79.9,152.2,79.9,152.2,79.9z M8,77.9c-0.2,0-0.4-0.2-0.4-0.4v-0.1
		c0-0.7,0-1.3,0-2c0-0.2,0.2-0.4,0.4-0.4c0.2,0,0.4,0.2,0.4,0.4c0,0.7,0,1.3,0,2v0.1C8.4,77.8,8.2,78,8,77.9L8,77.9z M152.2,75.7
		c-0.2,0-0.4-0.2-0.4-0.4c0,0,0,0,0,0c0-0.7,0-1.4-0.1-2c0-0.2,0.1-0.4,0.3-0.4c0.2,0,0.4,0.1,0.4,0.3c0,0,0,0.1,0,0.1
		c0,0.7,0.1,1.4,0.1,2.1C152.6,75.6,152.4,75.8,152.2,75.7C152.2,75.8,152.2,75.8,152.2,75.7L152.2,75.7z M8.1,73.8L8.1,73.8
		c-0.2,0-0.4-0.2-0.4-0.4c0-0.7,0.1-1.4,0.2-2.1c0-0.2,0.2-0.4,0.4-0.4c0,0,0,0,0,0c0.2,0,0.4,0.2,0.4,0.4c0,0.7-0.1,1.4-0.1,2
		C8.6,73.6,8.4,73.8,8.1,73.8C8.2,73.8,8.2,73.8,8.1,73.8z M152,71.6c-0.2,0-0.4-0.2-0.4-0.3c-0.1-0.7-0.1-1.3-0.2-2
		c0-0.2,0.1-0.4,0.3-0.5c0.2,0,0.4,0.1,0.5,0.3c0,0,0,0.1,0,0.1c0.1,0.7,0.1,1.4,0.2,2.1C152.4,71.4,152.2,71.6,152,71.6L152,71.6z
		 M8.5,69.7L8.5,69.7c-0.2,0-0.4-0.2-0.3-0.4c0,0,0,0,0,0c0.1-0.7,0.2-1.4,0.3-2.1c0-0.2,0.2-0.4,0.4-0.3c0,0,0,0,0,0
		c0.2,0,0.4,0.2,0.3,0.4c-0.1,0.7-0.2,1.3-0.3,2C8.9,69.6,8.7,69.7,8.5,69.7C8.5,69.7,8.5,69.7,8.5,69.7z M151.5,67.5
		c-0.2,0-0.4-0.1-0.4-0.3c-0.1-0.7-0.2-1.3-0.3-2c0-0.2,0.1-0.4,0.3-0.4c0.2,0,0.4,0.1,0.4,0.3c0.1,0.7,0.2,1.4,0.3,2
		C151.9,67.2,151.7,67.4,151.5,67.5L151.5,67.5z M9.1,65.7L9.1,65.7c-0.3,0-0.4-0.2-0.4-0.4c0,0,0,0,0-0.1c0.1-0.7,0.2-1.4,0.4-2
		c0-0.2,0.2-0.3,0.5-0.3s0.3,0.2,0.3,0.5c-0.1,0.7-0.3,1.3-0.4,2C9.4,65.5,9.2,65.6,9.1,65.7z M150.8,63.4c-0.2,0-0.3-0.1-0.4-0.3
		c-0.1-0.7-0.3-1.3-0.4-2c0-0.2,0.1-0.4,0.3-0.5c0,0,0,0,0,0c0.2,0,0.4,0.1,0.5,0.3c0,0,0,0,0,0c0.2,0.7,0.3,1.3,0.4,2
		C151.2,63.1,151.1,63.3,150.8,63.4C150.9,63.4,150.9,63.4,150.8,63.4L150.8,63.4z M9.9,61.6L9.9,61.6c-0.3,0-0.4-0.2-0.4-0.5
		c0,0,0,0,0,0c0.2-0.7,0.3-1.3,0.5-2c0-0.2,0.3-0.3,0.5-0.3c0,0,0,0,0,0c0.2,0.1,0.3,0.3,0.3,0.5c-0.2,0.7-0.3,1.3-0.5,2
		C10.2,61.5,10,61.6,9.9,61.6z M149.9,59.4c-0.2,0-0.3-0.1-0.4-0.3c-0.2-0.7-0.4-1.3-0.6-2c-0.1-0.2,0.1-0.4,0.3-0.5
		c0.2-0.1,0.4,0.1,0.5,0.3l0,0c0.2,0.7,0.4,1.3,0.6,2c0.1,0.2-0.1,0.4-0.3,0.5C150,59.4,150,59.4,149.9,59.4L149.9,59.4z M10.9,57.6
		L10.9,57.6c-0.3-0.1-0.4-0.3-0.3-0.5c0.2-0.7,0.4-1.3,0.6-2c0.1-0.2,0.3-0.3,0.5-0.2c0.2,0.1,0.3,0.3,0.3,0.5
		c-0.2,0.6-0.4,1.3-0.6,2C11.2,57.6,11.1,57.6,10.9,57.6L10.9,57.6z M148.7,55.5c-0.2,0-0.3-0.1-0.4-0.3c-0.2-0.7-0.4-1.3-0.7-1.9
		c-0.1-0.2,0-0.4,0.2-0.5c0.2-0.1,0.4,0,0.5,0.2c0,0,0,0,0,0c0.2,0.7,0.5,1.3,0.7,2c0.1,0.2,0,0.4-0.2,0.5c0,0,0,0,0,0
		C148.8,55.5,148.7,55.5,148.7,55.5z M12.2,53.7H12c-0.2-0.1-0.3-0.3-0.2-0.5c0.2-0.7,0.5-1.3,0.7-2c0.1-0.2,0.3-0.3,0.5-0.2
		c0,0,0,0,0,0c0.2,0.1,0.3,0.3,0.2,0.5c-0.3,0.6-0.5,1.3-0.7,1.9C12.5,53.6,12.4,53.7,12.2,53.7z M147.3,51.6
		c-0.2,0-0.3-0.1-0.4-0.3c-0.2-0.6-0.5-1.3-0.8-1.9c-0.1-0.2,0-0.4,0.2-0.5c0,0,0,0,0,0c0.2-0.1,0.4,0,0.5,0.2c0,0,0,0,0,0
		c0.3,0.6,0.5,1.3,0.8,1.9c0.1,0.2,0,0.4-0.2,0.5c0,0,0,0,0,0C147.4,51.6,147.4,51.6,147.3,51.6z M13.6,49.9c0,0-0.1,0-0.1,0
		c-0.2-0.1-0.3-0.3-0.2-0.5c0.3-0.6,0.6-1.3,0.8-1.9c0.1-0.2,0.3-0.3,0.5-0.2c0,0,0,0,0,0c0.2,0.1,0.3,0.3,0.2,0.5c0,0,0,0,0,0
		c-0.3,0.6-0.6,1.3-0.8,1.9C13.9,49.8,13.8,49.9,13.6,49.9z M145.6,47.9c-0.2,0-0.3-0.1-0.4-0.2c-0.3-0.6-0.6-1.2-0.9-1.8
		c-0.1-0.2,0-0.4,0.2-0.5c0.2-0.1,0.4,0,0.5,0.2l0,0c0.3,0.6,0.6,1.2,0.9,1.9c0.1,0.2,0,0.4-0.2,0.5c0,0,0,0,0,0
		C145.8,47.8,145.7,47.8,145.6,47.9L145.6,47.9z M15.4,46.1c-0.1,0-0.1,0-0.2,0C15,46,15,45.8,15,45.6c0.3-0.6,0.6-1.2,0.9-1.8
		c0.1-0.2,0.3-0.3,0.5-0.2c0.2,0.1,0.3,0.3,0.2,0.5c-0.3,0.6-0.6,1.2-0.9,1.8C15.7,46,15.5,46.1,15.4,46.1z M143.9,44.1
		c-0.1,0-0.3-0.1-0.3-0.2c-0.3-0.6-0.6-1.2-1-1.8c-0.1-0.2,0-0.4,0.2-0.5c0.2-0.1,0.3,0,0.4,0.1c0.3,0.6,0.7,1.2,1,1.8
		c0.1,0.2,0,0.4-0.2,0.5c0,0,0,0,0,0C144,44.1,144,44.1,143.9,44.1L143.9,44.1z M17.3,42.5c-0.1,0-0.1,0-0.2,0
		c-0.2-0.1-0.2-0.3-0.1-0.5c0.3-0.6,0.7-1.2,1-1.8c0.1-0.2,0.3-0.3,0.5-0.3c0.2,0.1,0.3,0.3,0.3,0.5c0,0.1,0,0.1-0.1,0.2
		c-0.4,0.6-0.7,1.2-1,1.8C17.6,42.4,17.5,42.5,17.3,42.5z M141.9,40.6c-0.1,0-0.3-0.1-0.3-0.2c-0.4-0.6-0.7-1.2-1.1-1.7
		c-0.1-0.2-0.1-0.4,0.1-0.5c0,0,0,0,0,0c0.2-0.1,0.4-0.1,0.5,0.1c0.4,0.6,0.7,1.2,1.1,1.8c0.1,0.2,0.1,0.4-0.1,0.5
		C142,40.6,141.9,40.6,141.9,40.6L141.9,40.6z M19.4,38.9c-0.1,0-0.1,0-0.2-0.1c-0.2-0.1-0.2-0.3-0.1-0.5c0.4-0.6,0.8-1.2,1.2-1.7
		c0.1-0.2,0.4-0.2,0.5-0.1c0.2,0.1,0.2,0.4,0.1,0.5c-0.4,0.6-0.8,1.1-1.1,1.7C19.7,38.9,19.6,38.9,19.4,38.9z M139.6,37.1
		c-0.1,0-0.2-0.1-0.3-0.2c-0.4-0.6-0.8-1.1-1.2-1.7c-0.1-0.2-0.1-0.4,0.1-0.5c0,0,0,0,0,0c0.2-0.1,0.4-0.1,0.5,0.1
		c0.4,0.5,0.8,1.1,1.2,1.7c0.1,0.2,0.1,0.4-0.1,0.5C139.8,37.1,139.7,37.1,139.6,37.1L139.6,37.1z M21.8,35.5c-0.1,0-0.2,0-0.2-0.1
		c-0.2-0.1-0.2-0.4-0.1-0.5c0.4-0.5,0.8-1.1,1.2-1.7c0.1-0.2,0.4-0.2,0.5-0.1c0.2,0.1,0.2,0.4,0.1,0.5c0,0,0,0,0,0
		c-0.4,0.5-0.8,1.1-1.2,1.7C22,35.4,21.9,35.5,21.8,35.5z M137.2,33.8c-0.1,0-0.2-0.1-0.3-0.1c-0.4-0.5-0.9-1.1-1.3-1.6
		c-0.1-0.2-0.1-0.4,0.1-0.5c0.2-0.1,0.4-0.1,0.5,0c0.4,0.5,0.9,1.1,1.3,1.6c0.1,0.2,0.1,0.4-0.1,0.5c0,0,0,0,0,0
		C137.4,33.7,137.3,33.8,137.2,33.8L137.2,33.8z M24.3,32.3c-0.1,0-0.2,0-0.2-0.1c-0.2-0.1-0.2-0.4-0.1-0.5c0,0,0,0,0,0
		c0.4-0.5,0.9-1.1,1.3-1.6c0.2-0.2,0.4-0.2,0.5,0c0.1,0.1,0.2,0.4,0,0.5c0,0,0,0,0,0c-0.5,0.5-0.9,1-1.3,1.6
		C24.5,32.2,24.4,32.3,24.3,32.3z M134.6,30.6c-0.1,0-0.2-0.1-0.3-0.1c-0.4-0.5-0.9-1-1.4-1.5c-0.1-0.2-0.1-0.4,0-0.5
		c0.2-0.2,0.4-0.2,0.6,0c0.5,0.5,0.9,1,1.4,1.5c0.1,0.1,0.2,0.4,0,0.5c0,0,0,0,0,0C134.8,30.6,134.7,30.6,134.6,30.6z M27,29.1
		c-0.1,0-0.2,0-0.3-0.1c-0.2-0.2-0.2-0.4,0-0.5c0.5-0.5,0.9-1,1.4-1.5c0.1-0.2,0.4-0.2,0.5,0c0,0,0,0,0,0c0.1,0.2,0.1,0.4-0.1,0.5
		c-0.5,0.5-1,1-1.4,1.5C27.2,29.1,27.1,29.1,27,29.1z M131.8,27.6c-0.1,0-0.2,0-0.3-0.1c-0.5-0.5-1-1-1.4-1.5
		c-0.2-0.1-0.2-0.4-0.1-0.5c0.1-0.2,0.4-0.2,0.5-0.1c0.1,0,0.1,0.1,0.1,0.1l1.5,1.5c0.2,0.2,0.2,0.4,0,0.5
		C132,27.6,131.9,27.6,131.8,27.6z M29.9,26.2c-0.1,0-0.2,0-0.3-0.1c-0.1-0.2-0.1-0.4,0-0.5c0,0,0,0,0.1,0c0.5-0.5,1-1,1.5-1.4
		c0.2-0.1,0.4-0.1,0.5,0c0.2,0.1,0.2,0.4,0,0.5c0,0,0,0,0,0L30.2,26C30.1,26.1,30,26.2,29.9,26.2z M128.9,24.7c-0.1,0-0.2,0-0.3-0.1
		c-0.5-0.5-1-0.9-1.5-1.4c-0.1-0.1-0.2-0.4,0-0.5c0,0,0,0,0,0c0.2-0.2,0.4-0.2,0.6,0c0.5,0.5,1,0.9,1.5,1.4c0.1,0.1,0.2,0.4,0,0.5
		c0,0,0,0,0,0C129.1,24.7,129,24.7,128.9,24.7L128.9,24.7z M32.9,23.4c-0.1,0-0.2,0-0.3-0.1c-0.1-0.2-0.1-0.4,0-0.5
		c0.5-0.5,1-0.9,1.6-1.3c0.2-0.1,0.4-0.1,0.5,0c0,0,0,0,0,0c0.1,0.2,0.1,0.4-0.1,0.5c0,0,0,0,0,0l-1.5,1.3
		C33.1,23.4,33,23.4,32.9,23.4L32.9,23.4z M125.7,22c-0.1,0-0.2,0-0.3-0.1c-0.5-0.4-1.1-0.9-1.6-1.3c-0.1-0.2-0.1-0.4,0-0.6
		c0.1-0.1,0.3-0.1,0.5-0.1c0.5,0.4,1.1,0.9,1.6,1.3c0.2,0.1,0.2,0.4,0.1,0.5c0,0,0,0,0,0C125.9,21.9,125.8,22,125.7,22L125.7,22z
		 M36.1,20.8c-0.1,0-0.2-0.1-0.3-0.1c-0.1-0.2-0.1-0.4,0.1-0.5c0,0,0,0,0,0c0.5-0.4,1.1-0.8,1.7-1.2c0.2-0.1,0.4-0.1,0.5,0.1
		c0,0,0,0,0,0c0.1,0.2,0.1,0.4-0.1,0.5c0,0,0,0,0,0c-0.5,0.4-1.1,0.8-1.6,1.2C36.2,20.8,36.2,20.8,36.1,20.8z M122.5,19.5
		c-0.1,0-0.2,0-0.2-0.1c-0.6-0.4-1.1-0.8-1.7-1.2c-0.2-0.1-0.2-0.4-0.1-0.5c0.1-0.2,0.4-0.2,0.5-0.1l0,0c0.6,0.4,1.1,0.8,1.7,1.2
		c0.2,0.1,0.2,0.4,0.1,0.5C122.7,19.4,122.6,19.5,122.5,19.5z M39.4,18.4c-0.1,0-0.2-0.1-0.3-0.2C39,18,39,17.8,39.2,17.7
		c0,0,0,0,0,0c0.6-0.4,1.2-0.8,1.7-1.1c0.2-0.1,0.4-0.1,0.5,0.1c0.1,0.2,0.1,0.4-0.1,0.5c-0.6,0.4-1.1,0.8-1.7,1.1
		C39.5,18.4,39.5,18.4,39.4,18.4z M119.1,17.2c-0.1,0-0.1,0-0.2-0.1c-0.6-0.4-1.1-0.7-1.7-1.1c-0.2-0.1-0.2-0.3-0.1-0.5
		c0.1-0.2,0.3-0.2,0.5-0.1c0,0,0,0,0,0c0.6,0.4,1.2,0.7,1.8,1.1c0.2,0.1,0.2,0.3,0.1,0.5c0,0,0,0,0,0
		C119.3,17.1,119.2,17.2,119.1,17.2z M42.8,16.2c-0.2,0-0.4-0.2-0.4-0.4c0-0.1,0.1-0.3,0.2-0.3c0.6-0.4,1.2-0.7,1.8-1
		c0.2-0.1,0.4-0.1,0.5,0.1c0.1,0.2,0.1,0.4-0.1,0.5c0,0-0.1,0-0.1,0.1c-0.6,0.3-1.2,0.7-1.8,1C43,16.1,42.9,16.2,42.8,16.2
		L42.8,16.2z M115.5,15.1c-0.1,0-0.1,0-0.2,0l-1.8-1c-0.2-0.1-0.3-0.3-0.2-0.5c0.1-0.2,0.3-0.3,0.5-0.2c0.6,0.3,1.2,0.6,1.8,1
		c0.2,0.1,0.2,0.4,0.1,0.5C115.8,15,115.7,15.1,115.5,15.1L115.5,15.1z M46.4,14.1c-0.2,0-0.4-0.2-0.4-0.4c0-0.1,0.1-0.3,0.2-0.4
		c0.6-0.3,1.2-0.6,1.8-0.9c0.2-0.1,0.4,0,0.5,0.2c0.1,0.2,0,0.4-0.2,0.5c-0.6,0.3-1.2,0.6-1.8,0.9C46.5,14.1,46.5,14.1,46.4,14.1
		L46.4,14.1z M111.9,13.1c-0.1,0-0.1,0-0.2,0c-0.6-0.3-1.2-0.6-1.9-0.9c-0.2-0.1-0.3-0.3-0.2-0.5c0.1-0.2,0.3-0.3,0.5-0.2
		c0.6,0.3,1.3,0.6,1.9,0.9c0.2,0.1,0.3,0.3,0.2,0.5C112.1,13.1,112,13.2,111.9,13.1L111.9,13.1z M50.1,12.3c-0.2,0-0.4-0.2-0.4-0.4
		c0-0.2,0.1-0.3,0.2-0.4l1.9-0.8c0.2-0.1,0.4,0,0.5,0.2c0.1,0.2,0,0.4-0.2,0.5c0,0,0,0,0,0l-1.9,0.8C50.2,12.3,50.2,12.3,50.1,12.3z
		 M108.1,11.4c0,0-0.1,0-0.2,0l-1.9-0.8c-0.2-0.1-0.3-0.3-0.2-0.5c0,0,0,0,0,0c0.1-0.2,0.3-0.3,0.5-0.2c0,0,0,0,0,0l1.9,0.8
		c0.2,0.1,0.3,0.3,0.2,0.5C108.4,11.3,108.3,11.4,108.1,11.4L108.1,11.4z M53.9,10.7c-0.2,0-0.4-0.2-0.4-0.4c0-0.2,0.1-0.3,0.3-0.4
		c0.6-0.3,1.3-0.5,1.9-0.7c0.2-0.1,0.4,0,0.5,0.2c0,0,0,0,0,0c0.1,0.2,0,0.4-0.2,0.5c0,0,0,0,0,0c-0.7,0.2-1.3,0.5-1.9,0.7
		C54,10.7,53.9,10.7,53.9,10.7z M104.3,9.9h-0.1c-0.6-0.2-1.3-0.4-1.9-0.7C102,9.2,101.9,9,102,8.8c0.1-0.2,0.3-0.3,0.5-0.3
		c0,0,0,0,0,0c0.7,0.2,1.3,0.4,2,0.7c0.2,0.1,0.3,0.3,0.2,0.5C104.6,9.8,104.5,9.9,104.3,9.9z M57.8,9.3c-0.2,0-0.4-0.1-0.4-0.3
		c0-0.2,0.1-0.4,0.3-0.4c0.7-0.2,1.3-0.4,2-0.6c0.2-0.1,0.4,0.1,0.5,0.3c0.1,0.2-0.1,0.4-0.3,0.5l-2,0.6L57.8,9.3z M100.4,8.6h-0.1
		c-0.7-0.2-1.3-0.4-2-0.5C98,8,97.9,7.8,98,7.6c0,0,0,0,0,0c0.1-0.2,0.3-0.3,0.5-0.3c0,0,0,0,0,0c0.7,0.2,1.3,0.4,2,0.6
		c0.2,0.1,0.3,0.3,0.3,0.5C100.6,8.5,100.5,8.6,100.4,8.6z M61.7,8.1c-0.2,0-0.3-0.1-0.4-0.3c-0.1-0.2,0.1-0.4,0.3-0.5c0,0,0,0,0,0
		c0.7-0.2,1.3-0.3,2-0.5c0.2,0,0.4,0.1,0.5,0.3c0,0,0,0,0,0c0,0.2-0.1,0.4-0.3,0.5c-0.7,0.2-1.3,0.3-2,0.5L61.7,8.1z M96.4,7.6
		L96.4,7.6l-2.1-0.4c-0.2,0-0.3-0.2-0.3-0.5s0.2-0.3,0.5-0.3l0,0c0.7,0.1,1.3,0.3,2,0.4c0.2,0,0.4,0.2,0.3,0.4
		C96.8,7.5,96.6,7.6,96.4,7.6L96.4,7.6L96.4,7.6z M65.7,7.2c-0.2,0-0.3-0.1-0.4-0.3c0-0.2,0.1-0.4,0.3-0.4c0.7-0.1,1.4-0.3,2-0.4
		c0.2,0,0.4,0.1,0.4,0.3c0,0,0,0,0,0c0,0.2-0.1,0.4-0.3,0.4C67.1,7,66.4,7.1,65.7,7.2L65.7,7.2z M92.3,6.8L92.3,6.8
		c-0.7-0.1-1.4-0.2-2.1-0.3c-0.2,0-0.4-0.2-0.3-0.4c0-0.2,0.2-0.4,0.4-0.3c0,0,0,0,0,0L92.4,6c0.2,0,0.3,0.3,0.3,0.5
		C92.7,6.7,92.5,6.8,92.3,6.8L92.3,6.8z M69.8,6.5c-0.2,0-0.4-0.1-0.4-0.3c0-0.2,0.1-0.4,0.3-0.4l2.1-0.2c0.2,0,0.4,0.1,0.4,0.3
		c0,0,0,0,0,0c0,0.2-0.1,0.4-0.3,0.4c0,0,0,0,0,0L69.8,6.5L69.8,6.5z M88.3,6.2L88.3,6.2c-0.7-0.1-1.4-0.1-2-0.2
		c-0.2,0-0.4-0.1-0.4-0.4s0.1-0.4,0.4-0.4c0,0,0.1,0,0.1,0l2.1,0.2c0.2,0,0.4,0.2,0.3,0.4C88.7,6.1,88.5,6.2,88.3,6.2
		C88.3,6.2,88.3,6.2,88.3,6.2L88.3,6.2z M73.9,6c-0.2,0-0.4-0.2-0.3-0.4c0-0.2,0.2-0.3,0.3-0.3c0.7-0.1,1.4-0.1,2.1-0.2
		c0.2,0,0.4,0.2,0.4,0.4c0,0.2-0.1,0.4-0.3,0.4c0,0,0,0,0,0c-0.7,0-1.3,0.1-2,0.1H73.9z M84.2,5.9L84.2,5.9c-0.7,0-1.4-0.1-2-0.1
		c-0.2,0-0.4-0.2-0.4-0.4c0-0.2,0.2-0.4,0.4-0.4c0,0,0,0,0,0c0.7,0,1.4,0,2.1,0.1c0.2,0,0.4,0.2,0.3,0.4C84.5,5.7,84.4,5.9,84.2,5.9
		L84.2,5.9z M78,5.8c-0.2,0-0.3-0.2-0.3-0.4C77.6,5.2,77.8,5,78,5c0.7,0,1.4,0,2.1,0l0,0c0.2,0,0.4,0.2,0.3,0.4
		c0,0.2-0.2,0.3-0.3,0.3C79.4,5.8,78.7,5.8,78,5.8L78,5.8z"/>
</g>
</svg>
