<?xml version="1.0" encoding="utf-8"?>
<!-- Generator: Adobe Illustrator 24.2.1, SVG Export Plug-In . SVG Version: 6.00 Build 0)  -->
<svg version="1.1" id="圖層_1" xmlns="http://www.w3.org/2000/svg" xmlns:xlink="http://www.w3.org/1999/xlink" x="0px" y="0px"
	 viewBox="0 0 76 24" style="enable-background:new 0 0 76 24;" xml:space="preserve">
<style type="text/css">
	.st0{fill:#963823;stroke:#963823;stroke-miterlimit:10;}
	.st1{fill:#CF7A1B;}
	.st2{fill:#EBAC43;}
	.st3{fill:#E89927;}
	.st4{fill:#FFFFFF;}
</style>
<g>
	<path class="st0" d="M63.4,22.9H14.2c-5.5,0-10-4.5-10-10v0c0-5.5,4.5-10,10-10h49.2c5.5,0,10,4.5,10,10v0
		C73.3,18.4,68.9,22.9,63.4,22.9z"/>
	<g>
		<ellipse transform="matrix(0.8667 -0.4989 0.4989 0.8667 -4.9143 7.4623)" class="st1" cx="11.5" cy="12.9" rx="10" ry="10"/>
		<ellipse transform="matrix(0.4795 -0.8776 0.8776 0.4795 -5.8064 16.0605)" class="st2" cx="10.6" cy="12.9" rx="10" ry="10"/>
		<g>
			<path class="st3" d="M10.6,22.1c-2.4,0-4.7-0.9-6.4-2.7c-1.7-1.7-2.7-4-2.7-6.4s0.9-4.7,2.7-6.4C5.9,4.9,8.2,4,10.6,4
				s4.7,0.9,6.4,2.7c1.7,1.7,2.7,4,2.7,6.4s-0.9,4.7-2.7,6.4C15.3,21.2,13.1,22.1,10.6,22.1z M10.6,4.5c-4.7,0-8.5,3.8-8.5,8.5
				c0,4.7,3.8,8.5,8.5,8.5c4.7,0,8.5-3.8,8.5-8.5C19.2,8.3,15.3,4.5,10.6,4.5z"/>
		</g>
		<g>
			<path class="st3" d="M11.9,15.7c0-0.2,0-0.4,0-0.5c0-0.2-0.1-0.3-0.2-0.4c-0.1-0.1-0.3-0.3-0.4-0.4c-0.2-0.1-0.4-0.3-0.7-0.4
				c-0.5-0.2-0.9-0.5-1.3-0.7c-0.4-0.2-0.7-0.5-1-0.8c-0.3-0.3-0.4-0.6-0.6-0.9c-0.1-0.3-0.2-0.8-0.1-1.2c0-0.4,0.2-0.7,0.3-1.1
				c0.2-0.3,0.4-0.6,0.7-0.8c0.3-0.2,0.6-0.4,1-0.5c0.4-0.1,0.8-0.2,1.3-0.1l0.2-1.5l1.2,0.1L12.1,8c0.4,0.1,0.8,0.3,1.1,0.5
				c0.3,0.2,0.6,0.5,0.8,0.8c0.2,0.3,0.4,0.7,0.5,1c0.1,0.4,0.1,0.8,0,1.3l-2.2-0.3c0.1-0.6,0-1-0.2-1.3c-0.2-0.3-0.5-0.5-0.9-0.5
				c-0.2,0-0.4,0-0.6,0c-0.2,0-0.3,0.1-0.4,0.2C10.1,9.8,10,10,9.9,10.1c-0.1,0.1-0.1,0.3-0.1,0.5c0,0.2,0,0.3,0,0.5
				c0,0.1,0.1,0.3,0.2,0.4c0.1,0.1,0.3,0.3,0.4,0.4c0.2,0.1,0.4,0.3,0.7,0.4c0.5,0.2,0.9,0.5,1.3,0.7c0.4,0.2,0.7,0.5,0.9,0.8
				c0.3,0.3,0.4,0.6,0.6,0.9c0.1,0.3,0.2,0.7,0.1,1.2c0,0.4-0.2,0.8-0.3,1.1c-0.2,0.3-0.4,0.6-0.7,0.8c-0.3,0.2-0.6,0.4-1,0.5
				c-0.4,0.1-0.8,0.1-1.3,0.1l-0.2,1.4l-1.2-0.1l0.2-1.4c-0.4-0.1-0.8-0.2-1.2-0.4c-0.4-0.2-0.7-0.4-1-0.7c-0.3-0.3-0.5-0.7-0.6-1.1
				c-0.1-0.4-0.2-0.9-0.1-1.5l2.2,0.3c0,0.3,0,0.6,0,0.8c0.1,0.2,0.2,0.4,0.3,0.6c0.1,0.2,0.3,0.3,0.5,0.3c0.2,0.1,0.4,0.1,0.6,0.2
				c0.2,0,0.4,0,0.6,0c0.2,0,0.3-0.1,0.5-0.2c0.1-0.1,0.2-0.2,0.3-0.3C11.8,16,11.9,15.8,11.9,15.7z"/>
		</g>
	</g>
	<g>
		<path class="st4" d="M28.6,17.6h2.6V8.8h-2.1V7.9c1-0.2,1.8-0.5,2.4-0.8h1.1v10.5H35v1.2h-6.4V17.6z"/>
		<path class="st4" d="M36.8,12.9c0-4.1,1.4-6.1,3.7-6.1c2.2,0,3.6,2,3.6,6.1c0,4.1-1.4,6.1-3.6,6.1C38.3,19,36.8,17,36.8,12.9z
			 M42.7,12.9c0-3.4-0.9-4.9-2.2-4.9c-1.3,0-2.2,1.4-2.2,4.9c0,3.5,0.9,4.9,2.2,4.9C41.8,17.8,42.7,16.3,42.7,12.9z"/>
		<path class="st4" d="M49.5,7.4h-3.6v-1h3.6v-1h1.2v1h2v1h-2v1h-1.2V7.4z M59.3,18.8c0,0.6-0.1,0.8-0.5,1C58.3,20,57.7,20,56.7,20
			c-0.1-0.3-0.2-0.7-0.4-1c0.8,0,1.4,0,1.5,0c0.2,0,0.3-0.1,0.3-0.2v-3.4h-4.6v1.7l2-0.1c-0.2-0.4-0.5-0.7-0.7-1l0.9-0.3
			c0.7,0.9,1.4,2,1.6,2.8l-0.9,0.3c-0.1-0.3-0.2-0.6-0.4-0.9c-2.6,0.2-5.2,0.3-7,0.4l-0.1-1c0.9,0,2.1-0.1,3.5-0.1v-1.7h-4.5V20
			h-1.2v-4.6h-0.6v-1h0.6v-0.6h1.2v0.6h4.5v-1h-4.6V8.6h10.4v4.8h-4.7v1h5.8V18.8z M48.9,10.6h3.5V9.5h-3.5V10.6z M52.3,12.6v-1.2
			h-3.5v1.2H52.3z M59.9,6.4v1h-3.6v1h-1.2v-1h-1.9v-1h1.9v-1h1.2v1H59.9z M57,9.5h-3.5v1.2H57V9.5z M57,11.4h-3.5v1.2H57V11.4z"/>
	</g>
</g>
<g>
	<path class="st0" d="M63.4,22.9H14.2c-5.5,0-10-4.5-10-10v0c0-5.5,4.5-10,10-10h49.2c5.5,0,10,4.5,10,10v0
		C73.3,18.4,68.9,22.9,63.4,22.9z"/>
	<g>
		<ellipse transform="matrix(0.8667 -0.4989 0.4989 0.8667 -4.9143 7.4623)" class="st1" cx="11.5" cy="12.9" rx="10" ry="10"/>
		<ellipse transform="matrix(0.4795 -0.8776 0.8776 0.4795 -5.8064 16.0605)" class="st2" cx="10.6" cy="12.9" rx="10" ry="10"/>
		<g>
			<path class="st3" d="M10.6,22.1c-2.4,0-4.7-0.9-6.4-2.7c-1.7-1.7-2.7-4-2.7-6.4s0.9-4.7,2.7-6.4C5.9,4.9,8.2,4,10.6,4
				s4.7,0.9,6.4,2.7c1.7,1.7,2.7,4,2.7,6.4s-0.9,4.7-2.7,6.4C15.3,21.2,13.1,22.1,10.6,22.1z M10.6,4.5c-4.7,0-8.5,3.8-8.5,8.5
				c0,4.7,3.8,8.5,8.5,8.5c4.7,0,8.5-3.8,8.5-8.5C19.2,8.3,15.3,4.5,10.6,4.5z"/>
		</g>
		<g>
			<path class="st3" d="M11.9,15.7c0-0.2,0-0.4,0-0.5c0-0.2-0.1-0.3-0.2-0.4c-0.1-0.1-0.3-0.3-0.4-0.4c-0.2-0.1-0.4-0.3-0.7-0.4
				c-0.5-0.2-0.9-0.5-1.3-0.7c-0.4-0.2-0.7-0.5-1-0.8c-0.3-0.3-0.4-0.6-0.6-0.9c-0.1-0.3-0.2-0.8-0.1-1.2c0-0.4,0.2-0.7,0.3-1.1
				c0.2-0.3,0.4-0.6,0.7-0.8c0.3-0.2,0.6-0.4,1-0.5c0.4-0.1,0.8-0.2,1.3-0.1l0.2-1.5l1.2,0.1L12.1,8c0.4,0.1,0.8,0.3,1.1,0.5
				c0.3,0.2,0.6,0.5,0.8,0.8c0.2,0.3,0.4,0.7,0.5,1c0.1,0.4,0.1,0.8,0,1.3l-2.2-0.3c0.1-0.6,0-1-0.2-1.3c-0.2-0.3-0.5-0.5-0.9-0.5
				c-0.2,0-0.4,0-0.6,0c-0.2,0-0.3,0.1-0.4,0.2C10.1,9.8,10,10,9.9,10.1c-0.1,0.1-0.1,0.3-0.1,0.5c0,0.2,0,0.3,0,0.5
				c0,0.1,0.1,0.3,0.2,0.4c0.1,0.1,0.3,0.3,0.4,0.4c0.2,0.1,0.4,0.3,0.7,0.4c0.5,0.2,0.9,0.5,1.3,0.7c0.4,0.2,0.7,0.5,0.9,0.8
				c0.3,0.3,0.4,0.6,0.6,0.9c0.1,0.3,0.2,0.7,0.1,1.2c0,0.4-0.2,0.8-0.3,1.1c-0.2,0.3-0.4,0.6-0.7,0.8c-0.3,0.2-0.6,0.4-1,0.5
				c-0.4,0.1-0.8,0.1-1.3,0.1l-0.2,1.4l-1.2-0.1l0.2-1.4c-0.4-0.1-0.8-0.2-1.2-0.4c-0.4-0.2-0.7-0.4-1-0.7c-0.3-0.3-0.5-0.7-0.6-1.1
				c-0.1-0.4-0.2-0.9-0.1-1.5l2.2,0.3c0,0.3,0,0.6,0,0.8c0.1,0.2,0.2,0.4,0.3,0.6c0.1,0.2,0.3,0.3,0.5,0.3c0.2,0.1,0.4,0.1,0.6,0.2
				c0.2,0,0.4,0,0.6,0c0.2,0,0.3-0.1,0.5-0.2c0.1-0.1,0.2-0.2,0.3-0.3C11.8,16,11.9,15.8,11.9,15.7z"/>
		</g>
	</g>
	<g>
		<path class="st4" d="M28.6,17.6h2.6V8.8h-2.1V7.9c1-0.2,1.8-0.5,2.4-0.8h1.1v10.5H35v1.2h-6.4V17.6z"/>
		<path class="st4" d="M36.8,12.9c0-4.1,1.4-6.1,3.7-6.1c2.2,0,3.6,2,3.6,6.1c0,4.1-1.4,6.1-3.6,6.1C38.3,19,36.8,17,36.8,12.9z
			 M42.7,12.9c0-3.4-0.9-4.9-2.2-4.9c-1.3,0-2.2,1.4-2.2,4.9c0,3.5,0.9,4.9,2.2,4.9C41.8,17.8,42.7,16.3,42.7,12.9z"/>
		<path class="st4" d="M49.5,7.4h-3.6v-1h3.6v-1h1.2v1h2v1h-2v1h-1.2V7.4z M59.3,18.8c0,0.6-0.1,0.8-0.5,1C58.3,20,57.7,20,56.7,20
			c-0.1-0.3-0.2-0.7-0.4-1c0.8,0,1.4,0,1.5,0c0.2,0,0.3-0.1,0.3-0.2v-3.4h-4.6v1.7l2-0.1c-0.2-0.4-0.5-0.7-0.7-1l0.9-0.3
			c0.7,0.9,1.4,2,1.6,2.8l-0.9,0.3c-0.1-0.3-0.2-0.6-0.4-0.9c-2.6,0.2-5.2,0.3-7,0.4l-0.1-1c0.9,0,2.1-0.1,3.5-0.1v-1.7h-4.5V20
			h-1.2v-4.6h-0.6v-1h0.6v-0.6h1.2v0.6h4.5v-1h-4.6V8.6h10.4v4.8h-4.7v1h5.8V18.8z M48.9,10.6h3.5V9.5h-3.5V10.6z M52.3,12.6v-1.2
			h-3.5v1.2H52.3z M59.9,6.4v1h-3.6v1h-1.2v-1h-1.9v-1h1.9v-1h1.2v1H59.9z M57,9.5h-3.5v1.2H57V9.5z M57,11.4h-3.5v1.2H57V11.4z"/>
	</g>
</g>
</svg>
