<?xml version="1.0" encoding="utf-8"?>
<!-- Generator: Adobe Illustrator 24.2.1, SVG Export Plug-In . SVG Version: 6.00 Build 0)  -->
<svg version="1.1" id="圖層_1" xmlns="http://www.w3.org/2000/svg" xmlns:xlink="http://www.w3.org/1999/xlink" x="0px" y="0px"
	 viewBox="0 0 76 24" style="enable-background:new 0 0 76 24;" xml:space="preserve">
<style type="text/css">
	.st0{fill:#FFFFFF;stroke:#963823;stroke-miterlimit:10;}
	.st1{fill:#CF7A1B;}
	.st2{fill:#EBAC43;}
	.st3{fill:#E89927;}
</style>
<g>
	<path class="st0" d="M64.1,22.5H14.9c-5.5,0-10-4.5-10-10v0c0-5.5,4.5-10,10-10h49.2c5.5,0,10,4.5,10,10v0
		C74.1,18,69.6,22.5,64.1,22.5z"/>
	<g>
		<ellipse transform="matrix(0.8667 -0.4989 0.4989 0.8667 -4.6205 7.7789)" class="st1" cx="12.2" cy="12.5" rx="10" ry="10"/>
		<ellipse transform="matrix(0.4795 -0.8776 0.8776 0.4795 -5.0782 16.5054)" class="st2" cx="11.4" cy="12.5" rx="10" ry="10"/>
		<g>
			<path class="st3" d="M11.4,21.7c-2.4,0-4.7-0.9-6.4-2.7c-1.7-1.7-2.7-4-2.7-6.4S3.2,8,5,6.2c1.7-1.7,4-2.7,6.4-2.7
				s4.7,0.9,6.4,2.7c1.7,1.7,2.7,4,2.7,6.4s-0.9,4.7-2.7,6.4C16.1,20.8,13.8,21.7,11.4,21.7z M11.4,4.1c-4.7,0-8.5,3.8-8.5,8.5
				c0,4.7,3.8,8.5,8.5,8.5c4.7,0,8.5-3.8,8.5-8.5C19.9,7.9,16.1,4.1,11.4,4.1z"/>
		</g>
		<g>
			<path class="st3" d="M12.6,15.3c0-0.2,0-0.4,0-0.5c0-0.2-0.1-0.3-0.2-0.4c-0.1-0.1-0.3-0.3-0.4-0.4c-0.2-0.1-0.4-0.3-0.7-0.4
				c-0.5-0.2-0.9-0.5-1.3-0.7c-0.4-0.2-0.7-0.5-1-0.8c-0.3-0.3-0.4-0.6-0.6-0.9c-0.1-0.3-0.2-0.8-0.1-1.2c0-0.4,0.2-0.7,0.3-1.1
				c0.2-0.3,0.4-0.6,0.7-0.8c0.3-0.2,0.6-0.4,1-0.5c0.4-0.1,0.8-0.2,1.3-0.1L11.8,6L13,6.1l-0.2,1.5c0.4,0.1,0.8,0.3,1.1,0.5
				c0.3,0.2,0.6,0.5,0.8,0.8c0.2,0.3,0.4,0.7,0.5,1c0.1,0.4,0.1,0.8,0,1.3l-2.2-0.3c0.1-0.6,0-1-0.2-1.3c-0.2-0.3-0.5-0.5-0.9-0.5
				c-0.2,0-0.4,0-0.6,0c-0.2,0-0.3,0.1-0.4,0.2c-0.1,0.1-0.2,0.2-0.3,0.4c-0.1,0.1-0.1,0.3-0.1,0.5c0,0.2,0,0.3,0,0.5
				c0,0.1,0.1,0.3,0.2,0.4c0.1,0.1,0.3,0.3,0.4,0.4c0.2,0.1,0.4,0.3,0.7,0.4c0.5,0.2,0.9,0.5,1.3,0.7c0.4,0.2,0.7,0.5,0.9,0.8
				c0.3,0.3,0.4,0.6,0.6,0.9c0.1,0.3,0.2,0.7,0.1,1.2c0,0.4-0.2,0.8-0.3,1.1c-0.2,0.3-0.4,0.6-0.7,0.8c-0.3,0.2-0.6,0.4-1,0.5
				c-0.4,0.1-0.8,0.1-1.3,0.1l-0.2,1.4l-1.2-0.1l0.2-1.4c-0.4-0.1-0.8-0.2-1.2-0.4c-0.4-0.2-0.7-0.4-1-0.7c-0.3-0.3-0.5-0.7-0.6-1.1
				c-0.1-0.4-0.2-0.9-0.1-1.5l2.2,0.3c0,0.3,0,0.6,0,0.8c0.1,0.2,0.2,0.4,0.3,0.6c0.1,0.2,0.3,0.3,0.5,0.3c0.2,0.1,0.4,0.1,0.6,0.2
				c0.2,0,0.4,0,0.6,0c0.2,0,0.3-0.1,0.5-0.2c0.1-0.1,0.2-0.2,0.3-0.3C12.6,15.6,12.6,15.5,12.6,15.3z"/>
		</g>
	</g>
</g>
</svg>
