<?xml version="1.0" encoding="utf-8"?>
<!-- Generator: Adobe Illustrator 24.2.1, SVG Export Plug-In . SVG Version: 6.00 Build 0)  -->
<svg version="1.1" id="圖層_1" xmlns="http://www.w3.org/2000/svg" xmlns:xlink="http://www.w3.org/1999/xlink" x="0px" y="0px"
	 viewBox="0 0 628 116" style="enable-background:new 0 0 628 116;" xml:space="preserve">
<style type="text/css">
	.st0{fill:#3E3A39;}
</style>
<g>
	<g>
		<path class="st0" d="M25.9,87.2c1.7,4.1,4.8,7.8,8.1,9.7c-0.5,0.4-1.1,1-1.4,1.5c-3.6-2.2-6.6-6.6-8.4-11.2h-0.3V96h5.6v1.8h-5.6
			v4.5H22v-4.5h-5.6V96H22v-8.9h-0.4c-1.8,4.7-4.9,9-8.4,11.3c-0.3-0.4-0.9-1.1-1.3-1.4c3.2-1.9,6.1-5.8,7.9-9.9h-7.2v-1.8H22v-5
			h1.8v5h9.5v1.8H25.9z"/>
		<path class="st0" d="M60.2,96.9h-5.7v3.4c0,0.9-0.2,1.4-1,1.6c-0.7,0.3-1.9,0.3-3.9,0.3c-0.1-0.5-0.3-1.1-0.6-1.5
			c1.5,0,2.8,0,3.2,0c0.4,0,0.5-0.1,0.5-0.4v-3.4h-9.1c1.4,0.8,3.1,2.1,3.9,3l-1.3,1.2c-0.8-0.9-2.5-2.2-4-3.1l1.2-1h-5v-1.5h14.2
			V94c-4.9,0.1-9.7,0.2-13.2,0.3l-0.1-1.4c2.4,0,5.5,0,9-0.1v-1.3h-7.3V85h7.3v-1.3h-9.2v-1.4h9.2v-1.8h1.7v1.8h9v1.4h-9V85h7.6v6.5
			H55c1.6,0.6,3.3,1.6,4.3,2.3l-1.1,1c-0.4-0.3-0.8-0.6-1.4-1l-2.4,0.1v1.5h5.7V96.9z M42.8,87.6h5.7v-1.4h-5.7V87.6z M48.4,90.3
			v-1.5h-5.7v1.5H48.4z M50.2,86.2v1.4H56v-1.4H50.2z M56,88.8h-5.8v1.5H56V88.8z M50.2,92.8l4.5-0.1c-0.6-0.3-1.2-0.6-1.8-0.7
			l0.6-0.5h-3.3V92.8z"/>
		<path class="st0" d="M86.5,94.9v1.5h-9.9v5.9h-1.8v-5.9h-9.7v-1.5h9.7v-2h1.8v2H86.5z M84.2,93.8c-1.9-0.7-4.7-1.5-7.8-2.2
			c-2.6,1.1-6,1.7-10.4,1.9c-0.2-0.5-0.4-1.1-0.7-1.5c3.3-0.1,6-0.5,8.1-1c-1.6-0.3-3.3-0.6-5.1-0.9c0.7-0.7,1.6-1.5,2.4-2.3h-5.4
			v-1.5H72c0.7-0.8,1.4-1.7,1.9-2.5l1.7,0.5c-0.4,0.6-1,1.3-1.5,1.9H80c0.3-0.5,0.5-1.1,0.7-1.7l1.7,0.4c-0.1,0.5-0.3,0.8-0.5,1.2
			h4.2v1.5h-5c-0.7,1.1-1.7,2-2.8,2.8c2.9,0.6,5.6,1.3,7.6,2L84.2,93.8z M72.8,97.5c-1.5,1.6-3.9,3.1-6,4.1c-0.3-0.3-1-1-1.5-1.2
			c2.2-0.8,4.4-2,5.7-3.4L72.8,97.5z M67.4,85.6h-1.7v-3.4H75c-0.3-0.5-0.6-1-0.9-1.4l1.8-0.4c0.4,0.5,0.9,1.2,1.2,1.8h8.8v3.4h-1.7
			v-1.9H67.4V85.6z M72.8,87.8c-0.5,0.5-1,1-1.5,1.5c1.6,0.2,3.1,0.5,4.7,0.8c1.2-0.6,2.3-1.4,3.1-2.3H72.8z M79.6,96.7
			c2.2,1,4.9,2.5,6.4,3.7l-1.3,1.3c-1.3-1.2-4.1-2.8-6.3-3.9L79.6,96.7z"/>
		<path class="st0" d="M104.8,83.8c-0.5,0.9-1.1,1.8-1.7,2.6v15.7h-1.9V88.9c-2.4,2.8-5.4,5.2-8.7,7c-0.3-0.5-0.8-1.2-1.2-1.6
			c4.7-2.4,8.8-6.4,11.2-10.5H91.9V82h20.5v1.8H104.8z M104.9,87.8c2.8,1.8,6.4,4.5,8.2,6.3l-1.4,1.4c-1.7-1.8-5.3-4.7-8.1-6.5
			L104.9,87.8z"/>
		<path class="st0" d="M121.8,97.4c-0.6,1.4-1.6,3-2.6,3.9c-0.3-0.2-0.9-0.7-1.3-1c1-0.9,1.8-2.2,2.4-3.4L121.8,97.4z M130.7,90.7
			H118v-1.4h5.6c-0.2-0.4-0.4-0.8-0.6-1.1l1.6-0.4c0.3,0.4,0.6,1,0.8,1.5h5.2V90.7z M129.9,87.7h-10.7v-6.5h10.7V87.7z M125.3,96.4
			v4c0,0.9-0.2,1.2-0.8,1.5c-0.6,0.3-1.5,0.3-2.8,0.3c-0.1-0.5-0.3-1-0.6-1.5c1,0,1.8,0,2,0c0.3,0,0.3-0.1,0.3-0.3v-3.9h-4.2v-4.6
			h10.2v4.6H125.3z M128.2,82.4h-7.3v1.4h7.3V82.4z M128.2,85h-7.3v1.5h7.3V85z M121.1,95.1h6.8v-2h-6.8V95.1z M127.8,96.9
			c0.9,1.1,1.8,2.5,2.3,3.5l-1.3,0.7c-0.4-0.9-1.3-2.4-2.2-3.6L127.8,96.9z M139.6,94.8c-1.8,3-5,5.7-8.3,7.3
			c-0.3-0.4-0.8-1-1.2-1.4c3.1-1.4,6.2-3.9,7.9-6.6L139.6,94.8z M138.3,81.5c-1.6,2.1-4.1,4.3-6.3,5.6c-0.3-0.4-0.8-0.9-1.3-1.2
			c2.1-1.2,4.6-3.2,5.9-5.1L138.3,81.5z M139,87.9c-1.7,2.3-4.5,4.6-7.1,6c-0.3-0.4-0.8-0.9-1.2-1.3c2.4-1.2,5.2-3.3,6.7-5.4
			L139,87.9z"/>
		<path class="st0" d="M151.5,85.2c-1,3.1-3.5,5.1-6.5,6.3c-0.1-0.3-0.5-0.8-0.8-1.1c2-0.7,3.7-1.8,4.8-3.2
			c-3.3,0.4-3.9,0.5-4.2,0.6c0-0.3-0.2-0.9-0.4-1.3c0.4,0,0.9-0.3,1.4-0.7c0.3-0.2,0.8-0.7,1.5-1.2c-1.8,0.2-2.2,0.2-2.4,0.4
			c-0.1-0.3-0.3-0.9-0.4-1.3c0.3,0,0.6-0.2,0.9-0.6c0.4-0.3,1.5-1.5,2.3-2.8l1.2,0.6c-0.7,1-1.6,1.9-2.4,2.7l2-0.1
			c0.4-0.5,0.9-0.9,1.3-1.4l1.1,0.7c-1.2,1.3-2.6,2.6-4,3.6l2.9-0.3c0.2-0.4,0.3-0.7,0.5-1.1L151.5,85.2z M160.3,92.7
			c-0.4,0.6-0.8,1.1-1.2,1.5h6.6v1.3h-21.4v-1.3h6.5c-0.2-0.5-0.6-1-1-1.4l0.8-0.3h-3.9v-1.2h7.5c-0.1-0.4-0.3-0.8-0.5-1.1l1.6-0.4
			c0.3,0.5,0.6,1,0.8,1.5h7.4v1.2h-3.7L160.3,92.7z M147.7,96.4h14.7v5.8h-1.7v-0.6h-11.4v0.7h-1.7V96.4z M149.3,97.5v1.1h11.4v-1.1
			H149.3z M160.7,100.6v-1.1h-11.4v1.1H160.7z M158.2,90.2c-0.2-0.4-0.5-0.8-0.9-1.2c-4.9,1.1-5.5,1.3-6,1.5c-0.1-0.3-0.4-1-0.6-1.3
			c0.3-0.1,0.8-0.4,0.8-1.3v-6.2h1.5v0h1.1c-0.2-0.5-0.4-0.9-0.6-1.3l1.4-0.4c0.4,0.5,0.7,1.1,0.9,1.7h2.6v5.5h-1.1
			c0.8,0.7,1.6,1.6,1.9,2.3L158.2,90.2z M151.4,92.5c0.5,0.5,0.9,1.1,1,1.5l-0.3,0.1h5.3c0.4-0.5,0.8-1.1,1.1-1.7H151.4z
			 M153.1,82.8V84h3.8v-1.2H153.1z M153.1,86.3h3.8V85h-3.8V86.3z M156.4,88c-0.3-0.2-0.5-0.5-0.8-0.7h-2.5v1.4L156.4,88z M161,90.9
			h-1.5v-9.8h5l0.2-0.1l1.1,0.6c-0.6,1.2-1.3,2.3-2,3.4c1.3,1,2,2,2,2.9c0,0.8-0.3,1.4-0.9,1.7c-0.3,0.2-0.7,0.3-1.1,0.3
			c-0.5,0-1.2,0-1.8,0c0-0.4-0.2-0.9-0.5-1.3c0.7,0,1.3,0.1,1.7,0c0.3,0,0.5-0.1,0.6-0.1c0.3-0.1,0.5-0.4,0.5-0.9
			c0-0.7-0.6-1.4-2.1-2.5c0.6-1,1.1-1.9,1.5-2.8H161V90.9z"/>
		<path class="st0" d="M191.9,83.3h-17.6v5.1c0,3.8-0.3,9.5-2.5,13.3c-0.3-0.3-1.1-0.7-1.5-0.9c2.1-3.6,2.3-8.8,2.3-12.4v-6.8h19.3
			V83.3z M179.9,96.2c-1.2,1.7-2.9,3.7-4.2,5c-0.4-0.3-1.1-0.7-1.5-1c1.4-1.2,3-3,4.1-4.6L179.9,96.2z M184,94.4v5.9
			c0,0.9-0.2,1.4-0.9,1.7c-0.7,0.3-1.9,0.3-3.7,0.3c-0.1-0.5-0.3-1.1-0.6-1.6c1.4,0,2.6,0,3,0c0.4,0,0.5-0.1,0.5-0.4v-5.8h-5.9v-8.6
			h4.7c0.4-0.7,0.7-1.6,0.9-2.2l2.1,0.3c-0.4,0.6-0.7,1.3-1.1,1.9h6.9v8.6H184z M178.2,89.5h10v-2.2h-10V89.5z M178.2,93h10v-2.2
			h-10V93z M187.5,95.7c1.4,1.5,3.3,3.5,4.3,4.8l-1.5,1c-0.9-1.3-2.8-3.4-4.2-5L187.5,95.7z"/>
		<path class="st0" d="M205.3,85.1c-0.5,0.9-0.9,1.9-1.5,2.8h11.6V100c0,1.1-0.2,1.6-1,1.9c-0.8,0.3-2.1,0.3-4.2,0.3
			c-0.1-0.5-0.3-1.2-0.6-1.8c1.6,0.1,3,0,3.5,0c0.4,0,0.6-0.1,0.6-0.5v-2.5h-10.3c-0.3,1.8-1,3.6-2.4,4.9c-0.2-0.4-0.9-1.1-1.2-1.4
			c2-1.9,2.2-4.6,2.2-6.8v-3.5c-1.1,1.4-2.4,2.6-3.9,3.7c-0.2-0.4-0.8-1-1.1-1.4c2.8-1.9,5-4.7,6.5-7.8h-6v-1.7h6.7
			c0.4-1,0.8-2.1,1.1-3.1l1.8,0.4c-0.3,0.9-0.6,1.8-0.9,2.7h12.2v1.7H205.3z M213.7,96v-2.5h-10v0.7c0,0.6,0,1.2-0.1,1.8H213.7z
			 M213.7,89.5h-10v2.4h10V89.5z"/>
		<path class="st0" d="M245,95.5h-2.5v4.2h-1.8v-1.1H235v1.7c0,1.1-0.3,1.5-1.1,1.8c-0.7,0.3-2,0.3-4,0.3c-0.1-0.5-0.4-1.1-0.6-1.5
			c1.4,0,2.9,0,3.3,0c0.5,0,0.6-0.2,0.6-0.6v-1.7h-7.8v-1.4h7.8v-1.8h-9.8V94h9.8v-1.7h-7.5V91h7.5v-1.7h-6.9v-4.2h6.9v-1.4h-9.4
			v-1.5h9.4v-1.9h1.8v1.9h9.6v1.5H235v1.4h7.2v4.2H235V91h7.5v3h2.5V95.5z M233.2,88.1v-1.7H228v1.7H233.2z M235,86.4v1.7h5.4v-1.7
			H235z M235,94h5.8v-1.7H235V94z M240.7,95.5H235v1.8h5.8V95.5z"/>
		<path class="st0" d="M258.5,98.4c-1.7,1.3-4.9,2.5-7.4,3.1c-0.2-0.4-0.7-1-1.1-1.3c2.5-0.4,5.5-1.3,7.1-2.4L258.5,98.4z M271,95.1
			v1.5h-9.6v5.7h-1.8v-5.7h-9.5v-1.5h9.5v-1.8h-7.2v-1.4h7.2v-1.7h-8.4v-1.4h5.2c-0.2-0.7-0.7-1.6-1.2-2.3l1.3-0.3h-6.2v-1.5h3.9
			c-0.4-1-1.2-2.4-1.9-3.5l1.5-0.5c0.8,1.1,1.7,2.6,2,3.5l-1.2,0.5h2.9v-4.2h1.7v4.2h2.9v-4.2h1.7v4.2h2.9l-1-0.3
			c0.7-1,1.4-2.6,1.8-3.6l1.8,0.5c-0.7,1.2-1.5,2.5-2.1,3.5h3.7v1.5h-6.2l1.6,0.4c-0.6,0.8-1.1,1.6-1.7,2.2h5.5v1.4h-8.7v1.7h7.5
			v1.4h-7.5v1.8H271z M256.9,86.1c0.6,0.7,1.1,1.7,1.3,2.4l-1,0.3h6.6l-0.8-0.3c0.5-0.7,1.1-1.7,1.4-2.4H256.9z M264,97.7
			c2.3,0.7,5.3,1.9,7,2.7l-1.1,1.1c-1.6-0.8-4.6-2-6.9-2.8L264,97.7z"/>
		<path class="st0" d="M284.3,87.8h1v3.4h-1.1v9.2c0,0.8-0.1,1.2-0.7,1.4c-0.5,0.2-1.3,0.2-2.7,0.2c-0.1-0.4-0.3-1-0.5-1.4
			c0.9,0,1.8,0,2,0c0.3,0,0.3-0.1,0.3-0.3v-3.1c-1.1,0.7-2.2,1.4-3.2,1.9l-0.7-1.3c1-0.4,2.4-1.2,3.9-1.9V92H279v3.2
			c0,2.2-0.2,5.1-1.7,7.2c-0.3-0.3-0.9-0.8-1.2-1c1.2-1.8,1.4-4.3,1.4-6.2v-3.9h-1.2v-3.4h1v-6.6h7.1V87.8z M283.9,89.1h-6.3v1.6
			h6.3V89.1z M278.7,87.8h1.5v-3.7h2.6v-1.5h-4.1V87.8z M281.7,95.8c-0.6-0.6-1.7-1.5-2.5-2.1l0.8-0.8c1,0.6,2.1,1.4,2.6,1.9
			L281.7,95.8z M282.8,87.8v-2.6h-1.6v2.6H282.8z M297.9,100.4v1.4h-12.4v-1.4h3.4c-0.2-0.7-0.5-1.6-0.8-2.3l1.4-0.4
			c0.4,0.8,0.8,1.9,1,2.7h2.3c0.4-0.8,0.8-2,1-2.7l1.6,0.5c-0.4,0.7-0.8,1.6-1.2,2.3H297.9z M297.7,92h-12v-1.3h12V92z M297.1,89.4
			h-10.8v-7.2h3v-1.8h1.5v1.8h1.7v-1.8h1.5v1.8h3.2V89.4z M286.9,97.6v-4.4h9.6v4.4H286.9z M287.6,85.2h1.8v-1.7h-1.8V85.2z
			 M287.6,88.2h1.8v-1.8h-1.8V88.2z M288.5,96.4h6.4v-2h-6.4V96.4z M292.5,85.2v-1.7h-1.8v1.7H292.5z M290.7,86.4v1.8h1.8v-1.8
			H290.7z M295.6,83.5h-1.9v1.7h1.9V83.5z M295.6,86.4h-1.9v1.8h1.9V86.4z"/>
		<path class="st0" d="M324,90v1.5h-21.3V90H324z M323,83.1h-19.1v-1.5H323V83.1z M309.1,83.9c-0.8,1.2-1.7,2.3-2.6,3.2l4-0.2
			c-0.3-0.5-0.6-0.9-0.9-1.3l1.3-0.5c1,1.2,1.9,2.7,2.2,3.8l-1.4,0.6c-0.1-0.4-0.3-0.8-0.5-1.3c-5.5,0.4-6.3,0.5-6.8,0.6
			c-0.1-0.3-0.3-1.1-0.5-1.4c0.3,0,0.6-0.3,1.1-0.7c0.4-0.4,1.7-1.8,2.5-3.3L309.1,83.9z M306,92.9h15v9.2h-1.8v-0.7h-11.4v0.8H306
			V92.9z M307.7,94.3v2.1h11.4v-2.1H307.7z M319.1,100v-2.2h-11.4v2.2H319.1z M318.7,83.9c-0.8,1.2-1.7,2.3-2.6,3.2l3.9-0.2
			c-0.4-0.5-0.7-0.9-1.1-1.3l1.3-0.6c1.2,1.2,2.3,2.8,2.8,4l-1.4,0.6c-0.1-0.4-0.4-0.9-0.7-1.4c-5.5,0.4-6.3,0.5-6.7,0.6
			c-0.1-0.3-0.3-1.1-0.5-1.4c0.3,0,0.7-0.3,1.1-0.7s1.7-1.8,2.5-3.3L318.7,83.9z"/>
		<path class="st0" d="M350.5,91.7h-5.2v10.6h-1.8V91.7h-7.3c-0.2,4-1.2,7.8-6.1,10.6c-0.3-0.4-0.9-1.1-1.3-1.3
			c4.4-2.5,5.4-5.9,5.6-9.3h-5.4V90h5.4v-5.3c-1.5,0.4-3.1,0.8-4.6,1.2c-0.1-0.4-0.4-1.1-0.6-1.4c3.8-0.9,8-2.2,10.4-3.6l1.3,1.5
			c-1.3,0.7-3,1.3-4.8,1.9V90h7.3v-9.1h1.8V90h5.2V91.7z"/>
		<path class="st0" d="M362.8,87.9h5.8v1.6h-5.8V92h4.9v6.6c0,0.8-0.1,1.3-0.7,1.6c-0.6,0.3-1.5,0.3-2.8,0.3
			c-0.1-0.5-0.3-1.1-0.5-1.6c1,0,1.8,0,2.1,0c0.3,0,0.3-0.1,0.3-0.3v-4.9h-3.3v8.6h-1.7v-8.6H358v6.7h-1.6V92h4.7v-2.4h-5.8v-1.6
			h5.8v-2.5H358c-0.4,0.9-0.8,1.8-1.2,2.5c-0.4-0.2-1.2-0.5-1.6-0.7c1.1-1.6,1.9-4,2.4-6.3l1.7,0.3c-0.2,0.8-0.5,1.7-0.7,2.5h2.5
			v-3.4h1.7v3.4h4.8v1.6h-4.8V87.9z M372,95.7h-1.7V82.5h1.7V95.7z M376.3,80.6v19.2c0,1.2-0.3,1.7-1,2c-0.7,0.3-2.1,0.4-3.8,0.4
			c-0.1-0.5-0.3-1.3-0.6-1.9c1.4,0,2.8,0,3.2,0c0.4,0,0.5-0.1,0.5-0.5V80.6H376.3z"/>
		<path class="st0" d="M385.4,89.2c0,3.8-0.3,9.3-2.3,13.1c-0.3-0.3-1.2-0.7-1.6-0.8c1.9-3.6,2.1-8.7,2.1-12.3v-6.5h9.2
			c-0.3-0.7-0.6-1.5-1-2.1l1.8-0.4c0.5,0.8,0.9,1.8,1.2,2.5h8.3v1.7h-17.8V89.2z M401.3,94.6c-1.1,2-2.9,3.6-5,4.7
			c2.1,0.7,4.6,1.2,7.2,1.4c-0.4,0.4-0.8,1.1-1,1.5c-3-0.3-5.8-1-8.2-2.1c-2.5,1-5.4,1.6-8.4,1.9c-0.1-0.4-0.5-1.1-0.8-1.5
			c2.5-0.2,5.1-0.7,7.3-1.4c-1.6-0.9-2.9-2-3.9-3.4l0.8-0.3h-3.1v-1.5h13.6l0.3-0.1L401.3,94.6z M389.8,92.5v-4H386v-1.5h3.8V85h1.7
			v2.1h5.8V85h1.8v2.1h3.9v1.5h-3.9v4H389.8z M390.4,95.5c1,1.2,2.4,2.2,4.1,3c1.7-0.7,3.2-1.7,4.2-3H390.4z M391.5,88.6v2.5h5.8
			v-2.5H391.5z"/>
		<path class="st0" d="M411,98.6c0-1.1,0.9-1.9,1.9-1.9s1.9,0.7,1.9,1.9c0,1.2-0.9,1.9-1.9,1.9S411,99.8,411,98.6z M411.6,85.3
			l-0.1-2.8h2.9l0,2.8l-0.6,9.3h-1.6L411.6,85.3z"/>
		<path class="st0" d="M443.6,93.9c-0.4,4.9-0.9,6.9-1.6,7.7c-0.4,0.4-0.9,0.6-1.5,0.6c-0.6,0.1-1.8,0-3,0c0-0.5-0.2-1.2-0.5-1.6
			c1.2,0.1,2.2,0.1,2.7,0.1c0.4,0,0.6,0,0.8-0.2c0.5-0.5,0.9-2,1.3-5.7h-14.4c-1.3,1.1-2.7,2-4.2,2.8c-0.2-0.4-0.6-1.1-1-1.5
			c4.4-2.3,7.8-5.9,10.1-10h-8.5v-1.6h4.8c-0.3-1-1.1-2.4-1.8-3.5l1.5-0.6c0.8,1.1,1.7,2.5,2,3.5l-1.3,0.6h4.3
			c0.7-1.4,1.2-2.8,1.7-4.2l1.8,0.5c-0.5,1.2-1,2.5-1.5,3.7h4.9c-0.2,1.4-0.5,3.1-0.8,4.3h2.8c-0.2,1.4-0.5,3-0.8,4.3h2.4
			L443.6,93.9z M423.4,101.1c1.5-1.1,2.4-3.1,2.8-4.9l1.5,0.5c-0.5,2-1.3,4.1-2.9,5.4L423.4,101.1z M431.6,90.4
			c-0.8,1-1.6,1.9-2.4,2.8h10.4c0.2-0.8,0.3-1.8,0.5-2.8H431.6z M430.7,96.7c0.5,1.4,0.7,3.2,0.7,4.4l-1.6,0.2
			c0.1-1.2-0.2-3-0.6-4.4L430.7,96.7z M434.3,86.1c-0.5,0.9-1.1,1.8-1.7,2.7h4.9c0.2-0.8,0.4-1.8,0.6-2.7H434.3z M434.3,96.2
			c0.6,1.2,1.1,2.8,1.3,3.9l-1.5,0.4c-0.2-1-0.7-2.7-1.2-3.9L434.3,96.2z M438.2,99.4c-0.3-0.9-1-2.3-1.8-3.3l1.2-0.5
			c0.8,1,1.5,2.3,1.8,3.1L438.2,99.4z"/>
		<path class="st0" d="M470.3,91.5c-3.3,7.1-11.5,9.8-20,10.8c-0.1-0.5-0.4-1.3-0.7-1.7c4-0.4,7.9-1.2,11.2-2.7
			c-0.8-0.9-2.1-2-3.4-3c-1.2,0.6-2.4,1.2-3.8,1.8c-0.2-0.4-0.7-1-1.1-1.3c4.8-1.8,8.3-4.4,10-6.8l2,0.4c-0.5,0.6-1,1.2-1.6,1.8h5.8
			l0.4-0.1L470.3,91.5z M466.8,83.1c-3,5.3-10,8.5-16.2,9.8c-0.1-0.5-0.5-1.2-0.8-1.6c2.7-0.5,5.5-1.3,8-2.6c-0.8-0.8-2-1.9-3.2-2.7
			c-0.9,0.5-1.8,1-2.8,1.5c-0.3-0.4-0.8-1-1.2-1.2c3.8-1.6,6.7-3.9,8.2-5.9l1.9,0.4c-0.5,0.6-1,1.1-1.6,1.7h6.2l0.3-0.1L466.8,83.1z
			 M457.3,84c-0.4,0.4-0.9,0.7-1.4,1.1c1.2,0.8,2.6,1.9,3.4,2.8c1.9-1.1,3.6-2.4,4.8-3.9H457.3z M461.2,92.5
			c-0.7,0.6-1.4,1.1-2.2,1.6c1.3,0.9,2.7,2.1,3.6,3c2.2-1.2,3.9-2.7,5.2-4.7H461.2z"/>
		<path class="st0" d="M497.1,90.1V92h-21.8v-1.9H497.1z"/>
		<path class="st0" d="M505.4,83.5c-0.8,1.2-1.6,2.3-2.5,3.1c-0.3-0.3-0.9-0.9-1.2-1.2c1.5-1.3,2.9-3.2,3.7-5.2l1.6,0.4
			c-0.2,0.5-0.4,1-0.7,1.4h6.2v1.4h-4.5c0.7,0.6,1.6,1.5,2.1,2.1l-1.2,1c-0.5-0.6-1.5-1.6-2.2-2.4l0.9-0.7H505.4z M512.7,85.2
			c0.3,0.6,0.7,1.2,1,1.8h8.7V91h-1.8v-2.5h-15.9V91H503v-3.9h8.8c-0.2-0.5-0.5-1.1-0.7-1.5L512.7,85.2z M507.4,96.4h13.3v5.9H519
			v-0.8h-11.5v0.8h-1.8V89.9h13.8v4.8h-12V96.4z M507.4,91.3v2h10.3v-2H507.4z M507.4,97.8v2.3H519v-2.3H507.4z M523.4,82.1v1.4
			h-5.2c0.9,0.7,1.9,1.6,2.5,2.2l-1.2,1.1c-0.6-0.7-1.7-1.7-2.5-2.4l1-0.8h-2.7c-0.6,0.7-1.1,1.4-1.8,2c-0.3-0.3-0.9-0.8-1.3-1.1
			c1.3-1,2.4-2.6,3-4.2l1.6,0.4c-0.2,0.5-0.4,1-0.7,1.5H523.4z"/>
		<path class="st0" d="M533.8,91.8c-0.4,2.1-1.2,4.4-2,6.2c0.5,0.3,1,0.7,1.9,1.2c1.7,1,3.9,1.2,6.7,1.2c3.1,0,7-0.2,9.6-0.5
			c-0.2,0.5-0.5,1.3-0.6,1.8c-1.8,0.1-6.3,0.3-9.2,0.3c-3.2,0-5.3-0.3-7-1.3c-1-0.6-1.9-1.4-2.4-1.4c-0.6,0-1.3,1.5-2.1,3l-1.2-1.6
			c0.9-1.2,1.7-2.2,2.4-2.7c0.7-1.4,1.3-3.3,1.7-5h-3.1c0.6-1.4,1.4-3.5,2-5.4h-2.7v-1.6h4.9c-0.6,1.7-1.3,3.7-2,5.4h1.6l0.3-0.1
			L533.8,91.8z M530.6,84.9c-0.3-1-0.8-2.7-1.2-3.9l1.6-0.5c0.4,1.2,1,2.8,1.3,3.8L530.6,84.9z M540.2,86.9c0.2-0.6,0.4-1.3,0.5-1.9
			h-6.3v-1.5h4c-0.3-0.7-1-1.8-1.6-2.5l1.4-0.6c0.6,0.8,1.4,1.9,1.7,2.6l-1,0.5h4.3c0.7-0.9,1.4-2.2,1.8-3.1l1.7,0.5
			c-0.6,0.9-1.2,1.8-1.8,2.6h4.5V85h-6.8c-0.3,0.7-0.6,1.3-0.8,1.9h5.6v11.2h-11.1V86.9H540.2z M545.8,88.3h-7.7v2h7.7V88.3z
			 M545.8,91.5h-7.7v2h7.7V91.5z M545.8,94.7h-7.7v2h7.7V94.7z"/>
		<path class="st0" d="M576,90v1.5h-21.3V90H576z M575,83.1h-19.1v-1.5H575V83.1z M561.1,83.9c-0.8,1.2-1.7,2.3-2.6,3.2l4-0.2
			c-0.3-0.5-0.6-0.9-0.9-1.3l1.3-0.5c1,1.2,1.9,2.7,2.2,3.8l-1.4,0.6c-0.1-0.4-0.3-0.8-0.5-1.3c-5.5,0.4-6.3,0.5-6.8,0.6
			c-0.1-0.3-0.3-1.1-0.5-1.4c0.3,0,0.6-0.3,1.1-0.7c0.4-0.4,1.7-1.8,2.5-3.3L561.1,83.9z M558,92.9h15v9.2h-1.8v-0.7h-11.4v0.8H558
			V92.9z M559.7,94.3v2.1h11.4v-2.1H559.7z M571.1,100v-2.2h-11.4v2.2H571.1z M570.7,83.9c-0.8,1.2-1.7,2.3-2.6,3.2l3.9-0.2
			c-0.4-0.5-0.7-0.9-1.1-1.3l1.3-0.6c1.2,1.2,2.3,2.8,2.8,4l-1.4,0.6c-0.1-0.4-0.4-0.9-0.7-1.4c-5.5,0.4-6.3,0.5-6.7,0.6
			c-0.1-0.3-0.3-1.1-0.5-1.4c0.3,0,0.7-0.3,1.1-0.7s1.7-1.8,2.5-3.3L570.7,83.9z"/>
		<path class="st0" d="M602.5,91.7h-5.2v10.6h-1.8V91.7h-7.3c-0.2,4-1.2,7.8-6.1,10.6c-0.3-0.4-0.9-1.1-1.3-1.3
			c4.4-2.5,5.4-5.9,5.6-9.3h-5.4V90h5.4v-5.3c-1.5,0.4-3.1,0.8-4.6,1.2c-0.1-0.4-0.4-1.1-0.6-1.4c3.8-0.9,8-2.2,10.4-3.6l1.3,1.5
			c-1.3,0.7-3,1.3-4.8,1.9V90h7.3v-9.1h1.8V90h5.2V91.7z"/>
		<path class="st0" d="M610.2,98.6c0-1.1,0.9-1.9,1.9-1.9c1.1,0,1.9,0.7,1.9,1.9c0,1.2-0.9,1.9-1.9,1.9
			C611.1,100.5,610.2,99.8,610.2,98.6z M610.8,85.3l-0.1-2.8h2.9l0,2.8l-0.6,9.3h-1.6L610.8,85.3z"/>
	</g>
</g>
<g>
	<g>
		<g>
			<g>
				<path class="st0" d="M168.6,46.4c-0.4,0-0.8-0.4-0.8-0.8v-3.4c0-0.4,0.4-0.8,0.8-0.8c0.4,0,0.8,0.4,0.8,0.8v3.4
					C169.4,46.1,169.1,46.4,168.6,46.4z"/>
				<path class="st0" d="M171.3,46.4c-0.4,0-0.8-0.4-0.8-0.8v-6.3c0-0.4,0.4-0.8,0.8-0.8c0.4,0,0.8,0.4,0.8,0.8v6.3
					C172.1,46.1,171.8,46.4,171.3,46.4z"/>
				<path class="st0" d="M174,46.4c-0.4,0-0.8-0.4-0.8-0.8v-6.2c0-0.4,0.4-0.8,0.8-0.8c0.4,0,0.8,0.4,0.8,0.8v6.2
					C174.8,46,174.5,46.4,174,46.4z"/>
				<path class="st0" d="M176.7,51.1c-0.4,0-0.8-0.4-0.8-0.8v-5.2c0-0.4,0.4-0.8,0.8-0.8c0.4,0,0.8,0.4,0.8,0.8v5.2
					C177.5,50.8,177.2,51.1,176.7,51.1z"/>
				<path class="st0" d="M176.7,60.5h-9.6c-0.4,0-0.8-0.4-0.8-0.8v-1.9c0-1.3-0.2-2.5-0.6-3.8l-0.1-0.5c-0.3-0.9-0.4-1.9-0.4-2.9
					v-8.4c0-1,0.7-1.9,1.6-2.2c0.4-0.1,0.7-0.1,1.1,0v-0.7c0-1,0.7-1.9,1.6-2.2c0.4-0.1,0.8-0.1,1.2,0.1c0.3-0.7,0.8-1.2,1.5-1.3
					c0.7-0.2,1.3,0,1.9,0.4c0.3,0.2,0.5,0.6,0.7,0.9c0.4-0.1,0.8-0.1,1.2,0c1,0.2,1.6,1.1,1.6,2.2v3.3c0.3-0.1,0.7-0.2,1.1-0.2
					c1.3,0.1,2.4,1.3,2.4,2.6v5.2c0,1.3-0.5,2.5-1.3,3.4l-2,2.1c-0.1,0.1-0.2,0.3-0.2,0.5v3.4C177.5,60.2,177.2,60.5,176.7,60.5z
					 M167.9,58.9h8v-2.6c0-0.6,0.2-1.2,0.6-1.6l2-2.1c0.6-0.6,0.9-1.4,0.9-2.3v-5.2c0-0.5-0.4-1-0.9-1c-0.3,0-0.5,0.1-0.7,0.3
					c-0.2,0.2-0.3,0.4-0.3,0.7c0,0.4-0.4,0.8-0.8,0.8c-0.4,0-0.8-0.4-0.8-0.8v-5.6c0-0.3-0.2-0.5-0.4-0.6c-0.2-0.1-0.4,0-0.5,0.1
					c-0.1,0.1-0.2,0.3-0.2,0.4c0,0.4-0.4,0.8-0.8,0.8c-0.4,0-0.8-0.4-0.8-0.8v-1.3c0-0.2-0.1-0.3-0.2-0.4c-0.1-0.1-0.2-0.2-0.5-0.1
					c-0.2,0.1-0.4,0.3-0.4,0.6v1.2c0,0.4-0.4,0.8-0.8,0.8c-0.4,0-0.8-0.4-0.8-0.8c0-0.2-0.1-0.3-0.2-0.4c-0.1-0.1-0.2-0.2-0.5-0.1
					c-0.2,0.1-0.4,0.3-0.4,0.6v2.8c0,0.4-0.4,0.8-0.8,0.8c-0.4,0-0.8-0.4-0.8-0.8c0-0.2-0.1-0.3-0.2-0.4c-0.1-0.1-0.2-0.2-0.5-0.1
					c-0.2,0.1-0.4,0.3-0.4,0.6v8.4c0,0.8,0.1,1.6,0.4,2.4l0.1,0.5c0.4,1.4,0.6,2.8,0.6,4.2V58.9z"/>
				<path class="st0" d="M173.4,36.6c-0.1,0-0.3,0-0.4-0.1l-2.4-1.4c-0.4-0.2-0.5-0.7-0.3-1.1c0.2-0.4,0.7-0.5,1.1-0.3l2.4,1.4
					c0.4,0.2,0.5,0.7,0.3,1.1C174,36.4,173.7,36.6,173.4,36.6z"/>
				<path class="st0" d="M171.3,38.5c-0.1,0-0.3,0-0.4-0.1l-1.7-1c-0.4-0.2-0.5-0.7-0.3-1.1c0.2-0.4,0.7-0.5,1.1-0.3l1.7,1
					c0.4,0.2,0.5,0.7,0.3,1.1C171.9,38.3,171.6,38.5,171.3,38.5z"/>
				<path class="st0" d="M166.3,41.8c-0.1,0-0.3,0-0.4-0.1l-3.4-2c-0.4-0.2-0.5-0.7-0.3-1.1c0.2-0.4,0.7-0.5,1.1-0.3l3.4,2
					c0.4,0.2,0.5,0.7,0.3,1.1C166.8,41.6,166.6,41.8,166.3,41.8z"/>
				<path class="st0" d="M165.9,45.6c-0.1,0-0.2,0-0.3,0c-0.2-0.1-0.3-0.1-0.5-0.2l-4.5-2.6c-1.1-0.6-1.9-1.6-2.3-2.8l-0.8-2.7
					c-0.1-0.2-0.2-0.3-0.3-0.4l-2.9-1.7c-0.2-0.1-0.3-0.3-0.4-0.5c-0.1-0.2,0-0.4,0.1-0.6l4.8-8.4c0.1-0.2,0.3-0.3,0.5-0.4
					c0.2-0.1,0.4,0,0.6,0.1l1.7,1c1.1,0.6,2.3,1.1,3.5,1.4l0.5,0.1c1,0.2,1.9,0.6,2.7,1.1l5.1,2.9c0.4,0.2,0.5,0.7,0.3,1.1
					c-0.2,0.4-0.7,0.5-1.1,0.3l-5.1-2.9c-0.7-0.4-1.5-0.7-2.3-0.9l-0.5-0.1c-1.4-0.3-2.7-0.8-4-1.6l-1-0.6l-4,7l2.2,1.3
					c0.5,0.3,0.9,0.8,1.1,1.3l0.8,2.7c0.2,0.8,0.8,1.5,1.5,1.9l4.5,2.6c0.1,0,0.1,0.1,0.2,0.1c0.4,0.1,0.6,0.6,0.5,1
					C166.6,45.3,166.2,45.6,165.9,45.6z"/>
				<path class="st0" d="M176.9,44.4c-0.3,0-0.6-0.1-0.7-0.4c-0.2-0.4-0.1-0.9,0.3-1.1l2.6-1.5c0.4-0.2,0.9-0.1,1.1,0.3
					c0.2,0.4,0.1,0.9-0.3,1.1l-2.6,1.5C177.2,44.3,177.1,44.4,176.9,44.4z"/>
				<path class="st0" d="M176.9,41.3c-0.3,0-0.6-0.1-0.7-0.4c-0.2-0.4-0.1-0.9,0.3-1.1l1.3-0.7c0.4-0.2,0.9-0.1,1.1,0.3
					c0.2,0.4,0.1,0.9-0.3,1.1l-1.3,0.7C177.2,41.2,177.1,41.3,176.9,41.3z"/>
				<path class="st0" d="M176,38.7c-0.3,0-0.6-0.1-0.7-0.4c-0.2-0.4-0.1-0.9,0.3-1.1l0.8-0.5c0.4-0.2,0.9-0.1,1.1,0.3
					c0.2,0.4,0.1,0.9-0.3,1.1l-0.8,0.5C176.3,38.6,176.2,38.7,176,38.7z"/>
				<path class="st0" d="M175,36.1c-0.3,0-0.6-0.1-0.7-0.4c-0.2-0.4-0.1-0.9,0.3-1.1l4.5-2.6c0.4-0.2,0.9-0.1,1.1,0.3
					c0.2,0.4,0.1,0.9-0.3,1.1l-4.5,2.6C175.3,36.1,175.2,36.1,175,36.1z"/>
				<path class="st0" d="M180.3,45.6c-0.3,0-0.6-0.1-0.7-0.4c-0.2-0.4-0.1-0.9,0.3-1.1l5-2.9c0.7-0.4,1.4-0.9,1.9-1.5l0.3-0.4
					c1-1.1,2.1-2,3.3-2.7l1-0.6l-4-7l-2.2,1.3c-0.5,0.3-1.1,0.4-1.7,0.3l-2.8-0.6c-0.8-0.2-1.7-0.1-2.4,0.4l-4.5,2.6
					c-0.4,0.3-0.7,0.9-0.4,1.3c0.1,0.2,0.3,0.4,0.6,0.5c0.2,0.1,0.5,0,0.7-0.1c0.4-0.2,0.9-0.1,1.1,0.3c0.2,0.4,0.1,0.9-0.3,1.1
					c0,0-2.2,1.3-2.2,1.3c-0.4,0.2-0.9,0.1-1.1-0.3c-0.2-0.4-0.1-0.9,0.3-1.1l0.2-0.1c-0.3-0.2-0.5-0.5-0.7-0.8
					c-0.6-1.2-0.1-2.7,1.1-3.4l4.5-2.6c1.1-0.6,2.4-0.8,3.6-0.5l2.8,0.6c0.2,0,0.4,0,0.5-0.1l2.9-1.7c0.2-0.1,0.4-0.1,0.6-0.1
					c0.2,0.1,0.4,0.2,0.5,0.4l4.8,8.4c0.2,0.4,0.1,0.9-0.3,1.1l-1.7,1c-1.1,0.6-2.1,1.4-3,2.4l-0.3,0.4c-0.7,0.7-1.4,1.3-2.3,1.8
					l-5,2.9C180.6,45.5,180.4,45.6,180.3,45.6z"/>
				<path class="st0" d="M192.9,37.7c-0.1,0-0.1,0-0.2,0c-0.2-0.1-0.4-0.2-0.5-0.4l-5.5-9.5c-0.2-0.4-0.1-0.9,0.3-1.1l3-1.7
					c0.3-0.2,0.8-0.1,1,0.2c2.5,2.9,4.3,6.4,5.2,10.1c0.1,0.3-0.1,0.7-0.4,0.9l-2.5,1.5C193.2,37.7,193,37.7,192.9,37.7z
					 M188.5,27.7l4.7,8.1l1.3-0.8c-0.8-3-2.2-5.9-4.2-8.3L188.5,27.7z"/>
				<path class="st0" d="M154.4,35.7c-0.1,0-0.3,0-0.4-0.1l-3-1.7c-0.3-0.2-0.5-0.6-0.4-1c1.3-3.6,3.4-6.9,6.2-9.5
					c0.3-0.2,0.7-0.3,1-0.1l2.5,1.5c0.2,0.1,0.3,0.3,0.4,0.5c0.1,0.2,0,0.4-0.1,0.6l-5.5,9.5C155,35.5,154.7,35.7,154.4,35.7z
					 M152.4,32.8l1.7,1l4.7-8.1l-1.3-0.7C155.2,27.2,153.5,29.8,152.4,32.8z"/>
				<path class="st0" d="M173.1,64.4c-2.3,0-4.6-0.3-6.9-1c-0.3-0.1-0.6-0.4-0.6-0.8v-2.9c0-0.4,0.4-0.8,0.8-0.8h10.9
					c0.4,0,0.8,0.4,0.8,0.8v3.5c0,0.4-0.3,0.7-0.7,0.8C176,64.3,174.5,64.4,173.1,64.4z M167.2,62c3,0.8,6.2,1,9.3,0.5v-2h-9.3V62z"
					/>
				<path class="st0" d="M173.1,64.4c-12.7,0-23.1-9.9-23.7-22.6c0-0.4,0.3-0.8,0.8-0.9c0.5,0,0.8,0.3,0.9,0.8
					c0.6,11.8,10.3,21,22.1,21c4.9,0,9.5-1.6,13.4-4.5c0.4-0.3,0.9-0.2,1.1,0.2c0.3,0.4,0.2,0.9-0.2,1.1
					C183.3,62.8,178.3,64.4,173.1,64.4z"/>
				<path class="st0" d="M150.4,37.5c0,0-0.1,0-0.1,0c-0.4-0.1-0.7-0.5-0.7-0.9c1.1-6.2,4.7-11.9,9.9-15.5c0.4-0.3,0.9-0.2,1.1,0.2
					c0.3,0.4,0.2,0.9-0.2,1.1c-4.9,3.4-8.2,8.6-9.2,14.4C151.2,37.3,150.8,37.5,150.4,37.5z"/>
				<path class="st0" d="M168.5,19c-0.4,0-0.7-0.3-0.8-0.7c-0.1-0.4,0.2-0.9,0.6-1c0.4-0.1,0.9-0.2,1.3-0.2c0.4-0.1,0.9,0.2,0.9,0.7
					c0.1,0.4-0.2,0.9-0.7,0.9c-0.4,0.1-0.8,0.1-1.2,0.2C168.6,19,168.6,19,168.5,19z"/>
				<path class="st0" d="M164,20.4c-0.3,0-0.6-0.2-0.7-0.5c-0.2-0.4,0-0.9,0.4-1.1c0.5-0.2,1-0.4,1.5-0.6c0.4-0.1,0.9,0.1,1,0.5
					c0.1,0.4-0.1,0.9-0.5,1c-0.5,0.2-1,0.4-1.4,0.6C164.2,20.4,164.1,20.4,164,20.4z"/>
				<path class="st0" d="M160,22.6c-0.3,0-0.5-0.1-0.7-0.3c-0.3-0.4-0.2-0.9,0.2-1.1c0.4-0.3,0.7-0.5,1.1-0.7
					c0.4-0.2,0.9-0.1,1.1,0.3c0.2,0.4,0.1,0.9-0.3,1.1c-0.4,0.2-0.7,0.4-1,0.7C160.3,22.5,160.2,22.6,160,22.6z"/>
				<path class="st0" d="M196,41.5c-0.4,0-0.8-0.4-0.8-0.8c0-12.2-9.9-22.1-22.1-22.1c-1,0-2.1,0.1-3.1,0.2
					c-0.4,0.1-0.9-0.2-0.9-0.7c-0.1-0.4,0.2-0.9,0.7-0.9c1.1-0.2,2.2-0.2,3.4-0.2c13.1,0,23.8,10.7,23.8,23.8
					C196.8,41.1,196.5,41.5,196,41.5z"/>
				<path class="st0" d="M186.9,59.8c-0.2,0-0.5-0.1-0.6-0.3c-0.3-0.4-0.2-0.9,0.2-1.1c0.3-0.3,0.7-0.5,1-0.8
					c0.3-0.3,0.9-0.2,1.1,0.1c0.3,0.3,0.2,0.9-0.1,1.1c-0.3,0.3-0.7,0.6-1,0.8C187.3,59.7,187.1,59.8,186.9,59.8z"/>
				<path class="st0" d="M191.2,55.6c-0.2,0-0.4-0.1-0.5-0.2c-0.4-0.3-0.4-0.8-0.1-1.1c0.5-0.6,0.9-1.2,1.3-1.8
					c0.2-0.4,0.7-0.5,1.1-0.3c0.4,0.2,0.5,0.7,0.3,1.1c-0.4,0.7-0.9,1.3-1.4,2C191.6,55.5,191.4,55.6,191.2,55.6z M194.6,49.6
					c-0.1,0-0.2,0-0.3-0.1c-0.4-0.2-0.6-0.6-0.5-1c0.3-0.7,0.5-1.4,0.7-2.1c0.1-0.4,0.6-0.7,1-0.6c0.4,0.1,0.7,0.6,0.6,1
					c-0.2,0.8-0.5,1.5-0.7,2.3C195.2,49.4,194.9,49.6,194.6,49.6z"/>
				<path class="st0" d="M196,42.8C196,42.8,196,42.8,196,42.8c-0.5,0-0.8-0.4-0.8-0.9c0-0.4,0-0.8,0-1.3c0-0.4,0.4-0.8,0.8-0.8
					c0.4,0,0.8,0.4,0.8,0.8c0,0.5,0,0.9,0,1.3C196.8,42.4,196.4,42.8,196,42.8z"/>
			</g>
		</g>
		<g>
			<path class="st0" d="M257.1,48.1h-5v8.4h-5.8v-2h-8.6V56c0,2.8-0.7,4-2.5,4.8c-1.8,0.7-4.4,0.8-8.5,0.8c-0.3-1.3-1.2-3.3-1.9-4.5
				c2.3,0.1,5.1,0.1,5.9,0.1c0.9,0,1.2-0.3,1.2-1.2v-1.5h-14.6v-4.1h14.6v-2.3h-19v-4.4h19v-2.1h-14.2v-3.8h14.2v-2.1h-13v-9.5h13
				v-2H214v-4.5h17.9v-3.1h5.8v3.1H256v4.5h-18.3v2h13.6v9.5h-13.6v2.1h14.4v5.9h5V48.1z M231.9,32.1v-2.3h-7.5v2.3H231.9z
				 M237.7,29.8v2.3h7.8v-2.3H237.7z M237.7,43.7h8.6v-2.1h-8.6V43.7z M246.3,48.1h-8.6v2.3h8.6V48.1z"/>
			<path class="st0" d="M286.1,54c-3.3,2.7-9,5.2-14,6.4c-0.7-1.2-2.2-3.1-3.4-4.1c4.8-0.7,10.4-2.3,13.3-4.1L286.1,54z M311.6,45.8
				v4.7h-18.6v10.9h-5.7V50.5H269v-4.7h18.3v-2.1h-13.8v-4.1h13.8v-2.2H271v-4.3h8.8c-0.4-1.1-1.2-2.4-1.8-3.5l3.2-0.7h-12.2v-4.5
				h6.5c-0.7-1.8-2-4.1-3.1-6l4.9-1.6c1.4,2,3,4.9,3.6,6.7l-2.3,0.9h4.4v-7.8h5.3v7.8h3.6v-7.8h5.4v7.8h4.3l-1.7-0.5
				c1.1-1.9,2.4-4.8,3.1-6.9l6,1.4c-1.3,2.2-2.6,4.4-3.8,6h6.2v4.5h-12.7l4.5,1.2c-1.1,1.2-2.1,2.2-2.9,3.1h9.3v4.3h-16.7v2.2h14.4
				v4.1h-14.4v2.1H311.6z M283.9,28.9c0.8,1.2,1.5,2.6,1.9,3.6l-2.6,0.6h13.1l-1.7-0.5c0.8-1.1,1.8-2.5,2.4-3.7H283.9z M298.8,51.8
				c3.9,1.4,9.6,3.8,12.6,5.4l-4,3.1c-2.8-1.6-8.4-4.1-12.4-5.8L298.8,51.8z"/>
			<path class="st0" d="M340.6,39.2v17.3c0,2.1-0.3,3.2-1.7,3.9c-1.2,0.7-3,0.8-5.6,0.8c-0.1-1.2-0.7-3-1.3-4.2c1.3,0,2.8,0,3.2,0
				c0.5,0,0.6-0.2,0.6-0.6v-4.4c-1.6,1.1-3.1,2.1-4.7,3l-1.2-2.7c-0.4,3.3-1.2,6.7-2.9,9.2c-0.8-0.8-2.9-2.3-4-2.7
				c2.4-3.6,2.5-8.5,2.5-12.3v-7.3h-2.4v-7.4h1.9V18.1h15.6v13.7h2v7.4H340.6z M338.5,35.6h-11v1.9h11V35.6z M329.6,31.8h1.9v-7.7
				h4.7v-2h-6.5V31.8z M330.3,46.7c0,1.4,0,2.8-0.1,4.4c1.6-0.7,3.6-1.6,5.8-2.7v-2.1l-1.9,2.1c-0.8-0.8-2.3-2.1-3.7-3.2V46.7z
				 M330.3,44l1.6-1.6c1.4,0.9,2.9,2,4,2.9v-4h-5.6V44z M336.1,31.8v-4.5h-1.8v4.5H336.1z M367.8,56.5v4.1h-25.3v-4.1h5.7
				c-0.4-1.2-0.9-2.4-1.3-3.5l3-0.9h-5.1v-9.4h20.7v9.4H360l3.7,1c-0.8,1.2-1.4,2.4-2.1,3.4H367.8z M367.4,41.2h-24.5v-4.1h24.5
				V41.2z M366.5,35.5h-22.9V20.1h5.7v-3.4h4.4v3.4h2.1v-3.4h4.5v3.4h6.2V35.5z M347.9,26h2.4v-2.2h-2.4V26z M347.9,31.7h2.4v-2.3
				h-2.4V31.7z M349.8,48.7h10.4v-2.5h-10.4V48.7z M351.3,52.1c0.6,1.4,1.2,3.1,1.6,4.4h3.9c0.6-1.4,1.2-3.1,1.6-4.4H351.3z
				 M356.1,26v-2.2h-2.3V26H356.1z M353.8,29.5v2.3h2.3v-2.3H353.8z M362.1,23.8h-2.5V26h2.5V23.8z M362.1,29.5h-2.5v2.3h2.5V29.5z"
				/>
			<path class="st0" d="M422.4,51.3h-10.7v4.7c0,2.6-0.5,4-2.4,4.8c-1.9,0.7-4.6,0.8-8.3,0.8c-0.2-1.5-1-3.6-1.6-5
				c2.3,0.1,5,0.1,5.8,0.1c0.8,0,1-0.2,1-0.8v-4.5h-13.5c2,1.4,4,3.1,5.1,4.4l-4.2,3.6c-1.4-1.9-4.6-4.6-7.2-6.4l2-1.7h-9.6v-4.5
				h27.4V45c-9.5,0.2-18.5,0.3-25.3,0.4l-0.1-4.1c4.5,0,10.4,0,16.9,0v-1.7h-13.8V25.7h13.8V24h-17.6v-4.3h17.6v-3h5.6v3h17.5V24
				h-17.5v1.7h14.5v13.8h-3.2c2.4,1.2,4.7,2.7,6.2,3.8l-3.5,2.9c-0.6-0.5-1.2-1.1-2-1.6l-3.5,0.1v1.9h10.7V51.3z M389.2,31h8.5v-1.8
				h-8.5V31z M397.7,36v-1.8h-8.5V36H397.7z M403.2,29.2V31h8.9v-1.8H403.2z M412.2,36v-1.8h-8.9V36H412.2z M403.2,41.2l6,0
				c-0.7-0.3-1.3-0.6-2-0.9l1-0.8h-5V41.2z"/>
			<path class="st0" d="M477.6,50.7h-11.1c3.7,1.9,8.3,4.5,10.8,6.5l-4.5,4c-2.5-2.3-7.9-5.6-12.1-7.8l3.3-2.7h-5.5v10.8h-5.7V50.7
				h-8.1l5.6,1.9c-2.8,3.3-7.5,6.2-11.6,8.1c-1.1-1.1-3.5-2.9-4.8-3.8c4.1-1.3,8.4-3.6,10.6-6.1h-10.5V46h18.7v-3.3h5.7V46h19.1
				V50.7z M471.7,44.8c-3.4-1.4-8.2-2.8-13.6-4.1c-5.4,2.2-12.5,3.2-22,3.7c-0.4-1.7-1.2-3.5-2-4.7c5.5-0.1,10.2-0.5,14.1-1.2
				c-2.7-0.5-5.4-1-8.2-1.4c1.2-1.1,2.6-2.4,4-3.9h-9.6v-4.5h13.5c1.2-1.4,2.2-2.8,3-4.2h-10.4v2.6h-5.3v-7.3h17
				c-0.3-0.7-0.7-1.4-1-2l6-1.2c0.6,0.9,1.3,2.1,1.9,3.2h17.1v7.3h-5.5v-2.6h-17.6l3.5,1.1c-0.8,1-1.5,2.1-2.4,3.1h9.3
				c0.4-0.9,0.8-1.9,1.2-2.9l5.6,1.1c-0.2,0.6-0.4,1.2-0.7,1.8h7.5v4.5h-9.8c-1.1,1.6-2.3,3-3.6,4.1c5.2,1.2,9.9,2.6,13.5,3.8
				L471.7,44.8z M450,33.2c-0.4,0.4-0.8,0.8-1.2,1.2c2.6,0.4,5.3,1,7.9,1.5c1.4-0.8,2.6-1.6,3.7-2.7H450z"/>
		</g>
	</g>
</g>
</svg>
