<?xml version="1.0" encoding="utf-8"?>
<!-- Generator: Adobe Illustrator 24.2.1, SVG Export Plug-In . SVG Version: 6.00 Build 0)  -->
<svg version="1.1" id="圖層_1" xmlns="http://www.w3.org/2000/svg" xmlns:xlink="http://www.w3.org/1999/xlink" x="0px" y="0px"
	 viewBox="0 0 158 153.2" style="enable-background:new 0 0 158 153.2;" xml:space="preserve">
<style type="text/css">
	.st0{clip-path:url(#SVGID_2_);fill:#FCE3C3;}
	.st1{clip-path:url(#SVGID_2_);}
	.st2{fill:#602826;}
	.st3{fill:#FFCFCA;}
	.st4{fill:#F9BFBB;}
	.st5{opacity:0.3;fill:#F9BFBB;}
	.st6{fill:#F4B9B8;}
	.st7{fill:#397272;}
	.st8{fill:#326B69;}
	.st9{fill:#F9713D;}
	.st10{fill:#EF5D30;}
	.st11{fill:#211A17;}
	.st12{fill:#CE7872;}
	.st13{fill:#FFFFFF;}
	.st14{fill:#EA8C8B;}
	.st15{fill:#FBB03B;}
</style>
<g>
	<g>
		<defs>
			<circle id="SVGID_1_" cx="79.5" cy="77.2" r="69.6"/>
		</defs>
		<clipPath id="SVGID_2_">
			<use xlink:href="#SVGID_1_"  style="overflow:visible;"/>
		</clipPath>
		<circle class="st0" cx="79.5" cy="77.2" r="69.6"/>
		<g class="st1">
			<g>
				<path class="st2" d="M132,110c0-9.8-8-17.8-17.8-17.8c-1.3,0-2.5,0.1-3.7,0.4c-1.4-7.2-0.2-15.9,0.2-21.2
					c0.8-12.3,0.4-28.3-10.3-37.1c-6.2-5.1-15.8-6.5-23.5-3.7C68.1,33.8,62.8,41.9,60.3,50c-1.6,5.2-2.2,10.6-3.5,15.7
					c-1-0.5-2-0.7-3.2-0.7c-3.6,0-6.6,2.5-7.3,5.8c-0.8-0.1-1.6-0.2-2.4-0.2c-10.3,0-18.6,8.3-18.6,18.6c0,2.2,0.4,4.3,1.1,6.2
					c-5,3-8.4,8.5-8.4,14.8c0,8.7,6.4,15.9,14.8,17.1c1.9,8,9,13.9,17.6,13.9c0.4,0,0.7,0,1.1,0c2.9,7.3,10,12.4,18.3,12.4
					c7.6,0,14.2-4.3,17.5-10.7c3.2,2.2,7,3.4,11.1,3.4c10.6,0,19.3-8.4,19.7-19C125.9,125.7,132,118.6,132,110z"/>
				<polygon class="st3" points="111.3,457.8 113.8,452.2 111.6,405.5 132.4,405.5 128,451.6 132.2,455.6 144.4,464.9 121.3,464.9 
					112.4,463.5 				"/>
				<path class="st2" d="M155.7,469.6c-0.1-0.3-0.2-0.6-0.4-0.9c-0.8-1.1-2.4-1.6-3.5-2.2c-0.4-0.2-0.7-0.4-1.1-0.7
					c-1.6-0.9-3.1-1.8-4.7-2.7l-8.5-5.3l-9.3-6.5l-14.7,0.3l-2.4,5.5c-0.7,1.6-1.1,2.8-1.9,4.4c-0.4,0.9-0.8,1.8-0.9,2.7
					c0,0.2,0,0.5,0,0.7c0,0.7,0.3,1.4,0.6,2c0.5,1,1.4,1.8,2.4,2.3c1.3,0.7,2.7,0.8,4.2,1c9,1,17.9,2,26.9,2.5
					c3.1,0.2,6.5,0.6,9.6,0.3C154,472.9,156.3,472,155.7,469.6z"/>
				<polygon class="st3" points="51.4,455.4 54.1,449.8 53.2,403.1 74,403.7 68.3,449.6 72.4,453.7 84.3,463.4 61.2,462.7 
					52.4,461.1 				"/>
				<path class="st2" d="M95.5,468.4c-0.1-0.3-0.2-0.6-0.4-0.9c-0.7-1.1-2.3-1.6-3.4-2.3c-0.4-0.2-0.7-0.5-1.1-0.7
					c-1.5-1-3.1-1.9-4.6-2.9l-8.3-5.5l-9.1-6.8l-14.7-0.1l-2.6,5.4c-0.8,1.6-1.2,2.8-2,4.4c-0.4,0.9-0.9,1.8-1,2.7
					c0,0.2-0.1,0.5-0.1,0.7c0,0.7,0.2,1.4,0.5,2c0.5,1,1.3,1.8,2.3,2.4c1.3,0.7,2.7,0.9,4.1,1.1c8.9,1.2,17.9,2.5,26.9,3.3
					c3.1,0.3,6.4,0.8,9.6,0.6C93.6,471.6,95.9,470.8,95.5,468.4z"/>
				<path class="st3" d="M171.9,260.8c1-1.2,1.9-2.4,2.7-3.7c0,0,0,0,0,0c0.1-0.1,0.1-0.2,0.2-0.3c0.7-1.1,1.3-2.2,1.9-3.3
					c-0.2-0.3-0.3-0.6-0.5-0.9c-0.7-1.3-1.4-2.6-2.1-4c-0.2,0.6-0.3,1.2-0.4,1.5c-0.3,0.8-0.6,1.6-1,2.4c-0.8,1.7-1.7,3.4-2.6,5
					c-0.5,0.8-1,1.6-1,2.5c0,0.2,0,0.3,0.1,0.5c0.1,0.3,0.3,0.6,0.5,0.8c0,0,0,0,0.1,0c0,0,0.1,0.1,0.1,0.1c0.3,0.2,0.6,0.3,0.9,0.2
					c0,0,0.1,0,0.1,0l0,0c0.3-0.1,0.6-0.3,0.8-0.6C171.8,261,171.9,260.9,171.9,260.8z"/>
				<path class="st4" d="M169.9,261.5c0,0-0.1-0.1-0.1-0.1c0,0,0,0-0.1,0c-0.2-0.2-0.4-0.5-0.5-0.8c0.2-0.2,0.3-0.5,0.5-0.7
					c1-1.5,2-2.9,3-4.4c0.2-0.3,0.7-1.4,1.2-1.4c0.7,0,0.6,1.3,0.5,1.7c-0.1,0.3-0.3,0.5-0.4,0.7C172.6,258.2,171.4,260,169.9,261.5
					z"/>
				<path class="st3" d="M172.1,263.7c0.2-0.2,0.4-0.5,0.6-0.7c0.4-0.5,0.8-1,1.1-1.5c0.6-0.9,1.2-1.8,1.8-2.7
					c0.4-0.7,0.8-1.4,1.2-2.2c0.3-0.5,0.5-1.1,0.8-1.6c-0.5-0.8-0.9-1.6-1.4-2.4c-0.5-0.8-0.9-1.7-1.4-2.5c-0.5,0.8-0.8,2.5-1,2.9
					c-0.1,0.3-0.2,0.6-0.3,0.9c-0.9,2.3-2,4.4-3.3,6.5c-0.2,0.3-0.4,0.6-0.5,0.9c-0.2,0.5-0.4,1-0.4,1.6c0,0.9,0.8,1.9,1.7,1.7
					c0.4-0.1,0.7-0.3,0.9-0.6C172,263.9,172.1,263.8,172.1,263.7z"/>
				<path class="st4" d="M172.7,263c0.2-0.8,0.3-1.7,0.6-2.5c0.7-2.1,1.7-4,2.3-6.1l0,0.3c0,0,0.1-0.1,0.1-0.1
					c0.2,0,0.4,0.2,0.5,0.3c0.3,0.5,0.5,1.1,0.7,1.6c-0.4,0.7-0.8,1.5-1.2,2.2c-0.6,0.9-1.1,1.8-1.8,2.7
					C173.5,262,173.1,262.5,172.7,263z"/>
				<path class="st3" d="M175.4,267.8c0.1-0.2,0.2-0.4,0.3-0.5c0.6-1.2,1.1-2.5,1.5-3.8c0.6-1.9,1.1-3.9,1.5-5.9
					c0-0.2,0.1-0.4,0.1-0.6c-0.9-1.5-1.7-2.9-2.6-4.4c-0.4-0.8-0.8-1.5-1.3-2.3c-0.1,0.1-0.1,0.2-0.2,0.4c-0.2,0.7-0.1,1.3-0.1,2
					c0.1,1.2,0.1,2.4,0,3.7c0,0.2,0,0.4-0.1,0.6c0,0,0,0,0,0c-0.1,1.3-0.4,2.7-0.7,4c0,0.1-0.1,0.3-0.1,0.4c-0.5,1.8-1.1,3.5-1,5.3
					c0,0.8,0.3,1.7,1,1.9c0.4,0.1,0.9-0.1,1.2-0.4C175.2,268.1,175.3,268,175.4,267.8z"/>
				<path class="st5" d="M178.8,257c-0.9-1.5-1.7-2.9-2.6-4.4c-0.7-1.3-1.4-2.6-2.1-4c-0.2,0.6-0.3,1.2-0.4,1.5
					c-0.2,0.5-0.4,1-0.6,1.5c1.1,2,1.9,4.3,2.5,6.4c0.4,1.3,0.8,2.7,1.1,4c0.2,0.5,0.3,1,0.5,1.4c0.6-1.9,1.1-3.9,1.5-5.9
					C178.8,257.4,178.8,257.2,178.8,257z"/>
				<g>
					<path class="st6" d="M25.6,267.4c0.2,0.7,0.4,1.4,0.6,2.1c0.6,1.9,1.3,3.8,1.9,5.7c0.3,0.8,0.5,1.7,0.5,2.5s-0.3,1.8-0.9,2.3
						c-0.6,0.6-1.7,0.8-2.4,0.3c-0.6-0.4-0.9-1.2-1.1-2c-0.3-1-0.5-1.9-0.8-2.9c-0.4-1.3-0.7-2.6-1-3.9c-0.6-2.7-0.9-5.5,0.1-8.1
						c0.3-0.8,2.3-3.2,2.8-1.3c0.2,0.7-0.1,1.7-0.1,2.5C25.3,265.6,25.4,266.5,25.6,267.4z"/>
				</g>
				<g>
					<path class="st4" d="M24.5,269c0.2,0.7,0.4,1.4,0.6,2.1c0.6,1.9,1.3,3.8,1.9,5.7c0.3,0.8,0.5,1.7,0.5,2.5
						c0,0.9-0.3,1.8-0.9,2.3c-0.6,0.6-1.7,0.8-2.4,0.3c-0.6-0.4-0.9-1.2-1.1-2c-0.3-1-0.5-1.9-0.8-2.9c-0.4-1.3-0.7-2.6-1-3.9
						c-0.6-2.7-0.9-5.5,0.1-8.1c0.3-0.8,2.3-3.2,2.8-1.3c0.2,0.7-0.1,1.7-0.1,2.5C24.2,267.2,24.3,268.1,24.5,269z"/>
				</g>
				<path class="st3" d="M184.5,265.2c-1.8-4.5-3.6-8.9-5.3-13.4c-1.7-4.3-3.2-7.9-5.4-12c-0.9-1.7-2.2-3.8-3.2-5.5
					c-5-9.2-10-18.4-15-27.6c-3.2-5.8-6.3-11.6-9.5-17.4c-2.1-3.8-4.2-7.6-5.7-11.7c-2-5-3.1-10.3-4.2-15.6
					c-2.2-10.8-4-21.8-7.6-32.2c-2.8-7.9-6.8-15.6-12.9-21.4c-9.1-8.6-21.8-11.9-34.1-11c-2.1,0.1-4.2,0.4-6.3,0.8
					c-5.7,1.1-11.3,3.2-16.3,6.1c-5.2,3-9.5,6.7-12.9,11.7c-1.1,1.6-2,3.2-2.9,4.9c-3.3,6.4-5.5,13.3-8.2,20
					c-4.8,11.9-11.7,23.1-14,35.7c-2.3,13.1,3.4,44.8,3.3,63.4c-0.4,7.1-3,16.1-3.6,20c-0.5,3.1-1,6.3-0.7,9.4
					c0.4,3.3,1.2,6.5,2.1,9.7c0.1,0.5,0.3,1,0.6,1.4c0.5,0.8,1.8,1,2.4,0.1c1.3-1.8,0.6-4.4,0.1-6.4c-0.4-1.8-0.9-3.7-1-5.5
					c-0.1-1.8,0.4-3.5,1.1-5.2c0.5-1.2,1-2.4,1.6-3.6c0.2-0.3,0.3-0.7,0.5-1c0.1-0.1,0.1-0.2,0.2-0.4c0.4-0.6,0.8-1.1,1.5-1.4
					c0.5-0.2,1.4-0.4,1.9-0.1c0.6,0.3,0.6,1.1,0.6,1.6c0.1,0.7,0,1.4-0.1,2c-0.1,0.9-0.3,1.8-0.4,2.7c0,0.2,0,0.5,0,0.7
					c0,0.2,0.1,0.4,0.1,0.6c0.6,2.1,3.3,3.9,4.4,1.1c0.2-0.6,0.3-1.2,0.4-1.8c0.4-3,1.5-5.9,1.3-8.9c-0.1-1.9-0.4-3.8-0.7-5.7
					c-0.5-3.2-1.9-7.8-2.2-9.3c2-18.9,3-35,4.1-53.9c0.1-2,0.2-4,0.8-5.9c0.7-2.5,2.2-4.6,3.6-6.8c8.6-13.2,16.8-26.6,24.6-40.4
					c2.7-4.8,5.4-9.9,5.3-15.4c7.2,5.3,17.2,6.5,25.5,3.1c10.3,23.2,15.2,48.7,27.6,70.8c9.9,17.7,24.7,31.7,36.7,48.1
					c0.4,0.6,0.2,2.4,0.3,3.1c0.1,2.5-0.1,4.9,0.2,7.4c0.3,2.5,0.9,4.9,1.7,7.3c0.4,1.1,1.4,2,2.5,1.1c0.1-0.1,0.2-0.1,0.3-0.2
					c1.1-1.1,1.1-2.7,1-4.2c-0.1-1.7,0-3.3,0.7-4.8c0.2-0.4,0.5-0.8,1-0.9c0.3-0.1,0.6,0,0.8,0.1c0.9,0.3,1.6,0.9,2.1,1.5
					c0.3,0.4,0.5,0.8,0.8,1.2c0.2,0.4,0.4,0.8,0.6,1.2c0.2,0.5,0.5,1,0.7,1.5c0,0.1,0.1,0.2,0.1,0.3c0,0.1,0.1,0.2,0.1,0.3
					c0.3,0.6,0.6,1.1,0.9,1.7c0.5,1,1,2.1,1.6,3.1c0.5,0.9,0.9,1.8,1.4,2.7c0.8,1.6,1.7,3.3,3.1,4.5
					C183.4,267.5,185.1,266.7,184.5,265.2z"/>
				<g>
					<path class="st4" d="M31.4,262.3c-0.1,0.4-0.3,0.8-0.4,1.2c0-0.9,0.2-1.8,0.4-2.7c0.1-0.7,0.2-1.3,0.1-2
						c-0.1-0.6,0-1.3-0.6-1.6c-0.5-0.3-1.4-0.1-1.9,0.1c-0.6,0.3-1.1,0.8-1.5,1.4c-0.1,0.1-0.1,0.2-0.2,0.4c0.1-0.4,0.3-0.7,0.4-1.1
						c0.3-0.7,0.7-1.5,1.4-1.9c0.7-0.5,1.6-0.6,2.3-0.2c0.6,0.4,0.9,1,1,1.7C32.5,259.1,31.9,260.8,31.4,262.3z"/>
				</g>
				<g>
					<path class="st3" d="M97.8,103.2c-1.4,0.9-3.2,1.1-4.9,1.3c-2,0.2-4.1,0.4-6.1,0.3c-4-0.2-7.6-1.6-11.3-2.8
						c0.1-2.3,0.1-4.6,0.2-6.9c0.1-2.9,0.2-5.7,0-8.6c-0.1-0.9-0.2-1.8-0.3-2.6c-0.3-2.2-0.7-4.3-1-6.5c-0.3-1.8-0.6-3.5-1-5.3
						c1,1,2,1.5,3.2,2.2c5.3,2.9,10.7,5.6,16.1,8.3c1.6,0.8,3.3,1.6,5,2l0,10L97.8,103.2z"/>
				</g>
				<g>
					<path class="st4" d="M97.8,94.6c-6.1-1.6-12-4-17.3-7.3c-1.7-1.1-3.5-2.2-5.1-3.4c-0.3-2.2-0.7-4.3-1-6.5
						c-0.3-1.8-0.6-3.5-1-5.3c1,1,2,1.5,3.2,2.2c5.3,2.9,10.7,5.6,16.1,8.3c1.6,0.8,3.3,1.6,5,2L97.8,94.6z"/>
				</g>
				<path class="st3" d="M108.2,56.3c-0.3-1.4-0.7-2.9-1.2-4.3c-1.4-4.4-4.2-8.5-8.1-11.2c-7.3-5.3-17.8-4.4-24.1,2.1
					c-1.5,1.5-2.7,3.3-3.6,5.2c-2.2,4.7-2.5,9.8-1.5,14.8c0.8,4.4,2.6,8.7,4.9,12.4c1.4,2.3,3,4.5,5,6.4c1.1,1.1,2.3,2.1,3.7,2.9
					c2.7,1.7,5.7,2.9,8.9,3.1c2.9,0.2,5.8-0.5,8.3-1.9c2.8-1.6,4.5-4.2,5.8-7C109.4,71.8,109.8,63.7,108.2,56.3z"/>
				<g>
					<g>
						<path class="st3" d="M76,73.8c-2.8,1.3-6.2,1-8.7-0.8c-2.1-1.5-3.4-4-3.5-6.6c0-0.5,0-0.9,0.1-1.4c0.1-0.8,0.3-1.6,0.8-2.3
							c1-1.8,3.2-2.7,5.2-2.5c2,0.2,3.8,1.6,4.7,3.4l0.6,3.9L76,73.8z"/>
					</g>
				</g>
				<path class="st2" d="M100.1,38.2c-2.4,6.7-7.3,12.4-13.4,16.2c-6.1,3.8-13.2,5.7-20.3,6.1c-0.5,0,1-9.4,1.2-10.3
					c1.4-4.8,4.6-9.1,8.8-11.9c0.6-0.4,1.3-0.8,1.9-1.2c4.1-2.2,8.9-3,13.5-2.3c1.9,0.3,3.7,0.8,5.4,1.7
					C97.5,36.7,100.2,37.8,100.1,38.2z"/>
				<path class="st3" d="M110.5,176.4c1.3-10.7,2.4-21.3,4.5-31.8c1.9-9.4,4.1-19.2,0.6-28.5c-1.5-1.6-3.3-2.9-5.2-4
					c-16-9.8-36-8.8-53.7-2.6c-0.9,14.6,1,29.3,2.2,44c0.4,2.1,0.6,4.2,0.9,6.3c1.5,13.3,2.4,26.6,3.3,39.9c0.4-0.1,0.9-0.1,1.3-0.1
					c3-0.1,6,0.4,8.9,0.9c7.6,1.3,15.2,2.5,22.8,3.8c2.9,0.5,5.9,1,8.8,1.7c1.7-7.6,3.5-15.3,5.3-22.9
					C110.1,180.9,110.2,178.7,110.5,176.4z"/>
				<path class="st7" d="M129.1,443.1l-16.4-1.8c-3.1-37.8-6.9-91.9-7.1-114.1c-1.5-3.4-3.1-6.5-4.5-9.2c-8.6-16.1-16.1-22.6-22-44
					c-2.2-7.9-4.2-16.6-5.8-25.5c-3.5-19.1-5.4-39.5-4.7-57.2c12.6,1.2,27.3,4,39.6,0.6c4.6,12.2,11.6,29.6,14.7,42.3
					c6.2,25.6,15.9,79,16.4,89C139.9,335.1,133.2,424.1,129.1,443.1z"/>
				<path class="st8" d="M101.8,294c-0.1,6.7-0.3,13.4-0.6,20c-0.1,1.2,0,2.6-0.1,4c-8.6-16.1-16.1-22.6-22-44
					c-2.2-7.9-4.2-16.6-5.8-25.5c0.4-1.1,0.8-2.2,1.2-3.4c4.5-13.5,5.7-27.9,10.3-41.3c5.4,7.8,9.6,16.5,12.3,25.7
					c4,13.5,4.6,27.8,4.9,41.9C102,279,101.9,286.5,101.8,294z"/>
				<path class="st7" d="M70.3,439.8c-5.4-0.8-12.1-1.4-17.5-1.4c-3.4-34.2,0.8-118.8,0.8-118.8s-9.9-29.2-10.7-61.8
					c-0.1-5.3-0.9-21.4,2.5-35.2c4.5-18.2,11.9-26.2,16.7-33.7c15.3,4.2,31.4,5.4,46.1,3c-3.2,20.4-7.2,54.2-10.4,74.6
					c-6.9,44.2-12.1,84.1-19.6,128.3C76,408.3,73.1,425,70.3,439.8z"/>
				<path class="st9" d="M135.5,146.9c-2.4,3.1-5.3,5.1-8.7,6.4c-0.9,0.4-1.8,0.7-2.6,1c-3.3,1.1-5.8,1.4-9.9,1.9l-3.3,33
					c-4.2,1.3-8.6,1.8-13,1.9c-6.8,0.2-13.7-0.2-20.4-0.7c-6.2-0.5-12.6-1.5-18.2-4.4c0.1-8,0-16-0.5-23.9c-0.2-3.3-0.4-6.7-0.7-10
					c0,0,0-0.1,0-0.1c-0.8,1.2-1.7,2.1-2.3,3.3c-8.1-5.4-15.3-11.7-21.6-19c0.1-0.3,0.3-0.7,0.4-1c0.8-1.9,1.7-3.7,2.8-5.6
					c2.2-3.9,4.5-7.8,7-11.5c0.5-0.7,0.9-1.4,1.4-2.1c3.2-4.6,7-8.8,11.7-12.1c2.5-1.7,5.1-3.2,7.9-4.3c1.5-0.6,9.6-2.8,9.6-2.7
					c1,1.6,2,2.3,3.8,2.8c4.4,1.4,9.1,1.5,13.6,0.9c2.5-0.3,6-2.6,6-2.6s7.9,2.3,12,4.7c1.8,1.1,3.4,2.3,5,3.6
					c4.8,4,8.4,9,11.1,14.6c2.7,5.8,4.4,12,6.4,18C133.9,141.8,134.7,144.3,135.5,146.9z"/>
				<path class="st10" d="M116.2,140.4c0.1-1.5,0.1-3,0-4.5c-0.1-1.8-0.5-3.5-0.9-5.2c-0.9-3.8-2.1-7.5-3.4-11.1
					c0.3,0.6,0.6,1.2,1,1.7c2.4,4.1,4.7,8.5,5.5,13.4c0.6,3.7,0.2,7.6,1.1,11.2c0.8,3.2,2.5,6,4.7,8.1c0.1,0.1,0.1,0.1,0.2,0.2
					c-3.3,1.1-5.8,1.4-9.9,1.9C115.2,150.6,115.9,146,116.2,140.4z"/>
				<path class="st10" d="M64.6,143.1c-1.3,6.5-2.6,13.2-5.7,19c-0.2-3.3-0.4-6.7-0.7-10C60.9,149.5,63.7,146.7,64.6,143.1z"/>
				<g>
					<path class="st11" d="M87.8,55.1c0.4,0,0.8,0,1.2,0c0.7,0.1,1.4,0.1,2.1,0.2c0.2,0,0.5,0,0.6-0.2c0.1-0.1,0-0.2,0-0.3
						c-0.2-0.4-0.7-0.5-1.1-0.6c-1.1-0.1-2.2-0.1-3.2,0.4c-0.2,0.1-1.3,0.6-1.2,0.9C86.2,55.7,87.6,55.2,87.8,55.1z"/>
					<path class="st11" d="M103.1,54.7c-0.4,0-0.8,0-1.2,0.1c-0.7,0.1-1.4,0.2-2.1,0.3c-0.2,0-0.5,0-0.6-0.2c-0.1-0.1-0.1-0.2,0-0.3
						c0.1-0.4,0.6-0.6,1.1-0.7c1.1-0.2,2.2-0.2,3.2,0.1c0.2,0.1,1.4,0.5,1.3,0.8C104.7,55.1,103.3,54.7,103.1,54.7z"/>
					<g>
						<path class="st12" d="M101.8,73.1c-0.8,2-2.2,3.4-4,3.6c-1.7,0.1-3.3-0.9-4.4-2.7c-0.8-1.2-1.3-2.8-1.5-4.5l0.3,0l9.7-0.8
							l0.4,0C102.5,70.3,102.3,71.8,101.8,73.1z"/>
						<path class="st13" d="M102.1,68.7c-1.1,1.6-2.7,2.7-4.7,2.9c-1.9,0.2-3.7-0.7-5.1-2.1L102.1,68.7z"/>
						<path class="st14" d="M101.8,73.1c-0.8,2-2.2,3.4-4,3.6c-1.7,0.1-3.3-0.9-4.4-2.7c0.5-0.3,1-0.6,1.5-0.8
							c1.5-0.7,3.2-1,4.8-0.7C100.5,72.5,101.2,72.8,101.8,73.1z"/>
					</g>
					<g>
						<path class="st11" d="M91.7,61.4c0,1.3-0.7,2.4-1.6,2.5c-0.9,0-1.7-1-1.8-2.4c0-1.3,0.7-2.4,1.6-2.5
							C90.8,59.1,91.6,60.1,91.7,61.4z"/>
						<path class="st13" d="M90.4,60.7c-0.5,0-0.5,0.9,0,0.8C91,61.5,91,60.7,90.4,60.7z"/>
					</g>
					<g>
						<path class="st11" d="M100.7,61.2c0,1.3,0.8,2.4,1.8,2.4c0.9,0,1.7-1.1,1.6-2.5c0-1.3-0.8-2.4-1.8-2.4S100.7,59.8,100.7,61.2z
							"/>
						<path class="st13" d="M102.9,60.1c-0.5,0-0.5,0.9,0,0.8C103.5,60.9,103.5,60,102.9,60.1z"/>
					</g>
					<path class="st12" d="M97.8,64.2c-0.6-0.4-1.4-0.4-1.9,0.1l1.5,2.6c0.4,0,0.8-0.4,0.9-0.8C98.6,65.4,98.4,64.6,97.8,64.2z"/>
				</g>
				
					<ellipse transform="matrix(0.9976 -6.919913e-02 6.919913e-02 0.9976 -4.5396 6.0267)" class="st4" cx="84.7" cy="68.5" rx="4.5" ry="3.7"/>
				
					<ellipse transform="matrix(0.9976 -6.919363e-02 6.919363e-02 0.9976 -4.3319 7.4879)" class="st4" cx="105.9" cy="66.3" rx="2.5" ry="2.1"/>
			</g>
		</g>
	</g>
	<g>
		<path class="st15" d="M79.5,151.7c-0.2,0-0.4-0.2-0.4-0.4c0-0.2,0.2-0.4,0.4-0.4c0.7,0,1.4,0,2.1,0c0.2,0,0.4,0.2,0.4,0.4
			c0,0.2-0.2,0.4-0.4,0.4C80.9,151.7,80.2,151.7,79.5,151.7z M77.4,151.7C77.4,151.7,77.4,151.7,77.4,151.7c-0.7,0-1.4,0-2.1-0.1
			c-0.2,0-0.4-0.2-0.4-0.4c0-0.2,0.2-0.4,0.4-0.4c0.7,0,1.4,0.1,2.1,0.1c0.2,0,0.4,0.2,0.4,0.4C77.8,151.5,77.6,151.7,77.4,151.7z
			 M83.7,151.6c-0.2,0-0.4-0.2-0.4-0.4c0-0.2,0.2-0.4,0.4-0.4c0.7,0,1.4-0.1,2.1-0.1c0.2,0,0.4,0.1,0.4,0.4c0,0.2-0.1,0.4-0.4,0.4
			C85.2,151.5,84.5,151.6,83.7,151.6C83.7,151.6,83.7,151.6,83.7,151.6z M73.1,151.5C73.1,151.5,73.1,151.5,73.1,151.5
			c-0.7-0.1-1.4-0.1-2.2-0.2c-0.2,0-0.4-0.2-0.3-0.4c0-0.2,0.2-0.4,0.4-0.3c0.7,0.1,1.4,0.1,2.1,0.2c0.2,0,0.4,0.2,0.4,0.4
			C73.5,151.3,73.3,151.5,73.1,151.5z M87.9,151.3c-0.2,0-0.4-0.1-0.4-0.4c0-0.2,0.1-0.4,0.3-0.4c0.7-0.1,1.4-0.2,2.1-0.3
			c0.2,0,0.4,0.1,0.4,0.3c0,0.2-0.1,0.4-0.3,0.4C89.4,151.1,88.7,151.2,87.9,151.3C88,151.3,88,151.3,87.9,151.3z M68.9,151
			C68.9,151,68.9,151,68.9,151c-0.8-0.1-1.5-0.2-2.2-0.3c-0.2,0-0.4-0.2-0.3-0.5c0-0.2,0.2-0.4,0.5-0.3c0.7,0.1,1.4,0.2,2.1,0.3
			c0.2,0,0.4,0.2,0.3,0.4C69.3,150.9,69.1,151,68.9,151z M92.1,150.7c-0.2,0-0.4-0.1-0.4-0.3c0-0.2,0.1-0.4,0.3-0.5
			c0.7-0.1,1.4-0.2,2.1-0.4c0.2,0,0.4,0.1,0.5,0.3c0,0.2-0.1,0.4-0.3,0.5C93.6,150.4,92.9,150.5,92.1,150.7
			C92.2,150.7,92.2,150.7,92.1,150.7z M64.8,150.3C64.7,150.3,64.7,150.3,64.8,150.3c-0.8-0.1-1.5-0.3-2.2-0.5
			c-0.2,0-0.3-0.3-0.3-0.5c0-0.2,0.3-0.3,0.5-0.3c0.7,0.2,1.4,0.3,2.1,0.4c0.2,0,0.4,0.3,0.3,0.5C65.1,150.2,64.9,150.3,64.8,150.3z
			 M96.3,149.8c-0.2,0-0.3-0.1-0.4-0.3c0-0.2,0.1-0.4,0.3-0.5c0.7-0.2,1.4-0.3,2-0.5c0.2-0.1,0.4,0.1,0.5,0.3
			c0.1,0.2-0.1,0.4-0.3,0.5C97.8,149.5,97.1,149.7,96.3,149.8C96.3,149.8,96.3,149.8,96.3,149.8z M60.6,149.3c0,0-0.1,0-0.1,0
			c-0.7-0.2-1.4-0.4-2.1-0.6c-0.2-0.1-0.3-0.3-0.3-0.5c0.1-0.2,0.3-0.3,0.5-0.3c0.7,0.2,1.4,0.4,2,0.6c0.2,0.1,0.3,0.3,0.3,0.5
			C61,149.2,60.8,149.3,60.6,149.3z M100.4,148.7c-0.2,0-0.3-0.1-0.4-0.3c-0.1-0.2,0.1-0.4,0.3-0.5c0.7-0.2,1.3-0.4,2-0.6
			c0.2-0.1,0.4,0,0.5,0.3c0.1,0.2,0,0.4-0.3,0.5c-0.7,0.2-1.4,0.4-2,0.6C100.5,148.7,100.4,148.7,100.4,148.7z M56.6,148.1
			c0,0-0.1,0-0.1,0c-0.7-0.2-1.4-0.5-2-0.7c-0.2-0.1-0.3-0.3-0.2-0.5c0.1-0.2,0.3-0.3,0.5-0.2c0.7,0.2,1.3,0.5,2,0.7
			c0.2,0.1,0.3,0.3,0.3,0.5C56.9,148,56.7,148.1,56.6,148.1z M104.4,147.4c-0.2,0-0.3-0.1-0.4-0.3c-0.1-0.2,0-0.4,0.2-0.5
			c0.7-0.2,1.3-0.5,2-0.7c0.2-0.1,0.4,0,0.5,0.2c0.1,0.2,0,0.4-0.2,0.5c-0.7,0.3-1.3,0.5-2,0.7C104.5,147.4,104.5,147.4,104.4,147.4
			z M52.6,146.7c0,0-0.1,0-0.1,0c-0.7-0.3-1.3-0.5-2-0.8c-0.2-0.1-0.3-0.3-0.2-0.5c0.1-0.2,0.3-0.3,0.5-0.2c0.6,0.3,1.3,0.5,2,0.8
			c0.2,0.1,0.3,0.3,0.2,0.5C52.9,146.6,52.7,146.7,52.6,146.7z M108.4,145.9c-0.2,0-0.3-0.1-0.4-0.2c-0.1-0.2,0-0.4,0.2-0.5
			c0.6-0.3,1.3-0.6,1.9-0.8c0.2-0.1,0.4,0,0.5,0.2c0.1,0.2,0,0.4-0.2,0.5c-0.6,0.3-1.3,0.6-1.9,0.9
			C108.5,145.9,108.4,145.9,108.4,145.9z M48.6,145.1c-0.1,0-0.1,0-0.2,0c-0.6-0.3-1.3-0.6-1.9-0.9c-0.2-0.1-0.3-0.3-0.2-0.5
			c0.1-0.2,0.3-0.3,0.5-0.2c0.6,0.3,1.3,0.6,1.9,0.9c0.2,0.1,0.3,0.3,0.2,0.5C48.9,145,48.8,145.1,48.6,145.1z M112.2,144.1
			c-0.1,0-0.3-0.1-0.4-0.2c-0.1-0.2,0-0.4,0.2-0.5c0.6-0.3,1.3-0.6,1.9-1c0.2-0.1,0.4,0,0.5,0.2c0.1,0.2,0,0.4-0.2,0.5
			c-0.6,0.3-1.3,0.7-1.9,1C112.3,144.1,112.3,144.1,112.2,144.1z M44.8,143.2c-0.1,0-0.1,0-0.2,0c-0.6-0.3-1.3-0.7-1.9-1
			c-0.2-0.1-0.3-0.3-0.1-0.5c0.1-0.2,0.3-0.3,0.5-0.1c0.6,0.3,1.2,0.7,1.9,1c0.2,0.1,0.3,0.3,0.2,0.5
			C45.1,143.1,45,143.2,44.8,143.2z M115.9,142.2c-0.1,0-0.3-0.1-0.3-0.2c-0.1-0.2,0-0.4,0.1-0.5c0.6-0.3,1.2-0.7,1.8-1.1
			c0.2-0.1,0.4-0.1,0.5,0.1c0.1,0.2,0.1,0.4-0.1,0.5c-0.6,0.4-1.2,0.7-1.8,1.1C116.1,142.2,116,142.2,115.9,142.2z M41.1,141.1
			c-0.1,0-0.1,0-0.2-0.1c-0.6-0.4-1.2-0.7-1.8-1.1c-0.2-0.1-0.2-0.4-0.1-0.5c0.1-0.2,0.4-0.2,0.5-0.1c0.6,0.4,1.2,0.8,1.8,1.1
			c0.2,0.1,0.2,0.4,0.1,0.5C41.4,141,41.3,141.1,41.1,141.1z M119.6,140c-0.1,0-0.3-0.1-0.3-0.2c-0.1-0.2-0.1-0.4,0.1-0.5
			c0.6-0.4,1.2-0.8,1.8-1.2c0.2-0.1,0.4-0.1,0.6,0.1c0.1,0.2,0.1,0.4-0.1,0.6c-0.6,0.4-1.2,0.8-1.8,1.2
			C119.7,140,119.6,140,119.6,140z M37.6,138.8c-0.1,0-0.2,0-0.2-0.1c-0.6-0.4-1.2-0.8-1.7-1.2c-0.2-0.1-0.2-0.4-0.1-0.6
			c0.1-0.2,0.4-0.2,0.6-0.1c0.6,0.4,1.1,0.8,1.7,1.2c0.2,0.1,0.2,0.4,0.1,0.6C37.8,138.7,37.7,138.8,37.6,138.8z M123,137.6
			c-0.1,0-0.2-0.1-0.3-0.2c-0.1-0.2-0.1-0.4,0.1-0.6c0.6-0.4,1.1-0.8,1.7-1.3c0.2-0.1,0.4-0.1,0.6,0.1c0.1,0.2,0.1,0.4-0.1,0.6
			c-0.6,0.4-1.1,0.9-1.7,1.3C123.2,137.6,123.1,137.6,123,137.6z M34.1,136.3c-0.1,0-0.2,0-0.2-0.1c-0.6-0.4-1.1-0.9-1.7-1.3
			c-0.2-0.1-0.2-0.4-0.1-0.6c0.1-0.2,0.4-0.2,0.6-0.1c0.5,0.4,1.1,0.9,1.7,1.3c0.2,0.1,0.2,0.4,0.1,0.6
			C34.4,136.3,34.3,136.3,34.1,136.3z M126.4,135c-0.1,0-0.2,0-0.3-0.1c-0.1-0.2-0.1-0.4,0.1-0.6c0.5-0.4,1.1-0.9,1.6-1.4
			c0.2-0.1,0.4-0.1,0.6,0c0.1,0.2,0.1,0.4,0,0.6c-0.5,0.5-1.1,0.9-1.6,1.4C126.6,135,126.5,135,126.4,135z M30.9,133.6
			c-0.1,0-0.2,0-0.3-0.1c-0.5-0.5-1.1-0.9-1.6-1.4c-0.2-0.1-0.2-0.4,0-0.6c0.1-0.2,0.4-0.2,0.6,0c0.5,0.5,1,0.9,1.6,1.4
			c0.2,0.1,0.2,0.4,0,0.6C31.1,133.6,31,133.6,30.9,133.6z M129.6,132.2c-0.1,0-0.2,0-0.3-0.1c-0.1-0.2-0.1-0.4,0-0.6
			c0.5-0.5,1-1,1.5-1.4c0.2-0.2,0.4-0.1,0.6,0c0.2,0.2,0.1,0.4,0,0.6c-0.5,0.5-1,1-1.5,1.5C129.8,132.2,129.7,132.2,129.6,132.2z
			 M27.7,130.8c-0.1,0-0.2,0-0.3-0.1c-0.5-0.5-1-1-1.5-1.5c-0.2-0.2-0.1-0.4,0-0.6c0.2-0.2,0.4-0.1,0.6,0c0.5,0.5,1,1,1.5,1.5
			c0.2,0.2,0.2,0.4,0,0.6C28,130.7,27.9,130.8,27.7,130.8z M132.6,129.3c-0.1,0-0.2,0-0.3-0.1c-0.2-0.2-0.2-0.4,0-0.6
			c0.5-0.5,1-1,1.4-1.5c0.1-0.2,0.4-0.2,0.6,0c0.2,0.1,0.2,0.4,0,0.6c-0.5,0.5-1,1-1.5,1.5C132.8,129.2,132.7,129.3,132.6,129.3z
			 M24.8,127.7c-0.1,0-0.2,0-0.3-0.1c-0.5-0.5-1-1.1-1.4-1.6c-0.1-0.2-0.1-0.4,0-0.6c0.2-0.1,0.4-0.1,0.6,0c0.5,0.5,0.9,1.1,1.4,1.6
			c0.1,0.2,0.1,0.4,0,0.6C25,127.7,24.9,127.7,24.8,127.7z M135.5,126.2c-0.1,0-0.2,0-0.3-0.1c-0.2-0.1-0.2-0.4,0-0.6
			c0.5-0.5,0.9-1.1,1.4-1.6c0.1-0.2,0.4-0.2,0.6-0.1c0.2,0.1,0.2,0.4,0.1,0.6c-0.4,0.5-0.9,1.1-1.4,1.6
			C135.7,126.1,135.6,126.2,135.5,126.2z M22,124.5c-0.1,0-0.2,0-0.3-0.1c-0.4-0.5-0.9-1.1-1.3-1.7c-0.1-0.2-0.1-0.4,0.1-0.6
			c0.2-0.1,0.4-0.1,0.6,0.1c0.4,0.6,0.9,1.1,1.3,1.6c0.1,0.2,0.1,0.4-0.1,0.6C22.2,124.5,22.1,124.5,22,124.5z M138.2,122.9
			c-0.1,0-0.2,0-0.2-0.1c-0.2-0.1-0.2-0.4-0.1-0.6c0.4-0.5,0.9-1.1,1.3-1.7c0.1-0.2,0.4-0.2,0.6-0.1c0.2,0.1,0.2,0.4,0.1,0.6
			c-0.4,0.6-0.8,1.1-1.3,1.7C138.4,122.8,138.3,122.9,138.2,122.9z M19.4,121.2c-0.1,0-0.2-0.1-0.3-0.2c-0.4-0.6-0.8-1.2-1.2-1.7
			c-0.1-0.2-0.1-0.4,0.1-0.6c0.2-0.1,0.4-0.1,0.6,0.1c0.4,0.6,0.8,1.2,1.2,1.7c0.1,0.2,0.1,0.4-0.1,0.6
			C19.6,121.1,19.5,121.2,19.4,121.2z M140.7,119.5c-0.1,0-0.2,0-0.2-0.1c-0.2-0.1-0.2-0.4-0.1-0.6c0.4-0.6,0.8-1.2,1.2-1.8
			c0.1-0.2,0.4-0.2,0.5-0.1c0.2,0.1,0.2,0.4,0.1,0.5c-0.4,0.6-0.8,1.2-1.2,1.8C140.9,119.4,140.8,119.5,140.7,119.5z M17,117.7
			c-0.1,0-0.3-0.1-0.3-0.2c-0.4-0.6-0.8-1.2-1.1-1.8c-0.1-0.2-0.1-0.4,0.1-0.5c0.2-0.1,0.4-0.1,0.5,0.1c0.4,0.6,0.7,1.2,1.1,1.8
			c0.1,0.2,0.1,0.4-0.1,0.5C17.2,117.7,17.1,117.7,17,117.7z M143,115.9c-0.1,0-0.1,0-0.2-0.1c-0.2-0.1-0.2-0.4-0.1-0.5
			c0.4-0.6,0.7-1.2,1.1-1.8c0.1-0.2,0.4-0.3,0.5-0.1c0.2,0.1,0.3,0.3,0.1,0.5c-0.3,0.6-0.7,1.2-1.1,1.8
			C143.2,115.8,143.1,115.9,143,115.9z M14.9,114.1c-0.1,0-0.3-0.1-0.3-0.2c-0.3-0.6-0.7-1.2-1-1.9c-0.1-0.2,0-0.4,0.2-0.5
			c0.2-0.1,0.4,0,0.5,0.2c0.3,0.6,0.7,1.2,1,1.8c0.1,0.2,0,0.4-0.1,0.5C15,114,14.9,114.1,14.9,114.1z M145.1,112.2
			c-0.1,0-0.1,0-0.2,0c-0.2-0.1-0.3-0.3-0.2-0.5c0.3-0.6,0.7-1.3,1-1.9c0.1-0.2,0.3-0.3,0.5-0.2c0.2,0.1,0.3,0.3,0.2,0.5
			c-0.3,0.6-0.6,1.3-1,1.9C145.4,112.1,145.2,112.2,145.1,112.2z M12.9,110.3c-0.1,0-0.3-0.1-0.4-0.2c-0.3-0.6-0.6-1.3-0.9-1.9
			c-0.1-0.2,0-0.4,0.2-0.5c0.2-0.1,0.4,0,0.5,0.2c0.3,0.6,0.6,1.3,0.9,1.9c0.1,0.2,0,0.4-0.2,0.5C13,110.3,12.9,110.3,12.9,110.3z
			 M146.9,108.4c-0.1,0-0.1,0-0.2,0c-0.2-0.1-0.3-0.3-0.2-0.5c0.3-0.6,0.6-1.3,0.9-1.9c0.1-0.2,0.3-0.3,0.5-0.2
			c0.2,0.1,0.3,0.3,0.2,0.5c-0.3,0.6-0.6,1.3-0.9,2C147.2,108.3,147.1,108.4,146.9,108.4z M11.1,106.5c-0.2,0-0.3-0.1-0.4-0.2
			c-0.3-0.6-0.5-1.3-0.8-2c-0.1-0.2,0-0.4,0.2-0.5c0.2-0.1,0.4,0,0.5,0.2c0.3,0.6,0.5,1.3,0.8,1.9c0.1,0.2,0,0.4-0.2,0.5
			C11.2,106.5,11.2,106.5,11.1,106.5z M148.6,104.5c0,0-0.1,0-0.1,0c-0.2-0.1-0.3-0.3-0.2-0.5c0.3-0.7,0.5-1.3,0.7-2
			c0.1-0.2,0.3-0.3,0.5-0.2c0.2,0.1,0.3,0.3,0.2,0.5c-0.2,0.7-0.5,1.3-0.7,2C148.9,104.4,148.8,104.5,148.6,104.5z M9.6,102.5
			c-0.2,0-0.3-0.1-0.4-0.3c-0.2-0.7-0.5-1.3-0.7-2c-0.1-0.2,0-0.4,0.3-0.5c0.2-0.1,0.4,0,0.5,0.3c0.2,0.7,0.4,1.3,0.7,2
			c0.1,0.2,0,0.4-0.2,0.5C9.7,102.5,9.6,102.5,9.6,102.5z M150,100.5c0,0-0.1,0-0.1,0c-0.2-0.1-0.3-0.3-0.3-0.5
			c0.2-0.7,0.4-1.3,0.6-2c0.1-0.2,0.3-0.3,0.5-0.3c0.2,0.1,0.3,0.3,0.3,0.5c-0.2,0.7-0.4,1.4-0.6,2
			C150.4,100.4,150.2,100.5,150,100.5z M8.3,98.5c-0.2,0-0.3-0.1-0.4-0.3c-0.2-0.7-0.4-1.4-0.6-2.1c-0.1-0.2,0.1-0.4,0.3-0.5
			C7.8,95.6,8,95.8,8.1,96c0.2,0.7,0.4,1.4,0.6,2c0.1,0.2-0.1,0.4-0.3,0.5C8.3,98.5,8.3,98.5,8.3,98.5z M151.2,96.4c0,0-0.1,0-0.1,0
			c-0.2-0.1-0.3-0.3-0.3-0.5c0.2-0.7,0.3-1.4,0.5-2c0-0.2,0.3-0.3,0.5-0.3c0.2,0,0.3,0.3,0.3,0.5c-0.2,0.7-0.3,1.4-0.5,2.1
			C151.6,96.3,151.4,96.4,151.2,96.4z M7.2,94.4c-0.2,0-0.3-0.1-0.4-0.3c-0.2-0.7-0.3-1.4-0.5-2.1c0-0.2,0.1-0.4,0.3-0.5
			c0.2,0,0.4,0.1,0.5,0.3c0.1,0.7,0.3,1.4,0.4,2.1C7.6,94.2,7.5,94.4,7.2,94.4C7.3,94.4,7.2,94.4,7.2,94.4z M152.2,92.3
			C152.2,92.3,152.1,92.3,152.2,92.3c-0.3-0.1-0.4-0.3-0.4-0.5c0.1-0.7,0.3-1.4,0.4-2.1c0-0.2,0.2-0.4,0.5-0.3
			c0.2,0,0.4,0.2,0.3,0.5c-0.1,0.7-0.2,1.4-0.4,2.1C152.5,92.2,152.4,92.3,152.2,92.3z M6.3,90.3c-0.2,0-0.4-0.1-0.4-0.3
			c-0.1-0.7-0.2-1.4-0.3-2.1c0-0.2,0.1-0.4,0.3-0.4c0.2,0,0.4,0.1,0.4,0.3c0.1,0.7,0.2,1.4,0.3,2.1C6.8,90,6.6,90.2,6.3,90.3
			C6.4,90.3,6.4,90.3,6.3,90.3z M152.9,88.1C152.9,88.1,152.9,88.1,152.9,88.1c-0.3,0-0.4-0.2-0.4-0.5c0.1-0.7,0.2-1.4,0.3-2.1
			c0-0.2,0.2-0.4,0.4-0.3c0.2,0,0.4,0.2,0.3,0.4c-0.1,0.7-0.2,1.4-0.3,2.1C153.3,88,153.1,88.1,152.9,88.1z M5.7,86.1
			c-0.2,0-0.4-0.1-0.4-0.4c-0.1-0.7-0.2-1.4-0.2-2.1c0-0.2,0.1-0.4,0.4-0.4c0.2,0,0.4,0.1,0.4,0.4c0.1,0.7,0.1,1.4,0.2,2.1
			C6.2,85.9,6,86.1,5.7,86.1C5.8,86.1,5.8,86.1,5.7,86.1z M153.4,83.9C153.4,83.9,153.4,83.9,153.4,83.9c-0.3,0-0.4-0.2-0.4-0.4
			c0.1-0.7,0.1-1.4,0.1-2.1c0-0.2,0.2-0.4,0.4-0.4c0.2,0,0.4,0.2,0.4,0.4c0,0.7-0.1,1.4-0.1,2.1C153.8,83.7,153.6,83.9,153.4,83.9z
			 M5.4,81.9c-0.2,0-0.4-0.2-0.4-0.4c0-0.7-0.1-1.4-0.1-2.1c0-0.2,0.2-0.4,0.4-0.4c0.2,0,0.4,0.2,0.4,0.4c0,0.7,0.1,1.4,0.1,2.1
			C5.8,81.7,5.6,81.8,5.4,81.9C5.4,81.9,5.4,81.9,5.4,81.9z M153.6,79.7C153.6,79.7,153.6,79.7,153.6,79.7c-0.2,0-0.4-0.2-0.4-0.4
			c0-0.7,0-1.4,0-2.1V77c0-0.2,0.2-0.4,0.4-0.4s0.4,0.2,0.4,0.4v0.1c0,0.7,0,1.4,0,2.1C154,79.5,153.8,79.7,153.6,79.7z M5.3,77.6
			c-0.2,0-0.4-0.2-0.4-0.4v-0.1c0-0.7,0-1.4,0-2.1c0-0.2,0.2-0.4,0.4-0.4c0.2,0,0.4,0.2,0.4,0.4c0,0.7,0,1.4,0,2v0.1
			C5.7,77.4,5.5,77.6,5.3,77.6z M153.6,75.3c-0.2,0-0.4-0.2-0.4-0.4c0-0.7-0.1-1.4-0.1-2.1c0-0.2,0.2-0.4,0.4-0.4
			c0.2,0,0.4,0.2,0.4,0.4c0,0.7,0.1,1.4,0.1,2.1C154,75.1,153.8,75.3,153.6,75.3C153.6,75.3,153.6,75.3,153.6,75.3z M5.4,73.4
			C5.4,73.4,5.4,73.4,5.4,73.4C5.1,73.4,5,73.2,5,73c0-0.7,0.1-1.4,0.1-2.1c0-0.2,0.2-0.4,0.4-0.4c0.2,0,0.4,0.2,0.4,0.4
			c-0.1,0.7-0.1,1.4-0.1,2.1C5.8,73.2,5.6,73.4,5.4,73.4z M153.4,71.1c-0.2,0-0.4-0.2-0.4-0.4c-0.1-0.7-0.1-1.4-0.2-2.1
			c0-0.2,0.1-0.4,0.3-0.4c0.2,0,0.4,0.1,0.4,0.3c0.1,0.7,0.2,1.4,0.2,2.1C153.8,70.9,153.6,71,153.4,71.1
			C153.4,71.1,153.4,71.1,153.4,71.1z M5.7,69.2C5.7,69.2,5.7,69.2,5.7,69.2c-0.3,0-0.4-0.2-0.4-0.4c0.1-0.7,0.2-1.4,0.3-2.1
			c0-0.2,0.2-0.4,0.4-0.3c0.2,0,0.4,0.2,0.3,0.4c-0.1,0.7-0.2,1.4-0.3,2.1C6.1,69,5.9,69.2,5.7,69.2z M152.9,66.9
			c-0.2,0-0.4-0.1-0.4-0.3c-0.1-0.7-0.2-1.4-0.3-2.1c0-0.2,0.1-0.4,0.3-0.5c0.2,0,0.4,0.1,0.5,0.3c0.1,0.7,0.2,1.4,0.3,2.1
			C153.3,66.6,153.2,66.8,152.9,66.9C152.9,66.9,152.9,66.9,152.9,66.9z M6.3,65C6.3,65,6.3,65,6.3,65c-0.3,0-0.4-0.2-0.4-0.5
			c0.1-0.7,0.2-1.4,0.4-2.1c0-0.2,0.3-0.4,0.5-0.3c0.2,0,0.4,0.3,0.3,0.5C7,63.3,6.8,64,6.7,64.6C6.7,64.8,6.5,65,6.3,65z
			 M152.2,62.7c-0.2,0-0.3-0.1-0.4-0.3c-0.1-0.7-0.3-1.4-0.4-2.1c0-0.2,0.1-0.4,0.3-0.5c0.2-0.1,0.4,0.1,0.5,0.3
			c0.2,0.7,0.3,1.4,0.5,2.1C152.6,62.4,152.4,62.6,152.2,62.7C152.2,62.7,152.2,62.7,152.2,62.7z M7.2,60.8
			C7.1,60.8,7.1,60.8,7.2,60.8c-0.3-0.1-0.4-0.3-0.4-0.5c0.2-0.7,0.3-1.4,0.5-2.1c0.1-0.2,0.3-0.3,0.5-0.3C8,58,8.1,58.3,8,58.5
			c-0.2,0.7-0.3,1.4-0.5,2C7.5,60.7,7.3,60.8,7.2,60.8z M151.2,58.6c-0.2,0-0.3-0.1-0.4-0.3c-0.2-0.7-0.4-1.4-0.6-2
			c-0.1-0.2,0.1-0.4,0.3-0.5c0.2-0.1,0.4,0.1,0.5,0.3c0.2,0.7,0.4,1.4,0.6,2.1c0.1,0.2-0.1,0.4-0.3,0.5
			C151.3,58.6,151.2,58.6,151.2,58.6z M8.2,56.7c0,0-0.1,0-0.1,0c-0.2-0.1-0.3-0.3-0.3-0.5c0.2-0.7,0.4-1.4,0.6-2
			C8.5,54,8.8,53.9,9,53.9c0.2,0.1,0.3,0.3,0.3,0.5c-0.2,0.7-0.4,1.3-0.6,2C8.6,56.6,8.4,56.7,8.2,56.7z M150,54.5
			c-0.2,0-0.3-0.1-0.4-0.3c-0.2-0.7-0.4-1.3-0.7-2c-0.1-0.2,0-0.4,0.2-0.5c0.2-0.1,0.4,0,0.5,0.2c0.2,0.7,0.5,1.3,0.7,2
			c0.1,0.2,0,0.4-0.3,0.5C150.1,54.5,150,54.5,150,54.5z M9.5,52.7c0,0-0.1,0-0.1,0c-0.2-0.1-0.3-0.3-0.2-0.5c0.2-0.7,0.5-1.3,0.7-2
			c0.1-0.2,0.3-0.3,0.5-0.2c0.2,0.1,0.3,0.3,0.2,0.5c-0.3,0.7-0.5,1.3-0.7,2C9.9,52.6,9.7,52.7,9.5,52.7z M148.6,50.5
			c-0.2,0-0.3-0.1-0.4-0.3c-0.3-0.6-0.5-1.3-0.8-1.9c-0.1-0.2,0-0.4,0.2-0.5c0.2-0.1,0.4,0,0.5,0.2c0.3,0.7,0.5,1.3,0.8,2
			c0.1,0.2,0,0.4-0.2,0.5C148.7,50.5,148.6,50.5,148.6,50.5z M11.1,48.7c-0.1,0-0.1,0-0.2,0c-0.2-0.1-0.3-0.3-0.2-0.5
			c0.3-0.7,0.6-1.3,0.9-2c0.1-0.2,0.3-0.3,0.5-0.2c0.2,0.1,0.3,0.3,0.2,0.5c-0.3,0.6-0.6,1.3-0.8,1.9C11.4,48.6,11.2,48.7,11.1,48.7
			z M146.9,46.6c-0.2,0-0.3-0.1-0.4-0.2c-0.3-0.6-0.6-1.3-0.9-1.9c-0.1-0.2,0-0.4,0.2-0.5c0.2-0.1,0.4,0,0.5,0.2
			c0.3,0.6,0.6,1.3,0.9,1.9c0.1,0.2,0,0.4-0.2,0.5C147,46.6,147,46.6,146.9,46.6z M12.8,44.9c-0.1,0-0.1,0-0.2,0
			c-0.2-0.1-0.3-0.3-0.2-0.5c0.3-0.6,0.6-1.3,1-1.9c0.1-0.2,0.3-0.3,0.5-0.2c0.2,0.1,0.3,0.3,0.2,0.5c-0.3,0.6-0.6,1.3-1,1.9
			C13.1,44.8,13,44.9,12.8,44.9z M145,42.8c-0.1,0-0.3-0.1-0.4-0.2c-0.3-0.6-0.7-1.2-1-1.8c-0.1-0.2,0-0.4,0.1-0.5
			c0.2-0.1,0.4,0,0.5,0.1c0.3,0.6,0.7,1.2,1,1.9c0.1,0.2,0,0.4-0.2,0.5C145.2,42.8,145.1,42.8,145,42.8z M14.8,41.1
			c-0.1,0-0.1,0-0.2-0.1c-0.2-0.1-0.3-0.3-0.2-0.5c0.3-0.6,0.7-1.2,1.1-1.8c0.1-0.2,0.4-0.2,0.5-0.1c0.2,0.1,0.2,0.4,0.1,0.5
			c-0.4,0.6-0.7,1.2-1.1,1.8C15.1,41,15,41.1,14.8,41.1z M142.9,39.2c-0.1,0-0.3-0.1-0.3-0.2c-0.4-0.6-0.7-1.2-1.1-1.8
			c-0.1-0.2-0.1-0.4,0.1-0.5c0.2-0.1,0.4-0.1,0.5,0.1c0.4,0.6,0.8,1.2,1.1,1.8c0.1,0.2,0.1,0.4-0.1,0.5
			C143.1,39.1,143,39.2,142.9,39.2z M17,37.5c-0.1,0-0.1,0-0.2-0.1c-0.2-0.1-0.2-0.4-0.1-0.5c0.4-0.6,0.8-1.2,1.2-1.8
			c0.1-0.2,0.4-0.2,0.6-0.1c0.2,0.1,0.2,0.4,0.1,0.6c-0.4,0.6-0.8,1.2-1.2,1.8C17.3,37.4,17.1,37.5,17,37.5z M140.7,35.6
			c-0.1,0-0.2-0.1-0.3-0.2c-0.4-0.6-0.8-1.2-1.2-1.7c-0.1-0.2-0.1-0.4,0.1-0.6c0.2-0.1,0.4-0.1,0.6,0.1c0.4,0.6,0.8,1.2,1.2,1.7
			c0.1,0.2,0.1,0.4-0.1,0.6C140.8,35.6,140.7,35.6,140.7,35.6z M19.4,34c-0.1,0-0.2,0-0.2-0.1c-0.2-0.1-0.2-0.4-0.1-0.6
			c0.4-0.6,0.8-1.1,1.3-1.7c0.1-0.2,0.4-0.2,0.6-0.1c0.2,0.1,0.2,0.4,0.1,0.6c-0.4,0.6-0.9,1.1-1.3,1.7C19.6,33.9,19.5,34,19.4,34z
			 M138.2,32.2c-0.1,0-0.2-0.1-0.3-0.2c-0.4-0.5-0.9-1.1-1.3-1.6c-0.1-0.2-0.1-0.4,0.1-0.6c0.2-0.1,0.4-0.1,0.6,0.1
			c0.5,0.5,0.9,1.1,1.3,1.7c0.1,0.2,0.1,0.4-0.1,0.6C138.3,32.2,138.2,32.2,138.2,32.2z M22,30.6c-0.1,0-0.2,0-0.3-0.1
			c-0.2-0.1-0.2-0.4-0.1-0.6c0.4-0.5,0.9-1.1,1.4-1.6c0.1-0.2,0.4-0.2,0.6,0c0.2,0.1,0.2,0.4,0,0.6c-0.5,0.5-0.9,1.1-1.4,1.6
			C22.2,30.6,22.1,30.6,22,30.6z M135.5,28.9c-0.1,0-0.2,0-0.3-0.1c-0.5-0.5-0.9-1.1-1.4-1.6c-0.1-0.2-0.1-0.4,0-0.6
			c0.2-0.1,0.4-0.1,0.6,0c0.5,0.5,1,1.1,1.4,1.6c0.1,0.2,0.1,0.4,0,0.6C135.7,28.9,135.6,28.9,135.5,28.9z M24.8,27.4
			c-0.1,0-0.2,0-0.3-0.1c-0.2-0.1-0.2-0.4,0-0.6c0.5-0.5,1-1,1.5-1.5c0.2-0.2,0.4-0.2,0.6,0c0.2,0.2,0.2,0.4,0,0.6
			c-0.5,0.5-1,1-1.4,1.5C25,27.4,24.9,27.4,24.8,27.4z M132.6,25.8c-0.1,0-0.2,0-0.3-0.1c-0.5-0.5-1-1-1.5-1.5
			c-0.2-0.2-0.2-0.4,0-0.6c0.2-0.2,0.4-0.2,0.6,0c0.5,0.5,1,1,1.5,1.5c0.2,0.2,0.1,0.4,0,0.6C132.8,25.8,132.7,25.8,132.6,25.8z
			 M27.7,24.4c-0.1,0-0.2,0-0.3-0.1c-0.2-0.2-0.1-0.4,0-0.6c0.5-0.5,1-1,1.5-1.5c0.2-0.1,0.4-0.1,0.6,0c0.1,0.2,0.1,0.4,0,0.6
			c-0.5,0.5-1,1-1.5,1.4C27.9,24.3,27.8,24.4,27.7,24.4z M129.6,22.8c-0.1,0-0.2,0-0.3-0.1c-0.5-0.5-1-0.9-1.6-1.4
			c-0.2-0.1-0.2-0.4,0-0.6c0.1-0.2,0.4-0.2,0.6,0c0.5,0.5,1.1,0.9,1.6,1.4c0.2,0.1,0.2,0.4,0,0.6C129.8,22.8,129.7,22.8,129.6,22.8z
			 M30.8,21.5c-0.1,0-0.2,0-0.3-0.1c-0.1-0.2-0.1-0.4,0-0.6c0.5-0.5,1.1-0.9,1.6-1.4c0.2-0.1,0.4-0.1,0.6,0.1
			c0.1,0.2,0.1,0.4-0.1,0.6c-0.5,0.4-1.1,0.9-1.6,1.4C31,21.5,30.9,21.5,30.8,21.5z M126.4,20.1c-0.1,0-0.2,0-0.3-0.1
			c-0.5-0.4-1.1-0.9-1.7-1.3c-0.2-0.1-0.2-0.4-0.1-0.6c0.1-0.2,0.4-0.2,0.6-0.1c0.6,0.4,1.1,0.9,1.7,1.3c0.2,0.1,0.2,0.4,0.1,0.6
			C126.6,20,126.5,20.1,126.4,20.1z M34.1,18.8c-0.1,0-0.2-0.1-0.3-0.2c-0.1-0.2-0.1-0.4,0.1-0.6c0.6-0.4,1.1-0.9,1.7-1.3
			c0.2-0.1,0.4-0.1,0.6,0.1c0.1,0.2,0.1,0.4-0.1,0.6c-0.6,0.4-1.1,0.8-1.7,1.3C34.3,18.8,34.2,18.8,34.1,18.8z M123,17.5
			c-0.1,0-0.2,0-0.2-0.1c-0.6-0.4-1.1-0.8-1.7-1.2c-0.2-0.1-0.2-0.4-0.1-0.6c0.1-0.2,0.4-0.2,0.6-0.1c0.6,0.4,1.2,0.8,1.7,1.2
			c0.2,0.1,0.2,0.4,0.1,0.6C123.2,17.4,123.1,17.5,123,17.5z M37.5,16.3c-0.1,0-0.3-0.1-0.3-0.2c-0.1-0.2-0.1-0.4,0.1-0.6
			c0.6-0.4,1.2-0.8,1.8-1.2c0.2-0.1,0.4-0.1,0.5,0.1c0.1,0.2,0.1,0.4-0.1,0.5c-0.6,0.4-1.2,0.8-1.8,1.2
			C37.7,16.3,37.6,16.3,37.5,16.3z M119.5,15.1c-0.1,0-0.1,0-0.2-0.1c-0.6-0.4-1.2-0.8-1.8-1.1c-0.2-0.1-0.2-0.4-0.1-0.5
			c0.1-0.2,0.4-0.2,0.5-0.1c0.6,0.4,1.2,0.7,1.8,1.1c0.2,0.1,0.2,0.4,0.1,0.5C119.8,15,119.6,15.1,119.5,15.1z M41.1,14
			c-0.1,0-0.3-0.1-0.3-0.2c-0.1-0.2-0.1-0.4,0.1-0.5c0.6-0.4,1.2-0.7,1.8-1.1c0.2-0.1,0.4,0,0.5,0.1c0.1,0.2,0,0.4-0.1,0.5
			c-0.6,0.3-1.2,0.7-1.8,1.1C41.2,14,41.2,14,41.1,14z M115.9,12.9c-0.1,0-0.1,0-0.2-0.1c-0.6-0.3-1.2-0.7-1.9-1
			c-0.2-0.1-0.3-0.3-0.2-0.5c0.1-0.2,0.3-0.3,0.5-0.2c0.6,0.3,1.3,0.7,1.9,1c0.2,0.1,0.3,0.3,0.2,0.5
			C116.1,12.8,116,12.9,115.9,12.9z M44.8,12c-0.1,0-0.3-0.1-0.4-0.2c-0.1-0.2,0-0.4,0.2-0.5c0.6-0.3,1.3-0.7,1.9-1
			c0.2-0.1,0.4,0,0.5,0.2c0.1,0.2,0,0.4-0.2,0.5c-0.6,0.3-1.3,0.6-1.9,1C44.9,11.9,44.8,12,44.8,12z M112.1,10.9c-0.1,0-0.1,0-0.2,0
			c-0.6-0.3-1.3-0.6-1.9-0.9c-0.2-0.1-0.3-0.3-0.2-0.5c0.1-0.2,0.3-0.3,0.5-0.2c0.6,0.3,1.3,0.6,1.9,0.9c0.2,0.1,0.3,0.3,0.2,0.5
			C112.4,10.8,112.3,10.9,112.1,10.9z M48.6,10.1c-0.2,0-0.3-0.1-0.4-0.2c-0.1-0.2,0-0.4,0.2-0.5C49,9,49.7,8.7,50.3,8.5
			c0.2-0.1,0.4,0,0.5,0.2c0.1,0.2,0,0.4-0.2,0.5C50,9.5,49.4,9.8,48.7,10C48.7,10.1,48.6,10.1,48.6,10.1z M108.3,9.2
			c-0.1,0-0.1,0-0.2,0c-0.6-0.3-1.3-0.5-2-0.8c-0.2-0.1-0.3-0.3-0.2-0.5c0.1-0.2,0.3-0.3,0.5-0.2c0.7,0.3,1.3,0.5,2,0.8
			c0.2,0.1,0.3,0.3,0.2,0.5C108.6,9.1,108.4,9.2,108.3,9.2z M52.4,8.4c-0.2,0-0.3-0.1-0.4-0.3c-0.1-0.2,0-0.4,0.2-0.5
			c0.7-0.3,1.3-0.5,2-0.7c0.2-0.1,0.4,0,0.5,0.2c0.1,0.2,0,0.4-0.2,0.5c-0.7,0.2-1.3,0.5-2,0.7C52.5,8.4,52.5,8.4,52.4,8.4z
			 M104.3,7.6c0,0-0.1,0-0.1,0c-0.7-0.2-1.3-0.5-2-0.7c-0.2-0.1-0.3-0.3-0.3-0.5c0.1-0.2,0.3-0.3,0.5-0.3c0.7,0.2,1.4,0.4,2,0.7
			c0.2,0.1,0.3,0.3,0.2,0.5C104.6,7.5,104.5,7.6,104.3,7.6z M56.4,7c-0.2,0-0.3-0.1-0.4-0.3c-0.1-0.2,0-0.4,0.3-0.5
			c0.7-0.2,1.4-0.4,2-0.6c0.2-0.1,0.4,0.1,0.5,0.3c0.1,0.2-0.1,0.4-0.3,0.5c-0.7,0.2-1.3,0.4-2,0.6C56.5,7,56.5,7,56.4,7z
			 M100.3,6.3c0,0-0.1,0-0.1,0c-0.7-0.2-1.4-0.4-2-0.6c-0.2-0.1-0.3-0.3-0.3-0.5C97.9,5,98.1,4.9,98.3,5c0.7,0.2,1.4,0.4,2.1,0.6
			c0.2,0.1,0.3,0.3,0.3,0.5C100.6,6.2,100.4,6.3,100.3,6.3z M60.5,5.8c-0.2,0-0.3-0.1-0.4-0.3c-0.1-0.2,0.1-0.4,0.3-0.5
			c0.7-0.2,1.4-0.4,2.1-0.5c0.2-0.1,0.4,0.1,0.5,0.3c0,0.2-0.1,0.4-0.3,0.5c-0.7,0.2-1.4,0.3-2,0.5C60.6,5.8,60.5,5.8,60.5,5.8z
			 M96.2,5.3C96.1,5.3,96.1,5.2,96.2,5.3c-0.8-0.2-1.5-0.3-2.1-0.5c-0.2,0-0.4-0.3-0.3-0.5c0-0.2,0.3-0.4,0.5-0.3
			c0.7,0.1,1.4,0.3,2.1,0.4c0.2,0,0.3,0.3,0.3,0.5C96.5,5.1,96.3,5.3,96.2,5.3z M64.6,4.8c-0.2,0-0.3-0.1-0.4-0.3
			c0-0.2,0.1-0.4,0.3-0.5c0.7-0.1,1.4-0.3,2.1-0.4c0.2,0,0.4,0.1,0.5,0.3c0,0.2-0.1,0.4-0.3,0.5C66.1,4.6,65.4,4.7,64.6,4.8
			C64.7,4.8,64.6,4.8,64.6,4.8z M92,4.4C92,4.4,92,4.4,92,4.4c-0.8-0.1-1.5-0.2-2.1-0.3c-0.2,0-0.4-0.2-0.3-0.4
			c0-0.2,0.2-0.4,0.4-0.3c0.7,0.1,1.4,0.2,2.1,0.3c0.2,0,0.4,0.2,0.3,0.5C92.4,4.3,92.2,4.4,92,4.4z M68.8,4.1
			c-0.2,0-0.4-0.1-0.4-0.3c0-0.2,0.1-0.4,0.3-0.4c0.7-0.1,1.4-0.2,2.1-0.3c0.2,0,0.4,0.1,0.4,0.3c0,0.2-0.1,0.4-0.3,0.4
			C70.2,3.9,69.5,4,68.8,4.1C68.8,4.1,68.8,4.1,68.8,4.1z M87.8,3.8C87.8,3.8,87.8,3.8,87.8,3.8c-0.7-0.1-1.4-0.1-2.1-0.2
			c-0.2,0-0.4-0.2-0.4-0.4c0-0.2,0.2-0.4,0.4-0.4C86.4,2.9,87.1,3,87.8,3c0.2,0,0.4,0.2,0.3,0.4C88.2,3.7,88,3.8,87.8,3.8z M73,3.6
			c-0.2,0-0.4-0.2-0.4-0.4c0-0.2,0.1-0.4,0.4-0.4c0.7-0.1,1.4-0.1,2.1-0.2c0.2,0,0.4,0.2,0.4,0.4c0,0.2-0.2,0.4-0.4,0.4
			C74.4,3.5,73.7,3.6,73,3.6C73,3.6,73,3.6,73,3.6z M83.6,3.5C83.6,3.5,83.6,3.5,83.6,3.5c-0.7,0-1.4-0.1-2.1-0.1
			c-0.2,0-0.4-0.2-0.4-0.4c0-0.2,0.2-0.4,0.4-0.4c0.7,0,1.4,0,2.1,0.1c0.2,0,0.4,0.2,0.4,0.4C84,3.3,83.8,3.5,83.6,3.5z M77.2,3.4
			c-0.2,0-0.4-0.2-0.4-0.4c0-0.2,0.2-0.4,0.4-0.4c0.7,0,1.4,0,2.1,0c0,0,0,0,0,0c0.2,0,0.4,0.2,0.4,0.4c0,0.2-0.2,0.4-0.4,0.4
			C78.7,3.4,77.9,3.4,77.2,3.4C77.2,3.4,77.2,3.4,77.2,3.4z"/>
	</g>
</g>
</svg>
